<?xml version="1.0" encoding="UTF-8"?>
<svg width="37px" height="37px" viewBox="0 0 37 37" version="1.1" xmlns="http://www.w3.org/2000/svg" xmlns:xlink="http://www.w3.org/1999/xlink">
    <!-- Generator: Sketch 51.3 (57544) - http://www.bohemiancoding.com/sketch -->
    <title>Add-2</title>
    <desc>Created with Sketch.</desc>
    <defs></defs>
    <g id="UI_MI_NATURA-WEB" stroke="none" stroke-width="1" fill="none" fill-rule="evenodd">
        <g id="Add-2" fill="#000000">
            <path d="M18.6808889,0.328888889 C8.69067141,0.328888889 0.592,8.4275603 0.592,18.4177778 C0.592,28.4079953 8.69067141,36.5066667 18.6808889,36.5066667 C28.6711064,36.5066667 36.7697778,28.4079953 36.7697778,18.4177778 C36.7697778,8.4275603 28.6711064,0.328888889 18.6808889,0.328888889 L18.6808889,0.328888889 Z M18.6808889,34.04 C10.0529738,34.04 3.05866667,27.0456929 3.05866667,18.4177778 C3.05866667,9.78986269 10.0529738,2.79555556 18.6808889,2.79555556 C27.308804,2.79555556 34.3031111,9.78986269 34.3031111,18.4177778 C34.3031111,22.5610487 32.6572031,26.5346221 29.7274682,29.464357 C26.7977332,32.394092 22.8241598,34.04 18.6808889,34.04 Z" id="Shape"></path>
            <path d="M25.2586667,17.5955556 L20.3253333,17.5955556 L20.3253333,12.6622222 C20.3253333,11.981071 19.7731512,11.4288889 19.092,11.4288889 C18.4108488,11.4288889 17.8586667,11.981071 17.8586667,12.6622222 L17.8586667,17.5955556 L12.9253333,17.5955556 C12.2441821,17.5955556 11.692,18.1477377 11.692,18.8288889 C11.692,19.5100401 12.2441821,20.0622222 12.9253333,20.0622222 L17.8586667,20.0622222 L17.8586667,24.9955556 C17.8586667,25.6767067 18.4108488,26.2288889 19.092,26.2288889 C19.7731512,26.2288889 20.3253333,25.6767067 20.3253333,24.9955556 L20.3253333,20.0622222 L25.2586667,20.0622222 C25.9398179,20.0622222 26.492,19.5100401 26.492,18.8288889 C26.492,18.1477377 25.9398179,17.5955556 25.2586667,17.5955556 L25.2586667,17.5955556 Z" id="Shape"></path>
        </g>
    </g>
</svg>