<?xml version="1.0" encoding="UTF-8"?>
<svg width="35px" height="35px" viewBox="0 0 35 35" version="1.1" xmlns="http://www.w3.org/2000/svg" xmlns:xlink="http://www.w3.org/1999/xlink">
    <!-- Generator: Sketch 51.3 (57544) - http://www.bohemiancoding.com/sketch -->
    <title>Group 12</title>
    <desc>Created with Sketch.</desc>
    <defs></defs>
    <g id="UI_MI_NATURA-WEB" stroke="none" stroke-width="1" fill="none" fill-rule="evenodd">
        <g id="Group-12" fill="#000000">
            <g id="Arrow_right">
                <path d="M17.6711111,0.311111111 C8.22090539,0.311111111 0.56,7.9720165 0.56,17.4222222 C0.56,26.8724279 8.22090539,34.5333333 17.6711111,34.5333333 C27.1213168,34.5333333 34.7822222,26.8724279 34.7822222,17.4222222 C34.7822222,7.9720165 27.1213168,0.311111111 17.6711111,0.311111111 L17.6711111,0.311111111 Z M17.6711111,32.2 C9.50956981,32.2 2.89333333,25.5837635 2.89333333,17.4222222 C2.89333333,9.26068092 9.50956981,2.64444444 17.6711111,2.64444444 C25.8326524,2.64444444 32.4488889,9.26068092 32.4488889,17.4222222 C32.4488889,21.3415326 30.8919489,25.1003182 28.120578,27.8716891 C25.3492071,30.64306 21.5904215,32.2 17.6711111,32.2 Z" id="Shape"></path>
            </g>
            <g id="Check" transform="translate(8.000000, 12.000000)">
                <path d="M18.2273333,0.871 C17.8564311,0.490810609 17.2555689,0.490810609 16.8846667,0.871 L7.42266667,10.582 L1.76066667,4.771 C1.38635431,4.41303348 0.803054352,4.42359596 0.441279055,4.79489166 C0.0795037572,5.16618736 0.0692121101,5.76483732 0.418,6.149 L6.75133333,12.649 C7.12223556,13.0291894 7.72309777,13.0291894 8.094,12.649 L18.2273333,2.249 C18.5977743,1.86833719 18.5977743,1.25166281 18.2273333,0.871 L18.2273333,0.871 Z" id="Shape"></path>
            </g>
        </g>
    </g>
</svg>