<?xml version="1.0" encoding="UTF-8"?>
<svg width="29px" height="29px" viewBox="0 0 29 29" version="1.1" xmlns="http://www.w3.org/2000/svg" xmlns:xlink="http://www.w3.org/1999/xlink">
    <!-- Generator: Sketch 51.3 (57544) - http://www.bohemiancoding.com/sketch -->
    <title>Help</title>
    <desc>Created with Sketch.</desc>
    <defs></defs>
    <g id="UI_MI_NATURA-WEB" stroke="none" stroke-width="1" fill="none" fill-rule="evenodd">
        <g id="Help" fill="#000000">
            <path d="M14.6417778,0.257777778 C6.81160732,0.257777778 0.464,6.6053851 0.464,14.4355556 C0.464,22.265726 6.81160732,28.6133333 14.6417778,28.6133333 C22.4719482,28.6133333 28.8195556,22.265726 28.8195556,14.4355556 C28.8195556,6.6053851 22.4719482,0.257777778 14.6417778,0.257777778 L14.6417778,0.257777778 Z M22.5813333,5.12333333 L19.4171111,8.28755556 L19.3784444,8.33266667 C16.5965251,6.15378864 12.6870305,6.15378864 9.90511111,8.33266667 L9.86644444,8.28755556 L6.70222222,5.12333333 C11.2739535,1.20883585 18.0160465,1.20883585 22.5877778,5.12333333 L22.5813333,5.12333333 Z M14.6417778,20.2355556 C11.4385262,20.2355556 8.84177778,17.6388071 8.84177778,14.4355556 C8.84177778,11.232304 11.4385262,8.63555556 14.6417778,8.63555556 C17.8450293,8.63555556 20.4417778,11.232304 20.4417778,14.4355556 C20.4417778,17.6388071 17.8450293,20.2355556 14.6417778,20.2355556 L14.6417778,20.2355556 Z M2.39733333,14.4355556 C2.39480881,11.5237151 3.43499453,8.70721226 5.32955556,6.496 L8.49377778,9.66022222 L8.53888889,9.69888889 C6.36001087,12.4808082 6.36001087,16.3903029 8.53888889,19.1722222 L8.49377778,19.2108889 L5.32955556,22.3751111 C3.43499453,20.1638989 2.39480881,17.347396 2.39733333,14.4355556 L2.39733333,14.4355556 Z M6.70222222,23.7477778 L9.86644444,20.5835556 L9.90511111,20.5384444 C12.6870305,22.7173225 16.5965251,22.7173225 19.3784444,20.5384444 L19.4171111,20.5835556 L22.5813333,23.7477778 C18.0096021,27.6622753 11.267509,27.6622753 6.69577778,23.7477778 L6.70222222,23.7477778 Z M23.954,22.3815556 L20.764,19.2108889 L20.7188889,19.1722222 C22.8977669,16.3903029 22.8977669,12.4808082 20.7188889,9.69888889 L20.764,9.66022222 L23.9282222,6.496 C27.8427197,11.0677312 27.8427197,17.8098243 23.9282222,22.3815556 L23.954,22.3815556 Z" id="Shape"></path>
        </g>
    </g>
</svg>