<?xml version="1.0" encoding="UTF-8"?>
<svg width="28px" height="26px" viewBox="0 0 28 26" version="1.1" xmlns="http://www.w3.org/2000/svg" xmlns:xlink="http://www.w3.org/1999/xlink">
    <!-- Generator: Sketch 51.3 (57544) - http://www.bohemiancoding.com/sketch -->
    <title>Home</title>
    <desc>Created with Sketch.</desc>
    <defs></defs>
    <g id="UI_MI_NATURA-WEB" stroke="none" stroke-width="1" fill="none" fill-rule="evenodd">
        <g id="Home" fill="#000000">
            <path d="M27.3244797,10.5998024 L15.242764,0.451402017 C14.5257523,-0.150467339 13.4742477,-0.150467339 12.757236,0.451402017 L0.675520332,10.5998024 C0.0755509388,11.105943 -0.151449962,11.9235012 0.102885111,12.6621847 C0.357220184,13.4008681 1.0413187,13.910891 1.8286003,13.9487745 L1.8286003,24.0971749 C1.8286003,25.1480762 2.68901945,26 3.75040026,26 L24.2495997,26 C25.3109806,26 26.1713997,25.1480762 26.1713997,24.0971749 L26.1713997,13.9551173 C26.9586813,13.9172337 27.6427798,13.4072108 27.8971149,12.6685274 C28.15145,11.929844 27.9244491,11.1122858 27.3244797,10.6061452 L27.3244797,10.5998024 Z M13.3594,24.1035177 L12.0782,24.1035177 L12.0782,18.3950425 L15.9218,18.3950425 L15.9218,24.1035177 L13.3594,24.1035177 Z M24.2495997,12.0522922 L24.2495997,24.1035177 L17.8435999,24.1035177 L17.8435999,18.3950425 C17.8435999,17.3441412 16.9831808,16.4922174 15.9218,16.4922174 L12.0782,16.4922174 C11.0168192,16.4922174 10.1564001,17.3441412 10.1564001,18.3950425 L10.1564001,24.1035177 L3.75040026,24.1035177 L3.75040026,12.0522922 L1.9182843,12.0522922 L14,1.90389182 L26.0817157,12.0522922 L24.2495997,12.0522922 Z" id="Shape"></path>
        </g>
    </g>
</svg>