<?xml version="1.0" encoding="UTF-8"?>
<svg width="20px" height="25px" viewBox="0 0 20 25" version="1.1" xmlns="http://www.w3.org/2000/svg" xmlns:xlink="http://www.w3.org/1999/xlink">
    <!-- Generator: Sketch 51.3 (57544) - http://www.bohemiancoding.com/sketch -->
    <title>Location</title>
    <desc>Created with Sketch.</desc>
    <defs></defs>
    <g id="UI_MI_NATURA-WEB" stroke="none" stroke-width="1" fill="none" fill-rule="evenodd">
        <g id="Location" fill="#000000">
            <path d="M10.1756687,0.217428818 C4.82861822,0.351847145 0.525790199,4.65467517 0.391371872,10.0017256 C0.482089509,11.5826546 0.918112158,13.1245049 1.66876618,14.5188093 L1.74486626,14.6547023 C7.65893011,24.1345988 9.42553926,24.1345988 10.1756687,24.1345988 C11.3497843,24.1345988 12.6163072,23.3083693 15.6113891,19.0956859 C17.1823123,16.9213978 18.530371,14.7471096 18.5847282,14.6492666 L18.6608283,14.5188093 C19.4190588,13.1262638 19.8625302,11.5843193 19.9599655,10.0017256 C19.8255472,4.65467517 15.5227191,0.351847145 10.1756687,0.217428818 L10.1756687,0.217428818 Z M17.2421053,13.8067299 C17.2421053,13.8067299 11.8063848,22.5038827 10.1756687,22.5038827 C8.54495255,22.5038827 3.1092321,13.8067299 3.1092321,13.8067299 C2.47729774,12.6313901 2.10647424,11.3335078 2.02208801,10.0017256 C2.02208801,5.49862736 5.67257042,1.84814495 10.1756687,1.84814495 C14.6787669,1.84814495 18.3292494,5.49862736 18.3292494,10.0017256 C18.2398202,11.3347393 17.8634143,12.6326905 17.2257981,13.8067299 L17.2421053,13.8067299 Z" id="Shape"></path>
            <path d="M10.1756687,5.10957722 C7.77401627,5.10957722 5.82709232,7.05650117 5.82709232,9.45815358 C5.82709232,11.859806 7.77401627,13.8067299 10.1756687,13.8067299 C12.5773211,13.8067299 14.524245,11.859806 14.524245,9.45815358 C14.524245,7.05650117 12.5773211,5.10957722 10.1756687,5.10957722 Z M10.1756687,12.1760138 C8.67463593,12.1760138 7.45780846,10.9591863 7.45780846,9.45815358 C7.45780846,7.95712083 8.67463593,6.74029336 10.1756687,6.74029336 C11.6767014,6.74029336 12.8935289,7.95712083 12.8935289,9.45815358 C12.8935289,10.9591863 11.6767014,12.1760138 10.1756687,12.1760138 Z" id="Shape"></path>
        </g>
    </g>
</svg>