<?xml version="1.0" encoding="UTF-8"?>
<svg width="22px" height="24px" viewBox="0 0 22 24" version="1.1" xmlns="http://www.w3.org/2000/svg" xmlns:xlink="http://www.w3.org/1999/xlink">
    <!-- Generator: Sketch 51.3 (57544) - http://www.bohemiancoding.com/sketch -->
    <title>Document</title>
    <desc>Created with Sketch.</desc>
    <defs></defs>
    <g id="UI_MI_NATURA-WEB" stroke="none" stroke-width="1" fill="none" fill-rule="evenodd">
        <g id="Document" fill="#000000">
            <path d="M20.1497436,0.223255814 L7.17538462,0.223255814 C6.59158255,0.225224868 6.05003158,0.52478132 5.7425641,1.01581395 L1.22974359,5.48093023 C0.717957062,5.7838224 0.405074614,6.33087963 0.406153846,6.92093023 L0.406153846,21.9906977 C0.406153846,22.9154535 1.16382581,23.6651163 2.09846154,23.6651163 L20.1497436,23.6651163 C21.0843793,23.6651163 21.8420513,22.9154535 21.8420513,21.9906977 L21.8420513,1.89767442 C21.8420513,0.972918558 21.0843793,0.223255814 20.1497436,0.223255814 Z M5.48307692,3.63906977 L5.48307692,5.24651163 L3.85846154,5.24651163 L5.48307692,3.63906977 Z M20.1497436,21.9906977 L2.09846154,21.9906977 L2.09846154,6.97674419 L2.13230769,6.97674419 L2.16615385,6.94325581 L7.17538462,6.94325581 L7.17538462,1.98697674 L7.20923077,1.95348837 L7.20923077,1.92 L20.1271795,1.92 L20.1497436,21.9906977 Z" id="Shape"></path>
            <path d="M16.7651282,13.0604651 L5.48307692,13.0604651 C5.01575906,13.0604651 4.63692308,13.4352965 4.63692308,13.8976744 C4.63692308,14.3600523 5.01575906,14.7348837 5.48307692,14.7348837 L16.7651282,14.7348837 C17.2324461,14.7348837 17.6112821,14.3600523 17.6112821,13.8976744 C17.6112821,13.4352965 17.2324461,13.0604651 16.7651282,13.0604651 Z" id="Shape"></path>
            <path d="M16.7651282,16.9674419 L5.48307692,16.9674419 C5.01575906,16.9674419 4.63692308,17.3422732 4.63692308,17.8046512 C4.63692308,18.2670291 5.01575906,18.6418605 5.48307692,18.6418605 L16.7651282,18.6418605 C17.2324461,18.6418605 17.6112821,18.2670291 17.6112821,17.8046512 C17.6112821,17.3422732 17.2324461,16.9674419 16.7651282,16.9674419 Z" id="Shape"></path>
            <path d="M17.7692308,9.15348837 L8.17948718,9.15348837 C7.71216931,9.15348837 7.33333333,9.52831974 7.33333333,9.99069767 C7.33333333,10.4530756 7.71216931,10.827907 8.17948718,10.827907 L17.7692308,10.827907 C18.2365486,10.827907 18.6153846,10.4530756 18.6153846,9.99069767 C18.6153846,9.52831974 18.2365486,9.15348837 17.7692308,9.15348837 Z" id="Shape"></path>
        </g>
    </g>
</svg>