<?xml version="1.0" encoding="UTF-8"?>
<svg width="22px" height="22px" viewBox="0 0 22 22" version="1.1" xmlns="http://www.w3.org/2000/svg" xmlns:xlink="http://www.w3.org/1999/xlink">
    <!-- Generator: Sketch 51.3 (57544) - http://www.bohemiancoding.com/sketch -->
    <title>Time-2</title>
    <desc>Created with Sketch.</desc>
    <defs></defs>
    <g id="UI_MI_NATURA-WEB" stroke="none" stroke-width="1" fill="none" fill-rule="evenodd">
        <g id="Time-2" fill="#000000">
            <path d="M11.1737705,0.196721311 C5.19823058,0.196721311 0.354098361,5.04085353 0.354098361,11.0163934 C0.354098361,16.9919334 5.19823058,21.8360656 11.1737705,21.8360656 C17.1493104,21.8360656 21.9934426,16.9919334 21.9934426,11.0163934 C21.9934426,5.04085353 17.1493104,0.196721311 11.1737705,0.196721311 Z M11.1737705,20.3606557 C6.01307693,20.3606557 1.8295082,16.177087 1.8295082,11.0163934 C1.8295082,5.85569988 6.01307693,1.67213115 11.1737705,1.67213115 C16.3344641,1.67213115 20.5180328,5.85569988 20.5180328,11.0163934 C20.5180328,16.177087 16.3344641,20.3606557 11.1737705,20.3606557 Z" id="Shape"></path>
            <path d="M16.0918033,10.5245902 L11.6655738,10.5245902 L11.6655738,5.1147541 C11.6655738,4.70733092 11.335292,4.37704918 10.9278689,4.37704918 C10.5204457,4.37704918 10.1901639,4.70733092 10.1901639,5.1147541 L10.1901639,12 L16.0918033,12 C16.4992265,12 16.8295082,11.6697183 16.8295082,11.2622951 C16.8295082,10.8548719 16.4992265,10.5245902 16.0918033,10.5245902 L16.0918033,10.5245902 Z" id="Shape"></path>
        </g>
    </g>
</svg>