<?xml version="1.0" encoding="UTF-8"?>
<svg width="76px" height="87px" viewBox="0 0 76 87" version="1.1" xmlns="http://www.w3.org/2000/svg" xmlns:xlink="http://www.w3.org/1999/xlink">
    <!-- Generator: Sketch 52.2 (67145) - http://www.bohemiancoding.com/sketch -->
    <title>Trash</title>
    <desc>Created with Sketch.</desc>
    <g id="UI_MI_NATURA-WEB" stroke="none" stroke-width="1" fill="none" fill-rule="evenodd">
        <g id="Trash" fill="#5F80BF">
            <path d="M73.0769231,13.0182256 L56.3569231,13.0182256 C53.4719919,5.18396911 46.1621077,0 38,0 C29.8378923,0 22.5280081,5.18396911 19.6430769,13.0182256 L2.92307692,13.0182256 C1.30870612,13.0182256 0,14.3610406 0,16.0174868 C0,17.6739329 1.30870612,19.0167479 2.92307692,19.0167479 L4.87179487,19.0167479 L4.87179487,81.0014778 C4.87179487,84.3143701 7.4892071,87 10.7179487,87 L63.3333333,87 C66.5620749,87 69.1794872,84.3143701 69.1794872,81.0014778 L69.1794872,19.0167479 L73.0769231,19.0167479 C74.6912939,19.0167479 76,17.6739329 76,16.0174868 C76,14.3610406 74.6912939,13.0182256 73.0769231,13.0182256 L73.0769231,13.0182256 Z M38,6.01994969 C43.32,6.01994969 47.9384615,8.01945711 50.2184615,13.0182256 L25.7815385,13.0182256 C28.0615385,7.99946204 32.68,6.01994969 38,6.01994969 Z M63.3333333,81.0014778 L55.5384615,81.0014778 L55.5384615,47.0098517 C55.5384615,45.3534055 54.2297554,44.0105906 52.6153846,44.0105906 C51.0010138,44.0105906 49.6923077,45.3534055 49.6923077,47.0098517 L49.6923077,81.0014778 L39.9487179,81.0014778 L39.9487179,35.0128072 C39.9487179,33.356361 38.6400118,32.0135461 37.025641,32.0135461 C35.4112702,32.0135461 34.1025641,33.356361 34.1025641,35.0128072 L34.1025641,81.0014778 L24.3589744,81.0014778 L24.3589744,47.0098517 C24.3589744,45.3534055 23.0502682,44.0105906 21.4358974,44.0105906 C19.8215266,44.0105906 18.5128205,45.3534055 18.5128205,47.0098517 L18.5128205,81.0014778 L10.7179487,81.0014778 L10.7179487,19.0167479 L63.3333333,19.0167479 L63.3333333,81.0014778 Z" id="Shape"></path>
        </g>
    </g>
</svg>