<?xml version="1.0" encoding="UTF-8"?>
<svg width="34px" height="34px" viewBox="0 0 34 34" version="1.1" xmlns="http://www.w3.org/2000/svg" xmlns:xlink="http://www.w3.org/1999/xlink">
    <!-- Generator: Sketch 51.3 (57544) - http://www.bohemiancoding.com/sketch -->
    <title>Group 12</title>
    <desc>Created with Sketch.</desc>
    <defs></defs>
    <g id="UI_MI_NATURA-WEB" stroke="none" stroke-width="1" fill="none" fill-rule="evenodd">
        <g id="Group-12" fill="#FFFFFF">
            <g id="Arrow_right">
                <path d="M17,0 C7.61115925,2.196223e-14 0,7.61115925 0,17 C0,26.3888407 7.61115925,34 17,34 C26.3888407,34 34,26.3888407 34,17 C34,7.61115925 26.3888407,2.196223e-14 17,2.196223e-14 L17,0 Z M17,31.6818182 C8.89145572,31.6818182 2.31818182,25.1085443 2.31818182,17 C2.31818182,8.89145572 8.89145572,2.31818182 17,2.31818182 C25.1085443,2.31818182 31.6818182,8.89145572 31.6818182,17 C31.6818182,20.8938603 30.1349882,24.6282382 27.3816132,27.3816132 C24.6282382,30.1349882 20.8938603,31.6818182 17,31.6818182 Z" id="Shape"></path>
            </g>
            <g id="Check" transform="translate(7.000000, 12.000000)">
                <path d="M18.2273333,0.871 C17.8564311,0.490810609 17.2555689,0.490810609 16.8846667,0.871 L7.42266667,10.582 L1.76066667,4.771 C1.38635431,4.41303348 0.803054352,4.42359596 0.441279055,4.79489166 C0.0795037572,5.16618736 0.0692121101,5.76483732 0.418,6.149 L6.75133333,12.649 C7.12223556,13.0291894 7.72309777,13.0291894 8.094,12.649 L18.2273333,2.249 C18.5977743,1.86833719 18.5977743,1.25166281 18.2273333,0.871 L18.2273333,0.871 Z" id="Shape"></path>
            </g>
        </g>
    </g>
</svg>