<?xml version="1.0" encoding="UTF-8"?>
<svg width="18px" height="21px" viewBox="0 0 18 21" version="1.1" xmlns="http://www.w3.org/2000/svg" xmlns:xlink="http://www.w3.org/1999/xlink">
    <!-- Generator: Sketch 51.3 (57544) - http://www.bohemiancoding.com/sketch -->
    <title>Bookmark</title>
    <desc>Created with Sketch.</desc>
    <defs></defs>
    <g id="UI_MI_NATURA-WEB" stroke="none" stroke-width="1" fill="none" fill-rule="evenodd">
        <g id="Bookmark" fill="#FFFFFF">
            <path d="M15.6,1.67213115 L15.6,19.3770492 L8.7147541,12.4918033 L1.8295082,19.3770492 L1.8295082,1.67213115 L15.6,1.67213115 L15.6,1.67213115 Z M15.6,0.196721311 L1.8295082,0.196721311 C1.01466184,0.196721311 0.354098361,0.857284795 0.354098361,1.67213115 L0.354098361,19.3770492 C0.354622887,19.9733934 0.714088626,20.5107851 1.2650685,20.7389252 C1.81604837,20.9670653 2.45018986,20.8410891 2.87213115,20.4196721 L8.7147541,14.4590164 L14.557377,20.4196721 C14.9793183,20.8410891 15.6134598,20.9670653 16.1644397,20.7389252 C16.7154196,20.5107851 17.0748853,19.9733934 17.0754098,19.3770492 L17.0754098,1.67213115 C17.0754098,0.857284795 16.4148464,0.196721311 15.6,0.196721311 Z" id="Shape"></path>
        </g>
    </g>
</svg>