<?xml version="1.0" encoding="UTF-8"?>
<svg width="30px" height="19px" viewBox="0 0 30 19" version="1.1" xmlns="http://www.w3.org/2000/svg" xmlns:xlink="http://www.w3.org/1999/xlink">
    <!-- Generator: Sketch 51.3 (57544) - http://www.bohemiancoding.com/sketch -->
    <title>Group 46</title>
    <desc>Created with Sketch.</desc>
    <defs></defs>
    <g id="UI_MI_NATURA-WEB" stroke="none" stroke-width="1" fill="none" fill-rule="evenodd">
        <g id="Group-46" transform="translate(0.000000, -0.163934)" fill="#FFFFFF">
            <g id="User" transform="translate(9.344262, 0.000000)">
                <path d="M10.1901639,12 C12.9,12 15.1081967,9.35409836 15.1081967,6.09836066 C15.1081967,2.84262295 12.9,0.196721311 10.1901639,0.196721311 C7.48032787,0.196721311 5.27213115,2.84262295 5.27213115,6.09836066 C5.27213115,9.35409836 7.4852459,12 10.1901639,12 Z M10.1901639,1.67213115 C12.0934426,1.67213115 13.6327869,3.63934426 13.6327869,6.09836066 C13.6327869,8.55737705 12.0934426,10.5245902 10.1901639,10.5245902 C8.28688525,10.5245902 6.74754098,8.55737705 6.74754098,6.09836066 C6.74754098,3.63934426 8.28688525,1.67213115 10.1901639,1.67213115 Z" id="Shape"></path>
                <path d="M14.6901639,11.5081967 C14.2827408,11.4674544 13.9194309,11.764708 13.8786886,12.1721312 C13.8379463,12.5795543 14.1351998,12.9428642 14.542623,12.9836066 C16.8305025,13.2524467 18.6030177,15.1117285 18.7622951,17.4098361 L1.61803279,17.4098361 C1.79236622,15.1183987 3.557207,13.2671671 5.83770492,12.9836066 C6.24512809,12.9428642 6.54238166,12.5795543 6.50163934,12.1721311 C6.46089703,11.764708 6.09758711,11.4674544 5.69016393,11.5081967 C5.63606557,11.5081967 0.108196721,12.1377049 0.108196721,18.142623 C0.108196721,18.5500461 0.438478463,18.8803279 0.845901639,18.8803279 L19.5344262,18.8803279 C19.9418494,18.8803279 20.2721311,18.5500461 20.2721311,18.142623 C20.2721311,12.1377049 14.7442623,11.5081967 14.6901639,11.5081967 Z" id="Shape"></path>
            </g>
            <g id="User" transform="translate(0.000000, 1.967213)">
                <path d="M9.3442623,10.8196721 C11.7831148,10.8196721 13.7704918,8.3942623 13.7704918,5.40983607 C13.7704918,2.42540984 11.7831148,0 9.3442623,0 C6.90540984,0 4.91803279,2.42540984 4.91803279,5.40983607 C4.91803279,8.3942623 6.90983607,10.8196721 9.3442623,10.8196721 Z M9.3442623,1.35245902 C11.0572131,1.35245902 12.442623,3.1557377 12.442623,5.40983607 C12.442623,7.66393443 11.0572131,9.46721311 9.3442623,9.46721311 C7.63131148,9.46721311 6.24590164,7.66393443 6.24590164,5.40983607 C6.24590164,3.1557377 7.63131148,1.35245902 9.3442623,1.35245902 Z" id="Shape"></path>
                <path d="M16.8341863,15.4466808 L1.36253499,15.4466808 C1.51986028,13.4604498 3.11252147,11.8557918 5.17053179,11.6099998 C5.53820636,11.5746842 5.80645958,11.2597651 5.76969212,10.9066083 C5.73292467,10.5534516 5.40505962,10.2957905 5.03738505,10.3311062 C4.98856457,10.3311062 0,10.8767675 0,16.0818646 C0,16.4350214 0.304139391,16.9229786 0.671813965,16.9229786 L17.5370679,16.9229786 C17.9047424,16.9229786 18.1820493,15.7287455 18.1967213,16.0818646 C18.1967213,16.0818646 16.8341863,15.4466808 16.8341863,15.4466808 Z" id="Shape"></path>
            </g>
        </g>
    </g>
</svg>