<?xml version="1.0" encoding="UTF-8"?>
<svg width="29px" height="31px" viewBox="0 0 29 31" version="1.1" xmlns="http://www.w3.org/2000/svg" xmlns:xlink="http://www.w3.org/1999/xlink">
    <!-- Generator: Sketch 51.3 (57544) - http://www.bohemiancoding.com/sketch -->
    <title>Take_off</title>
    <desc>Created with Sketch.</desc>
    <defs></defs>
    <g id="UI_MI_NATURA-WEB" stroke="none" stroke-width="1" fill="none" fill-rule="evenodd">
        <g id="Take_off" fill="#FFFFFF">
            <path d="M19.8415819,2 L19.8415819,4.59440434 C24.9555548,7.17347508 27.6743761,13.0709316 26.397735,18.8155033 C25.1210939,24.560075 20.187131,28.6302116 14.5,28.6302116 C8.81286904,28.6302116 3.87890613,24.560075 2.60226499,18.8155033 C1.32562386,13.0709316 4.04444525,7.17347508 9.15841811,4.59440434 L9.15841811,2 C2.68903625,4.65751361 -1.04638962,11.7045948 0.258663661,18.7898638 C1.56371694,25.8751329 7.54112413,31 14.5,31 C21.4588759,31 27.4362831,25.8751329 28.7413363,18.7898638 C30.0463896,11.7045948 26.3109637,4.65751361 19.8415819,2 L19.8415819,2 Z" id="Shape"></path>
            <path d="M14,1.496 L14,14.496 C14,15.296 14.3066667,16 15,16 C15.6933333,16 16,15.328 16,14.504 L16,1.496 C16,0.696 15.6933333,0 15,0 C14.3066667,0 14,0.664 14,1.496 Z" id="Shape"></path>
        </g>
    </g>
</svg>