<?xml version="1.0" encoding="UTF-8"?>
<svg width="58px" height="37px" viewBox="0 0 58 37" version="1.1" xmlns="http://www.w3.org/2000/svg" xmlns:xlink="http://www.w3.org/1999/xlink">
    <!-- Generator: Sketch 51.3 (57544) - http://www.bohemiancoding.com/sketch -->
    <title>Group 46</title>
    <desc>Created with Sketch.</desc>
    <defs></defs>
    <g id="UI_MI_NATURA-WEB" stroke="none" stroke-width="1" fill="none" fill-rule="evenodd">
        <g id="Group-46" fill="#FFFFFF">
            <g id="User" transform="translate(18.000000, 0.000000)">
                <path d="M19.8234883,23.1087719 C25.095082,23.1087719 29.3908089,18.0134771 29.3908089,11.7438021 C29.3908089,5.47412712 25.095082,0.378832327 19.8234883,0.378832327 C14.5518947,0.378832327 10.2561677,5.47412712 10.2561677,11.7438021 C10.2561677,18.0134771 14.561462,23.1087719 19.8234883,23.1087719 Z M19.8234883,3.22007478 C23.5260414,3.22007478 26.5206127,7.00839804 26.5206127,11.7438021 C26.5206127,16.4792062 23.5260414,20.2675295 19.8234883,20.2675295 C16.1209352,20.2675295 13.1263639,16.4792062 13.1263639,11.7438021 C13.1263639,7.00839804 16.1209352,3.22007478 19.8234883,3.22007478 Z" id="Shape"></path>
                <path d="M28.5775867,22.1616911 C27.7850039,22.0832324 27.0782372,22.6556628 26.9989789,23.4402502 C26.9197206,24.2248376 27.4979843,24.9244748 28.2905671,25.0029336 C32.7413053,25.5206474 36.1894771,29.1011239 36.4993281,33.5266609 L3.14764848,33.5266609 C3.48678893,29.113969 6.9200311,25.5489949 11.3564096,25.0029336 C12.1489924,24.9244748 12.7272561,24.2248377 12.6479979,23.4402502 C12.5687396,22.6556628 11.8619727,22.0832324 11.0693899,22.1616911 C10.9641494,22.1616911 0.210481053,23.3739546 0.210481053,34.9378113 C0.210481053,35.7223988 0.852996355,36.3584326 1.64557915,36.3584326 L38.0013975,36.3584326 C38.7939803,36.3584326 39.4364956,35.7223988 39.4364956,34.9378113 C39.4364956,23.3739546 28.6828272,22.1616911 28.5775867,22.1616911 Z" id="Shape"></path>
            </g>
            <g id="User" transform="translate(0.000000, 4.000000)">
                <path d="M17.9675167,21.184918 C22.6570386,21.184918 26.4784457,16.4359656 26.4784457,10.592459 C26.4784457,4.74895246 22.6570386,0 17.9675167,0 C13.2779948,0 9.45658774,4.74895246 9.45658774,10.592459 C9.45658774,16.4359656 13.2865058,21.184918 17.9675167,21.184918 Z M17.9675167,2.64811475 C21.2612462,2.64811475 23.925167,6.17893443 23.925167,10.592459 C23.925167,15.0059836 21.2612462,18.5368033 17.9675167,18.5368033 C14.6737872,18.5368033 12.0098664,15.0059836 12.0098664,10.592459 C12.0098664,6.17893443 14.6737872,2.64811475 17.9675167,2.64811475 Z" id="Shape"></path>
                <path d="M32.3694385,30.244601 L2.6199361,30.244601 C2.92244739,26.3555608 5.98487924,23.2136403 9.94210279,22.7323797 C10.649082,22.6632316 11.1648899,22.04662 11.094192,21.3551391 C11.023494,20.6636583 10.3930622,20.1591578 9.68608297,20.2283059 C9.59220904,20.2283059 0,21.2967107 0,31.488291 C0,32.1797719 0.573119876,32.7403279 1.28009907,32.7403279 L33.7092755,32.7403279 C34.4162547,32.7403279 34.9611627,30.7968838 34.9893746,31.488291 C34.9893746,31.488291 32.3694385,30.244601 32.3694385,30.244601 Z" id="Shape"></path>
            </g>
        </g>
    </g>
</svg>