<?xml version="1.0" encoding="UTF-8"?>
<svg width="20px" height="21px" viewBox="0 0 20 21" version="1.1" xmlns="http://www.w3.org/2000/svg" xmlns:xlink="http://www.w3.org/1999/xlink">
    <!-- Generator: Sketch 51.3 (57544) - http://www.bohemiancoding.com/sketch -->
    <title>Share-2</title>
    <desc>Created with Sketch.</desc>
    <defs></defs>
    <g id="UI_MI_NATURA-WEB" stroke="none" stroke-width="1" fill="none" fill-rule="evenodd">
        <g id="Share-2" fill="#FFFFFF">
            <path d="M16.3078331,13.4560946 C15.196226,13.4567872 14.1443933,13.9709177 13.4456689,14.855106 L7.24782088,11.6858072 C7.41199505,11.0403704 7.4010814,10.3613799 7.21625289,9.72181047 L13.5298502,6.22966288 C14.7591252,7.68476256 16.8627851,7.95919438 18.4098615,6.8662821 C19.9569378,5.77336981 20.4506077,3.66408759 19.555063,1.97322848 C18.6595183,0.282369366 16.6623512,-0.447069846 14.9220909,0.281095896 C13.1818306,1.00926164 12.2573384,2.96119164 12.7774799,4.80912827 L6.46388254,8.30127585 C5.4488779,7.10572862 3.81115486,6.68699974 2.36544481,7.25339768 C0.919734759,7.81979562 -0.0252837539,9.25038679 0.00051530748,10.8334834 C0.0263143688,12.41658 1.01742256,13.8141696 2.48078523,14.3309819 C3.94414791,14.8477942 5.56731744,14.3734829 6.54280251,13.1440075 L12.7406506,16.3133063 C12.3563669,17.8733839 12.9833826,19.5108537 14.3013666,20.3891619 C15.6193506,21.2674702 17.3373012,21.1926925 18.5775484,20.2030314 C19.8177956,19.2133703 20.3065014,17.5273361 19.7939949,16.0062934 C19.2814883,14.4852507 17.8809272,13.465035 16.3078331,13.4668563 L16.3078331,13.4560946 Z M16.3078331,1.6183062 C17.4701342,1.6183062 18.4123655,2.581935 18.4123655,3.77063137 C18.4123655,4.95932774 17.4701342,5.92295654 16.3078331,5.92295654 C15.1455319,5.92295654 14.2033006,4.95932774 14.2033006,3.77063137 C14.2033006,2.581935 15.1455319,1.6183062 16.3078331,1.6183062 Z M3.68063838,12.9180133 C2.5183372,12.9180133 1.57610593,11.9543845 1.57610593,10.7656882 C1.57610593,9.57699181 2.5183372,8.613363 3.68063838,8.613363 C4.84293955,8.613363 5.78517082,9.57699181 5.78517082,10.7656882 C5.78517082,11.9543845 4.84293955,12.9180133 3.68063838,12.9180133 Z M16.3078331,19.3749889 C15.1455319,19.3749889 14.2033006,18.4113601 14.2033006,17.2226637 C14.2033006,16.0339673 15.1455319,15.0703385 16.3078331,15.0703385 C17.4701342,15.0703385 18.4123655,16.0339673 18.4123655,17.2226637 C18.4123655,18.4113601 17.4701342,19.3749889 16.3078331,19.3749889 Z" id="Shape"></path>
        </g>
    </g>
</svg>