<?xml version="1.0" encoding="UTF-8"?>
<svg width="512px" height="388px" viewBox="0 0 512 388" version="1.1" xmlns="http://www.w3.org/2000/svg" xmlns:xlink="http://www.w3.org/1999/xlink">
    <!-- Generator: Sketch 52.2 (67145) - http://www.bohemiancoding.com/sketch -->
    <title>Group 10</title>
    <desc>Created with Sketch.</desc>
    <g id="Page-1" stroke="none" stroke-width="1" fill="none" fill-rule="evenodd">
        <g id="Group-10" fill="#000000">
            <g id="Group-Copy" transform="translate(209.000000, 0.000000)">
                <path d="M280.552607,0 C212.72247,0 161.849868,0 127.934799,0 C104.350296,0 68.9735419,0 21.8045361,0 C9.78024298,0 0,9.8099248 0,21.8686787 L0,46.6522701 C0,50.6779294 3.25432702,53.9418297 7.26817871,53.9418297 C11.2820304,53.9418297 14.5363574,50.6779294 14.5363574,46.6522701 L14.5363574,21.8686787 C14.5363574,17.850309 17.7979526,14.5791192 21.8045361,14.5791192 L280.552607,14.5791192 C284.55919,14.5791192 287.820785,17.850309 287.820785,21.8686787 L287.820785,351.358594 C287.820785,355.376964 284.55919,358.648154 280.552607,358.648154 L21.8045361,358.648154 C17.7979526,358.648154 14.5363574,355.376964 14.5363574,351.358594 L14.5363574,327.784158 C14.5363574,323.758499 11.2820304,320.494599 7.26817871,320.494599 C3.25432702,320.494599 0,323.758499 0,327.784158 L0,351.358594 C0,363.413703 9.78024298,373.227273 21.8045361,373.227273 L280.552607,373.227273 C292.572357,373.227273 302.357143,363.413703 302.357143,351.358594 L302.357143,21.8686787 C302.357143,9.8099248 292.572357,0 280.552607,0 Z" id="Fill-1"></path>
                <path d="M276.273758,9.5 C210.687,9.5 161.496931,9.5 128.703551,9.5 C105.89907,9.5 71.6923475,9.5 26.0833845,9.5 C14.4567764,9.5 5,18.9682321 5,30.6069637 L5,54.5273098 C5,58.41275 8.14669513,61.5629643 12.0277948,61.5629643 C15.9088945,61.5629643 19.0555896,58.41275 19.0555896,54.5273098 L19.0555896,30.6069637 C19.0555896,26.7285591 22.2093126,23.5713091 26.0833845,23.5713091 L276.273758,23.5713091 C280.14783,23.5713091 283.301553,26.7285591 283.301553,30.6069637 L283.301553,348.620309 C283.301553,352.498714 280.14783,355.655964 276.273758,355.655964 L26.0833845,355.655964 C22.2093126,355.655964 19.0555896,352.498714 19.0555896,348.620309 L19.0555896,325.867002 C19.0555896,321.981562 15.9088945,318.831348 12.0277948,318.831348 C8.14669513,318.831348 5,321.981562 5,325.867002 L5,348.620309 C5,360.255523 14.4567764,369.727273 26.0833845,369.727273 L276.273758,369.727273 C287.895974,369.727273 297.357143,360.255523 297.357143,348.620309 L297.357143,30.6069637 C297.357143,18.9682321 287.895974,9.5 276.273758,9.5 Z" id="Fill-1"></path>
            </g>
            <path d="M334.43795,365.161678 L254.3223,285.525252 C310.457786,229.074992 312.168319,138.458713 258.203207,79.9325031 C204.238095,21.4062932 113.732197,15.7222797 52.8608937,67.0364542 C-8.01040924,118.350629 -17.6634708,208.468096 30.9597576,271.497485 C79.582986,334.526873 169.24176,348.119327 234.380093,302.336424 L316.056437,383.965926 C321.180887,388.738199 329.16644,388.597384 334.119253,383.647412 C339.072066,378.697439 339.212962,370.716466 334.43795,365.594955 L334.43795,365.161678 Z M28.2817151,181.538625 C28.2817151,114.536692 82.6286824,60.2208935 149.669064,60.2208935 C216.709446,60.2208935 271.056413,114.536692 271.056413,181.538625 C271.056413,248.540558 216.709446,302.856357 149.669064,302.856357 C82.6286824,302.856357 28.2817151,248.540558 28.2817151,181.538625 Z" id="Shape-Copy" transform="translate(168.964286, 209.727273) scale(-1, 1) translate(-168.964286, -209.727273) "></path>
            <path d="M462.465449,307 L296.534551,307 C290.065921,307 285,312.712631 285,320.001981 C285,327.287369 290.065921,333 296.534551,333 L462.465449,333 C468.934079,333 474,327.287369 474,320.001981 C474,312.712631 468.934079,307 462.465449,307 Z" id="Fill-2-Copy"></path>
            <path d="M454.852885,263 L360.163163,263 C352.7812,263 347,268.712631 347,275.998019 C347,283.287369 352.7812,289 360.163163,289 L454.852885,289 C462.230836,289 468,283.287369 468,275.998019 C468,268.712631 462.230836,263 454.852885,263 Z" id="Fill-3-Copy"></path>
        </g>
    </g>
</svg>