<?xml version="1.0" encoding="UTF-8"?>
<svg width="24px" height="27px" viewBox="0 0 24 27" version="1.1" xmlns="http://www.w3.org/2000/svg" xmlns:xlink="http://www.w3.org/1999/xlink">
    <!-- Generator: Sketch 51.3 (57544) - http://www.bohemiancoding.com/sketch -->
    <title>Edit-2</title>
    <desc>Created with Sketch.</desc>
    <defs></defs>
    <g id="UI_MI_NATURA-WEB" stroke="none" stroke-width="1" fill="none" fill-rule="evenodd">
        <g id="Edit-2" fill="#000000">
            <path d="M20.232,24.84 L2.232,24.84 L2.232,2.04 L12.432,2.04 L12.432,0.24 L2.232,0.24 C1.23788745,0.24 0.432,1.04588745 0.432,2.04 L0.432,24.84 C0.432,25.8341125 1.23788745,26.64 2.232,26.64 L20.232,26.64 C21.2261125,26.64 22.032,25.8341125 22.032,24.84 L22.032,13.44 L20.232,13.44 L20.232,24.84 Z" id="Shape"></path>
            <path d="M23.304,2.484 L22.032,1.212 C21.3292379,0.510111893 20.1907621,0.510111893 19.488,1.212 C19.488,1.212 9.486,11.202 9.336,11.808 L8.886,13.608 C8.73195777,14.2218175 8.91157665,14.8714363 9.35907016,15.3189298 C9.80656368,15.7664234 10.4561825,15.9460422 11.07,15.792 L12.87,15.342 C13.47,15.186 23.304,5.034 23.304,5.034 C24.0058881,4.33123789 24.0058881,3.19276211 23.304,2.49 L23.304,2.484 Z M13.584,12.204 L12.354,10.974 L12.312,10.938 L20.76,2.49 L22.032,3.762 L13.584,12.204 Z" id="Shape"></path>
        </g>
    </g>
</svg>