<?xml version="1.0" encoding="utf-8"?>
<!-- Generator: Adobe Illustrator 21.0.2, SVG Export Plug-In . SVG Version: 6.00 Build 0)  -->
<svg version="1.1" id="artwork" xmlns="http://www.w3.org/2000/svg" xmlns:xlink="http://www.w3.org/1999/xlink" x="0px" y="0px"
	 viewBox="0 0 237 70" style="enable-background:new 0 0 237 70;" xml:space="preserve">
<style type="text/css">
	.st0{fill:#A6A6A6;}
	.st1{fill:#FFFFFF;}
	.st2{fill:url(#SVGID_1_);}
	.st3{fill:url(#SVGID_2_);}
	.st4{fill:url(#SVGID_3_);}
	.st5{fill:url(#SVGID_4_);}
	.st6{opacity:0.2;enable-background:new    ;}
	.st7{opacity:0.12;enable-background:new    ;}
	.st8{opacity:0.25;fill:#FFFFFF;enable-background:new    ;}
	.st9{fill:#FFFFFF;stroke:#FFFFFF;stroke-width:0.35;stroke-miterlimit:10;}
</style>
<g>
	<g>
		<path d="M227.9,70H9.1c-4.8,0-8.7-3.9-8.7-8.7V8.7C0.4,3.9,4.3,0,9.1,0h218.7c4.8,0,8.7,3.9,8.7,8.7v52.5
			C236.6,66.1,232.7,70,227.9,70z"/>
	</g>
	<g>
		<g>
			<path class="st0" d="M227.9,1.4c4.1,0,7.3,3.3,7.3,7.4v52.5c0,4.1-3.3,7.4-7.3,7.4H9.1c-4.1,0-7.3-3.3-7.3-7.4V8.8
				c0-4.1,3.3-7.4,7.3-7.4H227.9 M227.9,0H9.1C4.3,0,0.4,3.9,0.4,8.8v52.5c0,4.8,3.9,8.7,8.7,8.7h218.7c4.8,0,8.7-3.9,8.7-8.7V8.8
				C236.6,3.9,232.7,0,227.9,0L227.9,0z"/>
		</g>
	</g>
	<path class="st1" d="M119.6,38.1c-4.1,0-7.5,3.1-7.5,7.4c0,4.3,3.4,7.4,7.5,7.4c4.1,0,7.5-3.2,7.5-7.4
		C127.1,41.2,123.7,38.1,119.6,38.1z M119.6,50c-2.3,0-4.2-1.9-4.2-4.5c0-2.7,1.9-4.5,4.2-4.5s4.2,1.8,4.2,4.5
		C123.8,48.2,121.9,50,119.6,50z M103.3,38.1c-4.1,0-7.5,3.1-7.5,7.4c0,4.3,3.4,7.4,7.5,7.4c4.1,0,7.5-3.2,7.5-7.4
		C110.8,41.2,107.4,38.1,103.3,38.1z M103.3,50c-2.3,0-4.2-1.9-4.2-4.5c0-2.7,1.9-4.5,4.2-4.5c2.3,0,4.2,1.8,4.2,4.5
		C107.5,48.2,105.6,50,103.3,50z M83.9,40.3v3.2h7.6c-0.2,1.8-0.8,3.1-1.7,4c-1.1,1.1-2.8,2.3-5.8,2.3c-4.7,0-8.3-3.7-8.3-8.4
		s3.6-8.4,8.3-8.4c2.5,0,4.3,1,5.7,2.3l2.2-2.2c-1.9-1.8-4.4-3.2-7.9-3.2c-6.4,0-11.7,5.2-11.7,11.6c0,6.4,5.4,11.6,11.7,11.6
		c3.4,0,6-1.1,8.1-3.2c2.1-2.1,2.7-5,2.7-7.4c0-0.7-0.1-1.4-0.2-2H83.9z M163.2,42.8c-0.6-1.7-2.5-4.7-6.4-4.7c-3.8,0-7,3-7,7.4
		c0,4.2,3.2,7.4,7.4,7.4c3.4,0,5.4-2.1,6.2-3.3l-2.5-1.7c-0.8,1.2-2,2.1-3.7,2.1c-1.7,0-2.8-0.8-3.6-2.3l10-4.1L163.2,42.8z
		 M153.1,45.3c-0.1-2.9,2.2-4.3,3.9-4.3c1.3,0,2.4,0.6,2.8,1.6L153.1,45.3z M145,52.5h3.3V30.6H145V52.5z M139.6,39.7h-0.1
		c-0.7-0.9-2.1-1.7-3.9-1.7c-3.7,0-7.1,3.3-7.1,7.5c0,4.2,3.4,7.4,7.1,7.4c1.8,0,3.2-0.8,3.9-1.7h0.1v1.1c0,2.8-1.5,4.4-4,4.4
		c-2,0-3.2-1.4-3.7-2.7l-2.8,1.2c0.8,2,3,4.4,6.6,4.4c3.8,0,7.1-2.3,7.1-7.8V38.5h-3.1V39.7z M135.9,50c-2.3,0-4.1-1.9-4.1-4.5
		c0-2.6,1.9-4.5,4.1-4.5c2.2,0,4,1.9,4,4.5C139.8,48.1,138.1,50,135.9,50z M178.5,30.6h-7.8v21.9h3.3v-8.3h4.6
		c3.6,0,7.2-2.6,7.2-6.8S182.2,30.6,178.5,30.6z M178.6,41.2H174v-7.5h4.6c2.4,0,3.8,2,3.8,3.7C182.4,39.1,181.1,41.2,178.6,41.2z
		 M198.8,38c-2.4,0-4.8,1-5.8,3.3l2.9,1.2c0.6-1.2,1.8-1.6,3-1.6c1.7,0,3.4,1,3.4,2.8V44c-0.6-0.3-1.9-0.8-3.4-0.8
		c-3.1,0-6.3,1.7-6.3,4.9c0,2.9,2.6,4.8,5.4,4.8c2.2,0,3.4-1,4.2-2.1h0.1v1.7h3.2v-8.4C205.4,40.2,202.5,38,198.8,38z M198.4,50
		c-1.1,0-2.6-0.5-2.6-1.9c0-1.7,1.9-2.3,3.5-2.3c1.4,0,2.1,0.3,3,0.7C202,48.6,200.3,50,198.4,50z M216.9,38.5l-3.7,9.5h-0.1
		l-3.9-9.5h-3.5l5.8,13.3l-3.3,7.4h3.4l9-20.6H216.9z M187.5,52.5h3.3V30.6h-3.3V52.5z"/>
	<g>
		
			<linearGradient id="SVGID_1_" gradientUnits="userSpaceOnUse" x1="38.5249" y1="196.757" x2="9.1558" y2="167.388" gradientTransform="matrix(1 0 0 -1 0 212)">
			<stop  offset="0" style="stop-color:#00A0FF"/>
			<stop  offset="6.574450e-03" style="stop-color:#00A1FF"/>
			<stop  offset="0.2601" style="stop-color:#00BEFF"/>
			<stop  offset="0.5122" style="stop-color:#00D2FF"/>
			<stop  offset="0.7604" style="stop-color:#00DFFF"/>
			<stop  offset="1" style="stop-color:#00E3FF"/>
		</linearGradient>
		<path class="st2" d="M18.6,13.2c-0.5,0.5-0.8,1.4-0.8,2.5v38.7c0,1.1,0.3,1.9,0.8,2.5l0.1,0.1l21.7-21.7V35v-0.3L18.8,13.1
			L18.6,13.2z"/>
		
			<linearGradient id="SVGID_2_" gradientUnits="userSpaceOnUse" x1="59.5854" y1="176.9966" x2="17.241" y2="176.9966" gradientTransform="matrix(1 0 0 -1 0 212)">
			<stop  offset="0" style="stop-color:#FFE000"/>
			<stop  offset="0.4087" style="stop-color:#FFBD00"/>
			<stop  offset="0.7754" style="stop-color:#FFA500"/>
			<stop  offset="1" style="stop-color:#FF9C00"/>
		</linearGradient>
		<path class="st3" d="M47.7,42.5l-7.2-7.2V35v-0.3l7.2-7.2l0.2,0.1l8.6,4.9c2.4,1.4,2.4,3.7,0,5.1l-8.6,4.9L47.7,42.5z"/>
		
			<linearGradient id="SVGID_3_" gradientUnits="userSpaceOnUse" x1="43.8225" y1="172.981" x2="3.9957" y2="133.1542" gradientTransform="matrix(1 0 0 -1 0 212)">
			<stop  offset="0" style="stop-color:#FF3A44"/>
			<stop  offset="1" style="stop-color:#C31162"/>
		</linearGradient>
		<path class="st4" d="M47.8,42.4L40.4,35L18.6,56.8c0.8,0.9,2.1,1,3.6,0.1L47.8,42.4"/>
		
			<linearGradient id="SVGID_4_" gradientUnits="userSpaceOnUse" x1="13.1458" y1="211.6906" x2="30.9301" y2="193.9063" gradientTransform="matrix(1 0 0 -1 0 212)">
			<stop  offset="0" style="stop-color:#32A071"/>
			<stop  offset="6.850000e-02" style="stop-color:#2DA771"/>
			<stop  offset="0.4762" style="stop-color:#15CF74"/>
			<stop  offset="0.8009" style="stop-color:#06E775"/>
			<stop  offset="1" style="stop-color:#00F076"/>
		</linearGradient>
		<path class="st5" d="M47.8,27.6L22.3,13.1c-1.5-0.9-2.8-0.7-3.6,0.1L40.4,35L47.8,27.6z"/>
		<g>
			<path class="st6" d="M47.7,42.2L22.3,56.7c-1.4,0.8-2.7,0.8-3.5,0l0,0l-0.1,0.1l0,0l0.1,0.1l0,0c0.8,0.7,2.1,0.8,3.5,0l25.6-14.5
				L47.7,42.2z"/>
			<path class="st7" d="M18.6,56.6c-0.5-0.5-0.8-1.4-0.8-2.5v0.3c0,1.1,0.3,1.9,0.8,2.5l0.1-0.1L18.6,56.6z"/>
		</g>
		<path class="st7" d="M56.4,37.3l-8.7,5l0.2,0.2l8.6-4.9c1.2-0.7,1.8-1.6,1.8-2.5l0,0C58.1,35.8,57.5,36.6,56.4,37.3z"/>
		<path class="st8" d="M22.3,13.3l34.1,19.4c1.1,0.6,1.7,1.4,1.8,2.3l0,0c0-0.9-0.6-1.8-1.8-2.5L22.3,13.1c-2.4-1.4-4.4-0.2-4.4,2.6
			v0.3C17.8,13.1,19.8,12,22.3,13.3z"/>
	</g>
	<g>
		<path class="st9" d="M72.6,22.8V12.3h3.2c1.6,0,2.9,0.5,3.9,1.5c1,1,1.5,2.2,1.5,3.8c0,1.6-0.5,2.8-1.5,3.8c-1,1-2.3,1.5-3.9,1.5
			H72.6z M74,21.5h1.9c1.2,0,2.2-0.3,2.9-1c0.7-0.7,1.1-1.7,1.1-2.9c0-1.2-0.4-2.2-1.1-2.9c-0.7-0.7-1.7-1-2.9-1H74V21.5z"/>
		<path class="st9" d="M83,22.8V12.3h1.3v10.5H83z"/>
		<path class="st9" d="M89.8,23c-0.8,0-1.5-0.2-2.2-0.7c-0.7-0.5-1.2-1.2-1.4-2.1l1.2-0.5c0.1,0.6,0.4,1.1,0.9,1.5
			c0.5,0.4,1,0.6,1.5,0.6c0.6,0,1.1-0.2,1.5-0.5c0.4-0.3,0.6-0.7,0.6-1.3c0-0.6-0.2-1-0.6-1.4c-0.4-0.3-1.1-0.6-2-0.9
			c-0.9-0.3-1.6-0.7-2.1-1.1c-0.5-0.5-0.7-1.1-0.7-1.8c0-0.8,0.3-1.4,0.9-2c0.6-0.6,1.4-0.8,2.3-0.8c0.9,0,1.6,0.2,2.2,0.7
			c0.6,0.4,0.9,0.9,1.1,1.5l-1.2,0.5c-0.1-0.3-0.3-0.6-0.7-0.9c-0.3-0.3-0.8-0.4-1.3-0.4c-0.5,0-1,0.1-1.3,0.4
			c-0.4,0.3-0.6,0.6-0.6,1.1c0,0.4,0.2,0.7,0.5,1c0.3,0.3,0.8,0.5,1.5,0.7c0.5,0.2,1,0.3,1.3,0.5c0.3,0.2,0.7,0.4,1.1,0.6
			c0.4,0.3,0.6,0.6,0.8,1c0.2,0.4,0.3,0.8,0.3,1.3c0,0.5-0.1,1-0.3,1.4c-0.2,0.4-0.5,0.7-0.8,1c-0.3,0.2-0.7,0.4-1.1,0.5
			C90.6,22.9,90.2,23,89.8,23z"/>
		<path class="st9" d="M96.5,22.8h-1.3V12.3h3.6c0.9,0,1.7,0.3,2.3,0.9c0.7,0.6,1,1.3,1,2.2c0,0.9-0.3,1.6-1,2.2
			c-0.6,0.6-1.4,0.9-2.3,0.9h-2.2V22.8z M96.5,17.2h2.3c0.6,0,1-0.2,1.4-0.6c0.3-0.4,0.5-0.8,0.5-1.3s-0.2-0.9-0.5-1.3
			c-0.3-0.4-0.8-0.6-1.4-0.6h-2.3V17.2z"/>
		<path class="st9" d="M112.3,21.4c-1,1.1-2.3,1.6-3.9,1.6c-1.5,0-2.8-0.5-3.8-1.6c-1-1.1-1.5-2.4-1.5-3.9s0.5-2.8,1.5-3.9
			c1-1.1,2.3-1.6,3.8-1.6c1.5,0,2.8,0.5,3.8,1.6c1,1.1,1.6,2.4,1.6,3.9C113.9,19,113.4,20.3,112.3,21.4z M105.6,20.5
			c0.8,0.8,1.7,1.2,2.9,1.2c1.1,0,2.1-0.4,2.9-1.2c0.8-0.8,1.2-1.8,1.2-3s-0.4-2.2-1.2-3c-0.8-0.8-1.7-1.2-2.9-1.2
			c-1.1,0-2.1,0.4-2.9,1.2c-0.8,0.8-1.2,1.8-1.2,3S104.9,19.7,105.6,20.5z"/>
		<path class="st9" d="M115.8,22.8V12.3h1.6l5.1,8.2h0.1l-0.1-2v-6.1h1.3v10.5h-1.4l-5.3-8.6h-0.1l0.1,2v6.5H115.8z"/>
		<path class="st9" d="M126.3,22.8V12.3h1.3v10.5H126.3z"/>
		<path class="st9" d="M130,22.8V12.3h3.8c0.8,0,1.5,0.3,2.1,0.8c0.6,0.5,0.9,1.2,0.9,2c0,0.5-0.1,0.9-0.4,1.3
			c-0.3,0.4-0.6,0.7-1,0.9v0.1c0.5,0.2,0.9,0.5,1.3,0.9c0.3,0.4,0.5,0.9,0.5,1.5c0,0.9-0.3,1.6-0.9,2.1c-0.6,0.6-1.4,0.9-2.2,0.9
			H130z M131.4,16.8h2.4c0.5,0,0.9-0.2,1.2-0.5c0.3-0.3,0.5-0.7,0.5-1.1s-0.1-0.8-0.4-1.1c-0.3-0.3-0.7-0.5-1.2-0.5h-2.5V16.8z
			 M131.4,21.5h2.7c0.5,0,0.9-0.2,1.3-0.5c0.3-0.4,0.5-0.8,0.5-1.2c0-0.4-0.2-0.8-0.5-1.2c-0.3-0.4-0.8-0.5-1.3-0.5h-2.7V21.5z"/>
		<path class="st9" d="M139,22.8V12.3h1.3v9.2h4.5v1.3H139z"/>
		<path class="st9" d="M152.8,13.5H148v3.3h4.3v1.3H148v3.3h4.8v1.3h-6.1V12.3h6.1V13.5z"/>
		<path class="st9" d="M164.5,13.5h-4.8v3.3h4.3v1.3h-4.3v3.3h4.8v1.3h-6.1V12.3h6.1V13.5z"/>
		<path class="st9" d="M166.6,22.8V12.3h1.6l5.1,8.2h0.1l-0.1-2v-6.1h1.4v10.5h-1.4l-5.3-8.6h-0.1l0.1,2v6.5H166.6z"/>
	</g>
</g>
</svg>
