<?xml version="1.0" encoding="utf-8"?>
<!-- Generator: Adobe Illustrator 21.0.2, SVG Export Plug-In . SVG Version: 6.00 Build 0)  -->
<svg version="1.1" id="ES_Download_on_the" xmlns="http://www.w3.org/2000/svg" xmlns:xlink="http://www.w3.org/1999/xlink" x="0px"
	 y="0px" viewBox="0 0 237 70" style="enable-background:new 0 0 237 70;" xml:space="preserve">
<style type="text/css">
	.st0{fill:#A6A6A6;}
	.st1{fill:#FFFFFF;}
</style>
<g>
	<path class="st0" d="M228.2,70H8.7c-4.6,0-8.3-3.7-8.3-8.3V8.3C0.4,3.7,4.1,0,8.7,0h219.6c4.6,0,8.4,3.7,8.4,8.3v53.4
		C236.6,66.3,232.8,70,228.2,70L228.2,70z"/>
	<path d="M234.9,61.7c0,3.7-3,6.7-6.7,6.7H8.7c-3.7,0-6.7-3-6.7-6.7V8.3c0-3.7,3-6.7,6.7-6.7h219.6c3.7,0,6.7,3,6.7,6.7L234.9,61.7
		L234.9,61.7z"/>
	<g>
		<g>
			<path class="st1" d="M53.1,34.6c-0.1-5.6,4.6-8.4,4.8-8.5c-2.6-3.9-6.7-4.4-8.2-4.4c-3.4-0.4-6.8,2.1-8.5,2.1c-1.8,0-4.5-2-7.4-2
				c-3.7,0.1-7.2,2.2-9.2,5.6c-4,6.9-1,17,2.8,22.5c1.9,2.7,4.1,5.8,7,5.6c2.8-0.1,3.9-1.8,7.3-1.8c3.4,0,4.4,1.8,7.4,1.7
				c3.1,0,5-2.7,6.8-5.5c2.2-3.1,3.1-6.2,3.1-6.3C59,43.6,53.2,41.4,53.1,34.6z"/>
			<path class="st1" d="M47.5,18c1.5-1.9,2.6-4.5,2.3-7.2c-2.2,0.1-5,1.5-6.6,3.4c-1.4,1.6-2.7,4.4-2.3,6.9
				C43.3,21.4,45.9,19.9,47.5,18z"/>
		</g>
	</g>
	<g>
		<path class="st1" d="M94.3,55.1h-4l-2.2-6.8h-7.6l-2.1,6.8h-3.9l7.5-23.3h4.6L94.3,55.1z M87.4,45.4l-2-6.1
			c-0.2-0.6-0.6-2.1-1.2-4.4h-0.1c-0.2,1-0.6,2.5-1.1,4.4l-1.9,6.1H87.4z"/>
		<path class="st1" d="M113.5,46.5c0,2.9-0.8,5.1-2.3,6.8c-1.4,1.5-3.1,2.2-5.1,2.2c-2.2,0-3.8-0.8-4.8-2.4h-0.1V62h-3.7V43.9
			c0-1.8,0-3.6-0.1-5.5h3.3l0.2,2.7h0.1c1.2-2,3.1-3,5.7-3c2,0,3.6,0.8,5,2.3C112.9,41.9,113.5,44,113.5,46.5z M109.7,46.7
			c0-1.6-0.4-3-1.1-4c-0.8-1.1-1.9-1.7-3.2-1.7c-0.9,0-1.8,0.3-2.5,0.9c-0.7,0.6-1.2,1.4-1.5,2.4c-0.1,0.5-0.2,0.8-0.2,1.1v2.8
			c0,1.2,0.4,2.3,1.1,3.1c0.7,0.8,1.7,1.3,2.9,1.3c1.4,0,2.5-0.5,3.3-1.6C109.3,49.9,109.7,48.4,109.7,46.7z"/>
		<path class="st1" d="M132.8,46.5c0,2.9-0.8,5.1-2.3,6.8c-1.4,1.5-3.1,2.2-5.1,2.2c-2.2,0-3.8-0.8-4.8-2.4h-0.1V62h-3.7V43.9
			c0-1.8,0-3.6-0.1-5.5h3.3l0.2,2.7h0.1c1.2-2,3.1-3,5.7-3c2,0,3.6,0.8,5,2.3C132.2,41.9,132.8,44,132.8,46.5z M129,46.7
			c0-1.6-0.4-3-1.1-4c-0.8-1.1-1.9-1.7-3.2-1.7c-0.9,0-1.8,0.3-2.5,0.9c-0.7,0.6-1.2,1.4-1.5,2.4c-0.1,0.5-0.2,0.8-0.2,1.1v2.8
			c0,1.2,0.4,2.3,1.1,3.1c0.7,0.8,1.7,1.3,2.9,1.3c1.4,0,2.5-0.5,3.3-1.6C128.7,49.9,129,48.4,129,46.7z"/>
		<path class="st1" d="M154.4,48.6c0,2-0.7,3.6-2.1,4.8c-1.5,1.4-3.6,2-6.3,2c-2.5,0-4.5-0.5-6-1.5l0.9-3.1c1.6,1,3.4,1.5,5.4,1.5
			c1.4,0,2.5-0.3,3.3-1c0.8-0.6,1.2-1.5,1.2-2.5c0-0.9-0.3-1.7-1-2.4c-0.6-0.6-1.7-1.2-3.2-1.8c-4.1-1.5-6.1-3.7-6.1-6.7
			c0-1.9,0.7-3.5,2.1-4.7c1.4-1.2,3.3-1.8,5.7-1.8c2.1,0,3.9,0.4,5.3,1.1l-0.9,3c-1.3-0.7-2.8-1.1-4.5-1.1c-1.3,0-2.3,0.3-3.1,1
			c-0.6,0.6-0.9,1.3-0.9,2.1c0,0.9,0.4,1.7,1.1,2.3c0.6,0.6,1.8,1.2,3.4,1.8c2,0.8,3.5,1.8,4.4,2.8C154,45.6,154.4,47,154.4,48.6z"
			/>
		<path class="st1" d="M166.8,41.1h-4.1v8.2c0,2.1,0.7,3.1,2.2,3.1c0.7,0,1.2-0.1,1.7-0.2l0.1,2.8c-0.7,0.3-1.7,0.4-2.9,0.4
			c-1.5,0-2.6-0.4-3.5-1.3c-0.8-0.9-1.2-2.4-1.2-4.5v-8.5h-2.5v-2.8h2.5v-3.1l3.7-1.1v4.2h4.1C166.8,38.3,166.8,41.1,166.8,41.1z"/>
		<path class="st1" d="M185.3,46.6c0,2.6-0.7,4.7-2.2,6.4c-1.5,1.7-3.6,2.6-6.2,2.6c-2.5,0-4.4-0.8-5.9-2.5
			c-1.5-1.6-2.2-3.7-2.2-6.2c0-2.6,0.8-4.7,2.3-6.4c1.5-1.7,3.5-2.5,6.1-2.5c2.5,0,4.4,0.8,5.9,2.5C184.6,42,185.3,44.1,185.3,46.6z
			 M181.5,46.7c0-1.5-0.3-2.9-1-4c-0.8-1.3-1.9-2-3.3-2c-1.5,0-2.6,0.7-3.4,2c-0.7,1.1-1,2.5-1,4.1c0,1.5,0.3,2.9,1,4
			c0.8,1.3,1.9,2,3.4,2c1.4,0,2.5-0.7,3.3-2C181.1,49.6,181.5,48.3,181.5,46.7z"/>
		<path class="st1" d="M197.5,41.6c-0.4-0.1-0.8-0.1-1.2-0.1c-1.3,0-2.3,0.5-3,1.5c-0.6,0.9-0.9,2-0.9,3.3v8.8h-3.7l0-11.5
			c0-1.9,0-3.7-0.1-5.3h3.2l0.1,3.2h0.1c0.4-1.1,1-2,1.9-2.7c0.8-0.6,1.7-0.9,2.7-0.9c0.3,0,0.7,0,0.9,0.1
			C197.5,38.1,197.5,41.6,197.5,41.6z"/>
		<path class="st1" d="M214.1,45.9c0,0.7,0,1.2-0.1,1.7h-11.2c0,1.7,0.6,2.9,1.6,3.8c0.9,0.8,2.2,1.2,3.7,1.2c1.7,0,3.2-0.3,4.5-0.8
			l0.6,2.6c-1.6,0.7-3.5,1-5.6,1c-2.6,0-4.6-0.8-6.1-2.3c-1.5-1.5-2.2-3.6-2.2-6.2c0-2.5,0.7-4.6,2.1-6.3c1.4-1.8,3.4-2.7,5.9-2.7
			c2.4,0,4.3,0.9,5.5,2.7C213.7,42.1,214.1,43.8,214.1,45.9z M210.6,45c0-1.1-0.2-2.1-0.7-2.9c-0.6-1-1.6-1.6-3-1.6
			c-1.2,0-2.2,0.5-3,1.5c-0.6,0.8-1,1.8-1.1,2.9L210.6,45L210.6,45z"/>
	</g>
	<g>
		<g>
			<path class="st1" d="M84.8,12.4l-0.4,1.5c-0.6-0.3-1.4-0.4-2.2-0.4c-1.2,0-2.2,0.4-2.9,1.1c-0.8,0.8-1.2,1.9-1.2,3.3
				c0,1.4,0.4,2.4,1.1,3.2c0.7,0.8,1.7,1.1,3,1.1c0.9,0,1.6-0.1,2.3-0.4l0.3,1.4c-0.7,0.3-1.6,0.5-2.9,0.5c-1.7,0-3.1-0.5-4.1-1.5
				c-1-1-1.6-2.5-1.6-4.2c0-1.8,0.6-3.3,1.7-4.4c1.1-1.1,2.5-1.6,4.3-1.6C83.3,11.9,84.2,12.1,84.8,12.4z"/>
			<path class="st1" d="M94.9,19.3c0,1.3-0.4,2.3-1.1,3.1c-0.8,0.8-1.8,1.3-3,1.3c-1.2,0-2.2-0.4-2.9-1.2c-0.7-0.8-1.1-1.8-1.1-3
				c0-1.3,0.4-2.3,1.1-3.1c0.7-0.8,1.7-1.2,3-1.2c1.2,0,2.2,0.4,2.9,1.2C94.6,17.1,94.9,18.1,94.9,19.3z M93,19.4
				c0-0.8-0.2-1.4-0.5-2c-0.4-0.7-0.9-1-1.6-1c-0.7,0-1.3,0.3-1.7,1c-0.3,0.5-0.5,1.2-0.5,2c0,0.8,0.2,1.4,0.5,2c0.4,0.7,1,1,1.7,1
				c0.7,0,1.2-0.3,1.6-1C92.9,20.8,93,20.1,93,19.4z"/>
			<path class="st1" d="M104.8,23.5h-1.8v-4.7c0-1.5-0.6-2.2-1.7-2.2c-0.5,0-1,0.2-1.3,0.6c-0.3,0.4-0.5,0.9-0.5,1.4v4.9h-1.8v-5.9
				c0-0.7,0-1.5-0.1-2.4h1.6l0.1,1.3h0.1c0.2-0.4,0.5-0.7,1-1c0.5-0.3,1.1-0.5,1.7-0.5c0.8,0,1.4,0.2,1.9,0.7c0.6,0.6,1,1.5,1,2.7
				V23.5z"/>
			<path class="st1" d="M113.1,21.1c0,0.8-0.3,1.4-0.8,1.8s-1.3,0.7-2.3,0.7c-0.9,0-1.7-0.2-2.4-0.6l0.4-1.4c0.6,0.4,1.3,0.6,2,0.6
				c0.9,0,1.4-0.3,1.4-1c0-0.3-0.1-0.6-0.3-0.8c-0.2-0.2-0.6-0.4-1.1-0.6c-1.5-0.5-2.2-1.3-2.2-2.4c0-0.7,0.3-1.3,0.8-1.8
				c0.5-0.5,1.3-0.7,2.2-0.7c0.8,0,1.5,0.2,2.1,0.5l-0.4,1.3c-0.5-0.3-1.1-0.5-1.7-0.5c-0.4,0-0.7,0.1-0.9,0.3
				c-0.2,0.2-0.3,0.4-0.3,0.7c0,0.3,0.1,0.5,0.3,0.7c0.2,0.2,0.6,0.4,1.1,0.6C112.3,19.2,113.1,20,113.1,21.1z"/>
			<path class="st1" d="M117.6,23.5h-1.8v-8.2h1.8V23.5z M119.2,11.8l-2.1,2.5h-1.3l1.5-2.5H119.2z"/>
			<path class="st1" d="M128.1,15.3c0,0.7-0.1,1.4-0.1,2.3v4.7c0,1.8-0.4,3-1.2,3.7c-0.7,0.7-1.7,1-3.1,1c-1.1,0-2.1-0.2-2.8-0.6
				l0.4-1.4c0.7,0.4,1.5,0.6,2.3,0.6c1.6,0,2.4-0.9,2.4-2.6v-0.8h0c-0.5,0.8-1.3,1.3-2.4,1.3c-1,0-1.8-0.4-2.5-1.1
				c-0.6-0.8-1-1.7-1-2.9c0-1.3,0.4-2.4,1.1-3.2c0.7-0.8,1.5-1.1,2.5-1.1c1.1,0,1.9,0.4,2.4,1.3h0l0.1-1.1L128.1,15.3L128.1,15.3z
				 M126.2,20v-1.5c0-0.6-0.2-1-0.5-1.4c-0.3-0.4-0.8-0.6-1.4-0.6c-0.6,0-1.1,0.3-1.5,0.8c-0.4,0.5-0.6,1.2-0.6,2.1
				c0,0.8,0.2,1.4,0.6,1.9c0.4,0.5,0.9,0.8,1.6,0.8c0.4,0,0.8-0.1,1.1-0.4c0.3-0.2,0.6-0.6,0.7-1C126.2,20.5,126.2,20.3,126.2,20z"
				/>
			<path class="st1" d="M138.4,23.5h-1.6l-0.1-1.3h0c-0.6,1-1.4,1.4-2.6,1.4c-0.8,0-1.5-0.3-2-0.8c-0.6-0.6-0.9-1.6-0.9-2.8v-4.9
				h1.8v4.6c0,1.6,0.5,2.4,1.6,2.4c0.8,0,1.4-0.4,1.7-1.2c0.1-0.2,0.1-0.4,0.1-0.7v-5h1.8v5.9C138.4,21.9,138.4,22.7,138.4,23.5z"/>
			<path class="st1" d="M148.4,19c0,0.3,0,0.6-0.1,0.8h-5.5c0,0.8,0.3,1.4,0.8,1.9c0.5,0.4,1.1,0.6,1.8,0.6c0.8,0,1.6-0.1,2.2-0.4
				l0.3,1.3c-0.8,0.3-1.7,0.5-2.8,0.5c-1.3,0-2.3-0.4-3-1.1c-0.7-0.8-1.1-1.8-1.1-3c0-1.2,0.3-2.3,1-3.1c0.7-0.9,1.7-1.3,2.9-1.3
				c1.2,0,2.1,0.4,2.7,1.3C148.2,17.1,148.4,18,148.4,19z M146.7,18.5c0-0.5-0.1-1-0.4-1.4c-0.3-0.5-0.8-0.8-1.5-0.8
				c-0.6,0-1.1,0.2-1.5,0.7c-0.3,0.4-0.5,0.9-0.5,1.4H146.7z"/>
			<path class="st1" d="M152.9,23.5h-1.8v-12h1.8V23.5z"/>
			<path class="st1" d="M163.7,19.3c0,1.3-0.4,2.3-1.1,3.1c-0.8,0.8-1.8,1.3-3,1.3c-1.2,0-2.2-0.4-2.9-1.2c-0.7-0.8-1.1-1.8-1.1-3
				c0-1.3,0.4-2.3,1.1-3.1s1.7-1.2,3-1.2c1.2,0,2.2,0.4,2.9,1.2C163.4,17.1,163.7,18.1,163.7,19.3z M161.8,19.4c0-0.8-0.2-1.4-0.5-2
				c-0.4-0.7-0.9-1-1.6-1c-0.7,0-1.3,0.3-1.7,1c-0.3,0.5-0.5,1.2-0.5,2c0,0.8,0.2,1.4,0.5,2c0.4,0.7,1,1,1.7,1c0.7,0,1.2-0.3,1.6-1
				C161.6,20.8,161.8,20.1,161.8,19.4z"/>
			<path class="st1" d="M178.1,19c0,0.3,0,0.6-0.1,0.8h-5.5c0,0.8,0.3,1.4,0.8,1.9c0.5,0.4,1.1,0.6,1.8,0.6c0.8,0,1.6-0.1,2.2-0.4
				l0.3,1.3c-0.8,0.3-1.7,0.5-2.8,0.5c-1.3,0-2.3-0.4-3-1.1c-0.7-0.8-1.1-1.8-1.1-3c0-1.2,0.3-2.3,1-3.1c0.7-0.9,1.7-1.3,2.9-1.3
				c1.2,0,2.1,0.4,2.7,1.3C177.9,17.1,178.1,18,178.1,19z M176.4,18.5c0-0.5-0.1-1-0.4-1.4c-0.3-0.5-0.8-0.8-1.5-0.8
				c-0.6,0-1.1,0.2-1.5,0.7c-0.3,0.4-0.5,0.9-0.5,1.4C172.6,18.5,176.4,18.5,176.4,18.5z"/>
			<path class="st1" d="M188,23.5h-1.8v-4.7c0-1.5-0.6-2.2-1.7-2.2c-0.5,0-1,0.2-1.3,0.6c-0.3,0.4-0.5,0.9-0.5,1.4v4.9h-1.8v-5.9
				c0-0.7,0-1.5-0.1-2.4h1.6l0.1,1.3h0.1c0.2-0.4,0.5-0.7,1-1c0.5-0.3,1.1-0.5,1.7-0.5c0.8,0,1.4,0.2,1.9,0.7c0.6,0.6,1,1.5,1,2.7
				V23.5z"/>
			<path class="st1" d="M202.9,19c0,0.3,0,0.6-0.1,0.8h-5.5c0,0.8,0.3,1.4,0.8,1.9c0.5,0.4,1.1,0.6,1.8,0.6c0.8,0,1.6-0.1,2.2-0.4
				l0.3,1.3c-0.8,0.3-1.7,0.5-2.8,0.5c-1.3,0-2.3-0.4-3-1.1c-0.7-0.8-1.1-1.8-1.1-3c0-1.2,0.3-2.3,1-3.1c0.7-0.9,1.7-1.3,2.9-1.3
				c1.2,0,2.1,0.4,2.7,1.3C202.7,17.1,202.9,18,202.9,19z M201.2,18.5c0-0.5-0.1-1-0.4-1.4c-0.3-0.5-0.8-0.8-1.5-0.8
				c-0.6,0-1.1,0.2-1.5,0.7c-0.3,0.4-0.5,0.9-0.5,1.4C197.4,18.5,201.2,18.5,201.2,18.5z"/>
			<path class="st1" d="M207.4,23.5h-1.8v-12h1.8V23.5z"/>
		</g>
	</g>
</g>
</svg>
