<?xml version="1.0" encoding="UTF-8"?>
<svg width="27px" height="27px" viewBox="0 0 27 27" version="1.1" xmlns="http://www.w3.org/2000/svg" xmlns:xlink="http://www.w3.org/1999/xlink">
    <!-- Generator: Sketch 51.3 (57544) - http://www.bohemiancoding.com/sketch -->
    <title>Language-2</title>
    <desc>Created with Sketch.</desc>
    <defs></defs>
    <g id="UI_MI_NATURA-WEB" stroke="none" stroke-width="1" fill="none" fill-rule="evenodd">
        <g id="Language-2" fill="#FFFFFF">
            <path d="M13.632,0.24 C6.3418413,0.24 0.432,6.1498413 0.432,13.44 C0.432,20.7301587 6.3418413,26.64 13.632,26.64 C20.9221587,26.64 26.832,20.7301587 26.832,13.44 C26.832,6.1498413 20.9221587,0.24 13.632,0.24 L13.632,0.24 Z M25.002,12.84 L20.832,12.84 C20.652,8.898 18.978,4.866 16.176,2.334 C21.1321255,3.47519669 24.7328541,7.76131213 25.002,12.84 L25.002,12.84 Z M12.432,3.306 L12.432,12.84 L8.232,12.84 C8.406,9.078 9.888,5.406 12.432,3.306 Z M12.432,14.64 L12.432,23.478 C10.062,21.39 8.574,18 8.232,14.64 L12.432,14.64 Z M14.232,23.754 L14.232,14.64 L19.032,14.64 C18.636,18.054 16.866,21.654 14.232,23.754 Z M14.232,12.84 L14.232,3.048 C17.064,5.142 18.834,9.048 19.032,12.84 L14.232,12.84 Z M10.722,2.43 C8.094,4.926 6.594,8.85 6.432,12.84 L2.262,12.84 C2.52601294,7.90250664 5.94283507,3.69811912 10.722,2.43 L10.722,2.43 Z M2.322,14.64 L6.456,14.64 C6.792,18.312 8.37,22.05 10.914,24.492 C6.25515972,23.3479701 2.81100727,19.4097401 2.298,14.64 L2.322,14.64 Z M16.062,24.582 C18.8011661,21.9498977 20.5044593,18.4219516 20.862,14.64 L25.062,14.64 C24.5099686,19.5520107 20.8737344,23.5581543 16.038,24.582 L16.062,24.582 Z" id="Shape"></path>
        </g>
    </g>
</svg>