<?xml version="1.0" encoding="UTF-8"?>
<svg width="27px" height="25px" viewBox="0 0 27 25" version="1.1" xmlns="http://www.w3.org/2000/svg" xmlns:xlink="http://www.w3.org/1999/xlink">
    <!-- Generator: Sketch 51.3 (57544) - http://www.bohemiancoding.com/sketch -->
    <title>User</title>
    <desc>Created with Sketch.</desc>
    <defs></defs>
    <g id="UI_MI_NATURA-WEB" stroke="none" stroke-width="1" fill="none" fill-rule="evenodd">
        <g id="User" fill="#FFFFFF">
            <path d="M13.32,15.6857143 C16.8621429,15.6857143 19.7485714,12.2271429 19.7485714,7.97142857 C19.7485714,3.71571429 16.8621429,0.257142857 13.32,0.257142857 C9.77785714,0.257142857 6.89142857,3.71571429 6.89142857,7.97142857 C6.89142857,12.2271429 9.78428571,15.6857143 13.32,15.6857143 Z M13.32,2.18571429 C15.8078571,2.18571429 17.82,4.75714286 17.82,7.97142857 C17.82,11.1857143 15.8078571,13.7571429 13.32,13.7571429 C10.8321429,13.7571429 8.82,11.1857143 8.82,7.97142857 C8.82,4.75714286 10.8321429,2.18571429 13.32,2.18571429 Z" id="Shape"></path>
            <path d="M19.2021429,15.0428571 C18.6695826,14.9896012 18.1946847,15.378154 18.1414287,15.9107143 C18.0881726,16.4432746 18.4767255,16.9181725 19.0092857,16.9714286 C21.9998711,17.3228411 24.3168018,19.753188 24.525,22.7571429 L2.115,22.7571429 C2.3428787,19.7619069 4.64977772,17.3420827 7.63071429,16.9714286 C8.16327458,16.9181725 8.55182746,16.4432746 8.49857143,15.9107143 C8.4453154,15.378154 7.97041744,14.9896011 7.43785714,15.0428571 C7.36714286,15.0428571 0.141428571,15.8657143 0.141428571,23.715 C0.141428571,24.2475603 0.573153991,24.6792857 1.10571429,24.6792857 L25.5342857,24.6792857 C26.066846,24.6792857 26.4985714,24.2475603 26.4985714,23.715 C26.4985714,15.8657143 19.2728571,15.0428571 19.2021429,15.0428571 Z" id="Shape"></path>
        </g>
    </g>
</svg>