<?xml version="1.0" encoding="UTF-8"?>
<svg width="24px" height="24px" viewBox="0 0 24 24" version="1.1" xmlns="http://www.w3.org/2000/svg" xmlns:xlink="http://www.w3.org/1999/xlink">
    <!-- Generator: Sketch 51.3 (57544) - http://www.bohemiancoding.com/sketch -->
    <title>Navigation</title>
    <desc>Created with Sketch.</desc>
    <defs></defs>
    <g id="UI_MI_NATURA-WEB" stroke="none" stroke-width="1" fill="none" fill-rule="evenodd">
        <g id="Navigation" fill="#FFFFFF">
            <path d="M23.335814,0.697674419 C22.8441036,0.218314929 22.1095532,0.0877773587 21.4827907,0.368372093 L1.38976744,9.3544186 C0.737769158,9.64691827 0.343255018,10.3209652 0.407497839,11.0326749 C0.47174066,11.7443846 0.980580754,12.3368899 1.6744186,12.507907 L9.67255814,14.4781395 L12.184186,22.4930233 C12.3948824,23.1654061 13.0039754,23.6339391 13.707907,23.6651163 L13.7860465,23.6651163 C14.4613346,23.6658682 15.0709819,23.260904 15.332093,22.6381395 L23.704186,2.54511628 C23.9722982,1.91207294 23.8262208,1.17947227 23.335814,0.697674419 Z M13.7804651,21.9906977 L10.9897674,13.0604651 L2.05953488,10.8669767 L22.1525581,1.88093023 L13.7804651,21.9906977 Z" id="Shape"></path>
        </g>
    </g>
</svg>