<?xml version="1.0" standalone="no"?>
<!DOCTYPE svg PUBLIC "-//W3C//DTD SVG 1.1//EN" "http://www.w3.org/Graphics/SVG/1.1/DTD/svg11.dtd" >
<svg xmlns="http://www.w3.org/2000/svg" xmlns:xlink="http://www.w3.org/1999/xlink" version="1.1">
<metadata>
Created by FontForge 20160407 at Thu Sep  1 23:40:26 2016
 By Jimmy Warting
Copyright (c) 2014 by Patrick Giasson. All rights reserved.
</metadata>
<defs>
<font id="NaturaSans-Light" horiz-adv-x="206" >
  <font-face 
    font-family="NaturaSans Light"
    font-weight="300"
    font-stretch="normal"
    units-per-em="1000"
    panose-1="2 0 5 3 7 0 0 2 0 4"
    ascent="770"
    descent="-230"
    x-height="489"
    cap-height="710"
    bbox="-95 -228 1136 912"
    underline-thickness="50"
    underline-position="-100"
    stemh="28"
    stemv="46"
    unicode-range="U+0020-FB02"
  />
<missing-glyph horiz-adv-x="664" 
d="M80 0v700h504v-700h-504zM332 376l202 298h-405zM314 351l-206 303v-606zM556 47v607l-207 -304zM129 27h405l-202 298z" />
    <glyph glyph-name="fi" unicode="fi" horiz-adv-x="444" 
d="M92 20v441h-59c-9 0 -15 5 -15 14c0 8 6 14 15 14h59c0 227 131 267 190 267c29 0 58 -3 80 -13c9 -4 15 -9 15 -19c0 -12 -8 -18 -18 -18c-7 0 -14 2 -27 8c-15 7 -33 11 -52 11c-111 0 -142 -85 -142 -185v-51h106c9 0 15 -5 15 -14s-6 -14 -15 -14h-106v-441
c0 -13 -11 -20 -23 -20c-13 0 -23 7 -23 20zM318 20v458c0 13 10 20 23 20c12 0 23 -7 23 -20v-458c0 -13 -10 -20 -23 -20c-12 0 -23 7 -23 20z" />
    <glyph glyph-name="fl" unicode="fl" horiz-adv-x="462" 
d="M336 20v692c-2 0 -3 1 -4 2c-15 7 -33 11 -52 11c-111 0 -142 -85 -142 -185v-51h106c9 0 15 -5 15 -14s-6 -14 -15 -14h-106v-441c0 -13 -11 -20 -23 -20c-13 0 -23 7 -23 20v441h-59c-9 0 -15 5 -15 14c0 8 6 14 15 14h59c0 227 131 267 190 267c23 0 45 -2 65 -8
c4 2 9 4 14 4c12 0 21 -7 21 -20v-712c0 -13 -10 -20 -23 -20c-12 0 -23 7 -23 20z" />
    <glyph glyph-name=".notdef" horiz-adv-x="664" 
d="M80 0v700h504v-700h-504zM332 376l202 298h-405zM314 351l-206 303v-606zM556 47v607l-207 -304zM129 27h405l-202 298z" />
    <glyph glyph-name="onehalf" unicode="&#xbd;" horiz-adv-x="821" 
d="M76 -34l511 752c3 5 9 10 17 10c10 0 19 -6 19 -15c0 -4 -1 -8 -5 -14l-511 -752c-3 -5 -9 -10 -17 -10c-10 0 -19 6 -19 15c0 4 1 8 5 14zM727 344c0 52 -29 88 -101 88c-46 0 -84 -22 -110 -58c-6 -8 -12 -11 -18 -11c-8 0 -14 5 -14 14c0 8 4 14 10 21
c26 31 80 56 132 56c89 0 143 -42 143 -108c0 -57 -44 -104 -104 -157l-41 -36c-55 -47 -92 -79 -125 -115v-2h257c9 0 15 -6 15 -15c0 -10 -6 -17 -15 -17h-276c-15 0 -17 13 -17 19c0 8 5 16 11 23c36 44 86 90 133 130c75 65 120 106 120 168zM143 288v401
c-17 -5 -50 -10 -78 -10c-6 0 -15 2 -15 10c0 7 6 11 12 11c28 2 52 5 80 13c7 2 12 3 17 3c12 0 24 -7 24 -21v-407c0 -10 -9 -17 -20 -17s-20 7 -20 17z" />
    <glyph glyph-name="onequarter" unicode="&#xbc;" horiz-adv-x="816" 
d="M657 108h-219c-14 0 -18 10 -18 16c0 5 1 12 6 20c17 27 41 58 63 87c44 59 95 126 151 198c9 11 17 17 30 17c20 0 27 -9 27 -22v-286h54c9 0 14 -6 14 -14c0 -9 -5 -16 -14 -16h-54v-90c0 -10 -7 -18 -20 -18c-12 0 -20 8 -20 18v90zM89 -34l511 752c3 5 9 10 17 10
c10 0 19 -6 19 -15c0 -4 -1 -8 -5 -14l-511 -752c-3 -5 -9 -10 -17 -10c-10 0 -19 6 -19 15c0 4 1 8 5 14zM657 138v130c0 7 1 119 3 148h-2c-14 -21 -41 -59 -57 -81l-93 -124l-54 -70v-3h203zM143 288v401c-17 -5 -50 -10 -78 -10c-6 0 -15 2 -15 10c0 7 6 11 12 11
c28 2 52 5 80 13c7 2 12 3 17 3c12 0 24 -7 24 -21v-407c0 -10 -9 -17 -20 -17s-20 7 -20 17z" />
    <glyph glyph-name="onesuperior" unicode="&#xb9;" horiz-adv-x="258" 
d="M128 288v401c-17 -5 -50 -10 -78 -10c-6 0 -15 2 -15 10c0 7 6 11 12 11c28 2 52 5 80 13c7 2 12 3 17 3c12 0 24 -7 24 -21v-407c0 -10 -9 -17 -20 -17s-20 7 -20 17z" />
    <glyph glyph-name="threequarters" unicode="&#xbe;" horiz-adv-x="893" 
d="M735 108h-219c-14 0 -18 10 -18 16c0 5 1 12 6 20c17 27 41 58 63 87c44 59 95 126 151 198c9 11 17 17 30 17c20 0 27 -9 27 -22v-286h54c9 0 14 -6 14 -14c0 -9 -5 -16 -14 -16h-54v-90c0 -10 -7 -18 -20 -18c-12 0 -20 8 -20 18v90zM182 -34l511 752c3 5 9 10 17 10
c10 0 19 -6 19 -15c0 -4 -1 -8 -5 -14l-511 -752c-3 -5 -9 -10 -17 -10c-10 0 -19 6 -19 15c0 4 1 8 5 14zM198 291c78 0 127 41 127 103c0 37 -14 101 -125 101h-25c-7 0 -12 5 -12 13c0 7 5 12 12 12h25c100 0 113 56 113 91c0 53 -33 88 -102 88c-43 0 -81 -14 -106 -51
c-6 -8 -10 -10 -16 -10c-9 0 -15 6 -15 14c0 5 2 10 6 15c27 37 78 56 130 56c90 0 145 -48 145 -114c0 -39 -29 -84 -87 -95v-3c50 -11 99 -44 99 -112c0 -83 -72 -133 -170 -133c-63 0 -116 23 -141 53c-4 5 -6 9 -6 15c0 9 7 16 17 16c6 0 12 -3 19 -12
c25 -31 62 -47 112 -47zM735 138v130c0 7 1 119 3 148h-2c-14 -21 -41 -59 -57 -81l-93 -124l-54 -70v-3h203z" />
    <glyph glyph-name="threesuperior" unicode="&#xb3;" horiz-adv-x="417" 
d="M188 291c78 0 127 41 127 103c0 37 -14 101 -125 101h-25c-7 0 -12 5 -12 13c0 7 5 12 12 12h25c100 0 113 56 113 91c0 53 -33 88 -102 88c-43 0 -81 -14 -106 -51c-6 -8 -10 -10 -16 -10c-9 0 -15 6 -15 14c0 5 2 10 6 15c27 37 78 56 130 56c90 0 145 -48 145 -114
c0 -39 -29 -84 -87 -95v-3c50 -11 99 -44 99 -112c0 -83 -72 -133 -170 -133c-63 0 -116 23 -141 53c-4 5 -6 9 -6 15c0 9 7 16 17 16c6 0 12 -3 19 -12c25 -31 62 -47 112 -47z" />
    <glyph glyph-name="twosuperior" unicode="&#xb2;" horiz-adv-x="388" 
d="M294 613c0 52 -29 88 -101 88c-46 0 -84 -22 -110 -58c-6 -8 -12 -11 -18 -11c-8 0 -14 5 -14 14c0 8 4 14 10 21c26 31 80 56 132 56c89 0 143 -42 143 -108c0 -55 -41 -100 -97 -151c-15 -14 -31 -28 -48 -42c-55 -47 -92 -79 -125 -115v-2h257c9 0 15 -6 15 -15
c0 -10 -6 -17 -15 -17h-276c-15 0 -17 13 -17 19c0 8 5 16 11 23c36 44 86 90 133 130c75 65 120 106 120 168z" />
    <glyph glyph-name="brokenbar" unicode="&#xa6;" horiz-adv-x="238" 
d="M138 752v-348c0 -11 -8 -18 -19 -18c-12 0 -19 7 -19 18v348c0 11 8 18 19 18c12 0 19 -7 19 -18zM138 178v-348c0 -11 -8 -18 -19 -18c-12 0 -19 7 -19 18v348c0 11 8 18 19 18c12 0 19 -7 19 -18z" />
    <glyph glyph-name="minus" unicode="&#x2212;" horiz-adv-x="535" 
d="M65 341h405c9 0 15 -6 15 -15c0 -8 -6 -15 -15 -15h-405c-9 0 -15 6 -15 15c0 8 6 15 15 15z" />
    <glyph glyph-name="multiply" unicode="&#xd7;" horiz-adv-x="487" 
d="M57 160l164 164l-165 166c-4 4 -6 8 -6 12c0 6 7 13 16 13c6 0 10 -2 14 -6l163 -164l163 164c4 4 10 6 15 6c7 0 15 -4 15 -11c0 -6 -3 -10 -7 -14l-165 -165l167 -165c4 -4 6 -8 6 -12c0 -6 -6 -13 -15 -13c-6 0 -11 2 -15 6l-165 163l-162 -163c-4 -4 -9 -6 -14 -6
c-7 0 -16 4 -16 11c0 6 3 10 7 14z" />
    <glyph glyph-name="space" unicode=" " horiz-adv-x="220" 
 />
    <glyph glyph-name="exclam" unicode="!" horiz-adv-x="246" 
d="M123 710c15 0 24 -9 24 -24c0 -16 -1 -59 -2 -85l-8 -390c0 -8 -6 -14 -14 -14c-9 0 -14 6 -14 14l-8 388c-1 26 -2 72 -2 87s10 24 24 24zM123 -6c-22 0 -33 15 -33 30c0 14 11 29 33 29c23 0 33 -15 33 -29c0 -15 -10 -30 -33 -30z" />
    <glyph glyph-name="quotedbl" unicode="&#x22;" horiz-adv-x="271" 
d="M74 710c14 0 23 -8 23 -23c0 -19 -2 -44 -3 -56l-7 -108c0 -8 -5 -14 -13 -14c-9 0 -13 6 -13 14l-7 108c-1 12 -3 37 -3 56c0 15 10 23 23 23zM197 710c14 0 23 -8 23 -23c0 -19 -2 -44 -3 -56l-7 -108c0 -8 -5 -14 -13 -14c-9 0 -13 6 -13 14l-7 108c-1 12 -3 37 -3 56
c0 15 10 23 23 23z" />
    <glyph glyph-name="numbersign" unicode="#" horiz-adv-x="663" 
d="M616 460h-123l-33 -210h117c9 0 15 -5 15 -14c0 -8 -6 -14 -15 -14h-122l-31 -200c-2 -13 -10 -22 -23 -22c-12 0 -21 6 -21 17c0 2 1 10 2 15l30 190h-203l-31 -200c-2 -13 -10 -22 -23 -22c-12 0 -21 6 -21 17c0 2 1 10 2 15l30 190h-119c-9 0 -15 5 -15 14s6 14 15 14
h123l33 210h-117c-9 0 -15 5 -15 14c0 8 6 14 15 14h122l31 200c2 13 10 22 23 22c12 0 21 -6 21 -17c0 -2 -1 -10 -2 -15l-30 -190h203l31 200c2 13 10 22 23 22c12 0 21 -6 21 -17c0 -2 -1 -10 -2 -15l-30 -190h119c9 0 15 -5 15 -14s-6 -14 -15 -14zM247 460l-33 -210
h202l33 210h-202z" />
    <glyph glyph-name="dollar" unicode="$" horiz-adv-x="559" 
d="M280 36c94 0 192 49 192 158c0 70 -44 118 -194 146c-131 25 -217 66 -217 180c0 111 89 176 211 181v93c0 10 7 16 17 16s17 -6 17 -16v-93c74 -3 149 -28 183 -72c5 -7 6 -13 6 -18c0 -12 -8 -19 -19 -19c-7 0 -14 2 -22 14c-37 55 -99 69 -168 69
c-40 0 -84 -6 -116 -25c-43 -26 -71 -62 -71 -119c0 -103 90 -127 201 -149c146 -30 213 -85 213 -185s-84 -181 -217 -188v-90c0 -11 -7 -16 -17 -16s-17 5 -17 16v90c-98 4 -170 38 -207 84c-6 7 -9 13 -9 20c0 10 8 19 20 19c7 0 15 -3 25 -17c37 -51 102 -79 189 -79z
" />
    <glyph glyph-name="percent" unicode="%" horiz-adv-x="787" 
d="M126 19l495 679c4 5 10 12 19 12c11 0 20 -8 20 -16c0 -5 -1 -8 -6 -15l-495 -679c-4 -6 -10 -12 -19 -12c-11 0 -20 8 -20 16c0 5 1 8 6 15zM35 535c0 109 69 181 161 181c94 0 161 -61 161 -173c0 -109 -67 -180 -161 -180c-95 0 -161 59 -161 172zM79 535
c0 -100 49 -149 117 -149c72 0 117 62 117 157c0 102 -49 150 -117 150c-72 0 -117 -63 -117 -158zM752 175c0 -109 -69 -181 -161 -181c-96 0 -161 61 -161 173c0 109 67 180 161 180c93 0 161 -59 161 -172zM708 175c0 100 -49 149 -117 149c-72 0 -117 -62 -117 -157
c0 -102 49 -150 117 -150c72 0 117 63 117 158z" />
    <glyph glyph-name="ampersand" unicode="&#x26;" horiz-adv-x="678" 
d="M66 182c0 87 59 146 153 190c-79 88 -102 132 -102 192c0 90 88 156 200 156c82 0 188 -39 188 -136c0 -57 -17 -114 -127 -171c-26 -13 -58 -27 -97 -45l235 -251c30 43 41 95 41 140c0 5 -1 15 -2 21c-1 8 -1 9 -1 11c0 11 7 20 20 20c20 0 25 -20 25 -45
c0 -48 -16 -120 -58 -174l56 -60c5 -6 8 -10 8 -16s-4 -14 -17 -14c-10 0 -17 5 -27 16l-47 48c-57 -53 -145 -76 -215 -76c-155 0 -233 79 -233 194zM300 13c76 0 146 29 191 76l-253 263c-74 -34 -121 -85 -121 -163c0 -123 88 -176 183 -176zM166 568
c0 -54 21 -100 96 -181c45 21 71 35 100 51c89 49 98 100 98 146c0 63 -50 111 -143 111c-83 0 -151 -46 -151 -127z" />
    <glyph glyph-name="quotesingle" unicode="'" horiz-adv-x="148" 
d="M74 710c14 0 23 -8 23 -23c0 -19 -2 -44 -3 -56l-7 -108c0 -8 -5 -14 -13 -14c-9 0 -13 6 -13 14l-7 108c-1 12 -3 37 -3 56c0 15 10 23 23 23z" />
    <glyph glyph-name="parenleft" unicode="(" horiz-adv-x="253" 
d="M60 306c0 180 53 338 128 450c5 7 11 14 21 14c6 0 14 -4 14 -12c0 -3 -1 -7 -4 -12c-75 -123 -109 -263 -109 -440s34 -317 109 -440c3 -5 4 -9 4 -12c0 -8 -8 -12 -14 -12c-10 0 -16 7 -21 14c-75 101 -128 246 -128 450z" />
    <glyph glyph-name="parenright" unicode=")" horiz-adv-x="253" 
d="M193 306c0 -180 -53 -338 -128 -450c-5 -7 -11 -14 -21 -14c-6 0 -14 4 -14 12c0 3 1 7 4 12c75 123 109 263 109 440s-34 317 -109 440c-3 5 -4 9 -4 12c0 8 8 12 14 12c10 0 16 -7 21 -14c75 -101 128 -246 128 -450z" />
    <glyph glyph-name="asterisk" unicode="*" horiz-adv-x="326" 
d="M163 720c11 0 18 -7 18 -17c0 -20 -9 -79 -9 -113l3 -2c35 11 93 44 107 44s20 -9 20 -18s-6 -14 -14 -17c-18 -7 -75 -16 -108 -26l-1 -3c20 -27 61 -68 71 -84c4 -6 5 -10 5 -14c0 -10 -9 -15 -17 -15c-6 0 -10 2 -14 7c-12 15 -38 68 -59 96h-4
c-21 -28 -47 -81 -59 -96c-4 -5 -8 -7 -14 -7c-8 0 -17 5 -17 15c0 4 1 8 5 14c10 16 51 57 71 84l-1 3c-33 10 -90 19 -108 26c-8 3 -14 8 -14 17s6 18 20 18s72 -33 107 -44l3 2c0 34 -9 93 -9 113c0 10 7 17 18 17z" />
    <glyph glyph-name="plus" unicode="+" horiz-adv-x="565" 
d="M267 118v193h-202c-9 0 -15 6 -15 15c0 8 6 15 15 15h202v192c0 9 6 15 15 15c8 0 15 -6 15 -15v-192h203c9 0 15 -6 15 -15c0 -8 -6 -15 -15 -15h-203v-193c0 -9 -6 -15 -15 -15c-8 0 -15 6 -15 15z" />
    <glyph glyph-name="comma" unicode="," horiz-adv-x="158" 
d="M100 31c0 -43 -11 -107 -25 -156c-2 -8 -6 -12 -13 -12s-11 4 -11 13c0 5 2 20 3 28c3 22 5 73 5 98c0 11 -1 21 -1 29c0 15 9 22 21 22c14 0 21 -9 21 -22z" />
    <glyph glyph-name="hyphen" unicode="-" horiz-adv-x="454" 
d="M65 301h324c9 0 15 -6 15 -15c0 -8 -6 -15 -15 -15h-324c-9 0 -15 6 -15 15c0 8 6 15 15 15z" />
    <glyph glyph-name="period" unicode="." horiz-adv-x="158" 
d="M79 -6c-22 0 -33 15 -33 30c0 14 11 29 33 29c23 0 33 -15 33 -29c0 -15 -10 -30 -33 -30z" />
    <glyph glyph-name="slash" unicode="/" horiz-adv-x="298" 
d="M305 726l-305 -824c-3 -8 -10 -12 -18 -12c-9 0 -17 5 -17 14c0 2 1 7 3 12l305 824c3 8 10 12 18 12c9 0 17 -5 17 -14c0 -2 -1 -7 -3 -12z" />
    <glyph glyph-name="zero" unicode="0" horiz-adv-x="686" 
d="M54 349c0 213 118 371 289 371c174 0 289 -134 289 -361c0 -212 -119 -371 -289 -371c-175 0 -289 135 -289 361zM108 349c0 -217 88 -333 235 -333c143 0 235 134 235 343c0 222 -89 333 -235 333c-144 0 -235 -129 -235 -343z" />
    <glyph glyph-name="one" unicode="1" horiz-adv-x="286" 
d="M138 22v655c-16 -7 -68 -22 -108 -22c-8 0 -18 2 -18 14c0 8 7 14 14 14c44 2 70 9 102 18c18 5 24 7 32 7c16 0 24 -7 24 -25v-661c0 -13 -8 -22 -23 -22c-14 0 -23 9 -23 22z" />
    <glyph glyph-name="two" unicode="2" horiz-adv-x="563" 
d="M76 44h422c11 0 19 -7 19 -19s-8 -21 -19 -21h-443c-18 0 -19 18 -19 27c0 11 6 22 14 32c40 52 137 144 215 211c125 107 198 168 198 272c0 91 -54 147 -172 147c-76 0 -143 -28 -185 -88c-8 -12 -15 -16 -23 -16c-11 0 -18 7 -18 17c0 7 3 14 8 21
c40 55 123 93 217 93c141 0 225 -67 225 -173c0 -114 -93 -189 -227 -299c-79 -65 -183 -164 -212 -201v-3z" />
    <glyph glyph-name="three" unicode="3" horiz-adv-x="591" 
d="M272 15c130 0 213 75 213 179c0 61 -26 162 -210 167l-39 1c-9 0 -15 6 -15 15c0 8 6 15 15 15h45c166 0 184 94 184 152c0 88 -58 149 -173 149c-72 0 -133 -21 -175 -81c-8 -12 -15 -16 -23 -16c-11 0 -18 7 -18 17c0 7 3 14 8 21c42 53 120 86 207 86
c141 0 226 -81 226 -180c0 -66 -48 -143 -155 -158v-3c89 -10 175 -70 175 -178c0 -126 -112 -213 -266 -213c-105 0 -185 34 -224 86c-6 8 -9 14 -9 22c0 10 9 18 21 18c7 0 16 -3 27 -18c41 -55 102 -81 186 -81z" />
    <glyph glyph-name="four" unicode="4" horiz-adv-x="596" 
d="M461 178v-156c0 -13 -8 -22 -23 -22c-14 0 -23 9 -23 22v156h-363c-18 0 -24 10 -24 19c0 8 2 14 8 24c29 45 67 96 102 143c73 98 156 204 248 320c16 20 25 26 43 26c27 0 32 -15 32 -33v-464h94c10 0 17 -6 17 -17c0 -10 -7 -18 -17 -18h-94zM415 213v279
c0 11 2 161 4 188h-2c-21 -33 -75 -106 -103 -142l-155 -198c-33 -43 -63 -84 -91 -124v-3h347z" />
    <glyph glyph-name="five" unicode="5" horiz-adv-x="577" 
d="M492 666h-344l-34 -293h1c52 46 122 59 180 59c154 0 242 -86 242 -219c0 -129 -112 -225 -266 -225c-105 0 -185 34 -224 86c-6 8 -9 14 -9 22c0 10 9 18 21 18c7 0 16 -3 27 -18c41 -55 102 -81 186 -81c130 0 213 80 213 198c0 113 -66 190 -192 190
c-63 0 -113 -13 -171 -56c-12 -9 -15 -9 -23 -9c-10 0 -19 5 -17 25l33 318c1 13 8 25 29 25h348c11 0 19 -7 19 -19s-8 -21 -19 -21z" />
    <glyph glyph-name="six" unicode="6" horiz-adv-x="620" 
d="M349 720c77 0 153 -26 192 -77c5 -7 7 -13 7 -19c0 -12 -8 -20 -20 -20c-8 0 -16 3 -24 15c-40 60 -92 74 -157 74c-167 0 -244 -155 -244 -344c0 -15 0 -46 1 -75h3c33 120 127 173 230 173c148 0 239 -96 239 -223c0 -142 -116 -236 -255 -236c-118 0 -194 63 -233 157
c-25 60 -34 133 -34 215c0 196 105 360 295 360zM126 208c0 -43 12 -80 33 -111c35 -51 92 -83 159 -83c126 0 206 91 206 204c0 122 -66 200 -192 200c-83 0 -139 -39 -174 -93c-21 -33 -32 -74 -32 -117z" />
    <glyph glyph-name="seven" unicode="7" horiz-adv-x="508" 
d="M454 666h-423c-11 0 -19 7 -19 19s8 21 19 21h443c18 0 22 -10 22 -19c0 -8 -3 -13 -9 -23c-127 -195 -232 -404 -298 -647c-3 -12 -10 -20 -25 -20c-17 0 -23 9 -23 21c0 9 3 21 6 30c74 245 189 432 307 615v3z" />
    <glyph glyph-name="eight" unicode="8" horiz-adv-x="623" 
d="M228 373v4c-82 17 -143 75 -143 157c0 105 96 186 230 186c139 0 230 -70 230 -181c0 -78 -58 -141 -143 -160v-4c117 -23 177 -95 177 -183c0 -129 -115 -204 -269 -204c-163 0 -266 72 -266 200c0 80 68 169 184 185zM310 14c116 0 217 54 217 178
c0 104 -82 168 -214 168s-217 -67 -217 -171c0 -125 96 -175 214 -175zM135 535c0 -100 82 -149 178 -149c97 0 182 47 182 153c0 118 -93 155 -180 155c-88 0 -180 -47 -180 -159z" />
    <glyph glyph-name="nine" unicode="9" horiz-adv-x="618" 
d="M271 15c167 0 245 155 245 344c0 15 0 46 -1 75h-3c-33 -120 -125 -173 -229 -173c-148 0 -237 96 -237 223c0 140 111 236 250 236c122 0 198 -64 237 -158c25 -60 31 -132 31 -214c0 -196 -105 -360 -295 -360c-77 0 -153 29 -192 80c-5 7 -7 13 -7 19c0 12 8 20 20 20
c8 0 16 -3 24 -15c40 -60 92 -77 157 -77zM493 500c0 43 -12 83 -33 114c-35 51 -94 80 -161 80c-126 0 -202 -91 -202 -204c0 -122 65 -200 191 -200c128 0 205 94 205 210z" />
    <glyph glyph-name="colon" unicode=":" 
d="M103 -6c-22 0 -33 15 -33 30c0 14 11 29 33 29c23 0 33 -15 33 -29c0 -15 -10 -30 -33 -30zM103 333c-22 0 -33 15 -33 30c0 14 11 29 33 29c23 0 33 -15 33 -29c0 -15 -10 -30 -33 -30z" />
    <glyph glyph-name="semicolon" unicode=";" 
d="M103 333c-22 0 -33 15 -33 30c0 14 11 29 33 29c23 0 33 -15 33 -29c0 -15 -10 -30 -33 -30zM124 31c0 -43 -11 -107 -25 -156c-2 -8 -6 -12 -13 -12s-11 4 -11 13c0 5 2 20 3 28c3 22 5 73 5 98c0 11 -1 21 -1 29c0 15 9 22 21 22c14 0 21 -9 21 -22z" />
    <glyph glyph-name="less" unicode="&#x3c;" horiz-adv-x="359" 
d="M301 487l-246 -197l247 -200c5 -4 7 -8 7 -13c0 -6 -5 -13 -14 -13c-8 0 -11 2 -16 6l-250 203c-7 6 -9 10 -9 16s2 10 9 16l250 203c5 4 8 6 16 6s14 -6 14 -13c0 -6 -3 -10 -8 -14z" />
    <glyph glyph-name="equal" unicode="=" horiz-adv-x="535" 
d="M65 431h405c9 0 15 -6 15 -15c0 -8 -6 -15 -15 -15h-405c-9 0 -15 6 -15 15c0 8 6 15 15 15zM65 251h405c9 0 15 -6 15 -15c0 -8 -6 -15 -15 -15h-405c-9 0 -15 6 -15 15c0 8 6 15 15 15z" />
    <glyph glyph-name="greater" unicode="&#x3e;" horiz-adv-x="359" 
d="M58 91l246 197l-247 200c-5 4 -7 8 -7 13c0 6 5 13 14 13c8 0 11 -2 16 -6l250 -203c7 -6 9 -10 9 -16s-2 -10 -9 -16l-250 -203c-5 -4 -8 -6 -16 -6s-14 6 -14 13c0 6 3 10 8 14z" />
    <glyph glyph-name="question" unicode="?" horiz-adv-x="495" 
d="M225 -6c-22 0 -33 15 -33 30c0 14 11 29 33 29c23 0 33 -15 33 -29c0 -15 -10 -30 -33 -30zM239 720c129 0 220 -62 220 -173c0 -78 -52 -135 -139 -198c-63 -46 -81 -73 -83 -137c0 -10 -4 -16 -13 -16c-8 0 -12 5 -13 14c-1 8 -1 14 -1 17c0 61 22 103 84 151
c86 65 115 105 115 174c0 90 -67 141 -170 141c-66 0 -132 -28 -174 -88c-8 -12 -15 -16 -23 -16c-11 0 -18 7 -18 17c0 7 3 14 8 21c40 55 124 93 207 93z" />
    <glyph glyph-name="at" unicode="@" horiz-adv-x="873" 
d="M257 281c0 104 69 173 161 173c41 0 98 -16 121 -74h4l1 49c0 11 9 17 20 17c10 0 22 -6 22 -17l-4 -186c-1 -67 21 -99 67 -99c75 0 102 101 102 178c0 191 -126 310 -306 310c-179 0 -320 -148 -320 -352c0 -207 128 -331 307 -331c75 0 141 10 201 50c6 4 11 6 16 6
s13 -3 13 -12c0 -6 -4 -10 -10 -14c-58 -41 -134 -58 -220 -58c-205 0 -352 141 -352 359c0 213 164 380 365 380c202 0 348 -132 348 -338c0 -88 -49 -196 -148 -196c-45 0 -88 23 -97 83h-4c-18 -49 -63 -88 -138 -88c-88 0 -149 62 -149 160zM304 285
c0 -87 40 -141 110 -141c76 0 128 59 128 147c0 89 -44 140 -125 140c-66 0 -113 -61 -113 -146z" />
    <glyph glyph-name="A" unicode="A" horiz-adv-x="635" 
d="M572 13l-78 216h-354c-43 -102 -65 -166 -85 -217c-4 -10 -12 -16 -22 -16c-14 0 -21 7 -21 18c0 4 1 10 4 17c59 141 219 513 286 656c7 14 14 25 40 25c21 0 31 -13 36 -25l241 -653c3 -7 4 -14 4 -18c0 -12 -10 -20 -24 -20c-11 0 -23 6 -27 17zM282 566l-129 -307
h331l-151 420h-4c-15 -38 -31 -76 -47 -113z" />
    <glyph glyph-name="B" unicode="B" horiz-adv-x="649" 
d="M144 32h142c76 0 128 4 166 19c57 23 88 73 88 149c0 114 -65 164 -248 164h-148v-332zM144 392h126c148 0 237 32 237 151c0 128 -131 139 -263 139c-23 0 -61 -1 -100 -4v-286zM96 665c0 21 13 37 36 40s79 5 120 5c166 0 303 -30 303 -169c0 -80 -54 -147 -162 -157
v-4c133 -6 196 -85 196 -178s-47 -151 -125 -179c-44 -16 -110 -19 -178 -19h-166c-19 0 -24 9 -24 23v638z" />
    <glyph glyph-name="C" unicode="C" horiz-adv-x="683" 
d="M369 16c119 0 179 51 221 105c10 13 16 19 26 19c12 0 18 -8 18 -17c0 -5 -3 -11 -7 -17c-37 -54 -115 -118 -258 -118c-197 0 -323 136 -323 366c0 223 136 366 327 366c134 0 221 -51 258 -108c4 -6 6 -13 6 -18c0 -11 -8 -21 -23 -21c-10 0 -18 6 -28 21
c-36 52 -94 98 -213 98c-171 0 -273 -137 -273 -338c0 -206 105 -338 269 -338z" />
    <glyph glyph-name="D" unicode="D" horiz-adv-x="711" 
d="M144 32h134c224 0 333 114 333 322c0 134 -40 237 -134 290c-48 27 -111 38 -189 38c-41 0 -97 0 -144 -4v-646zM274 4h-154c-19 0 -24 9 -24 23v638c0 21 13 37 36 40c45 5 94 5 163 5c255 0 370 -136 370 -356c0 -217 -138 -350 -391 -350z" />
    <glyph glyph-name="E" unicode="E" horiz-adv-x="607" 
d="M96 27v639c0 27 19 40 46 40h396c9 0 15 -7 15 -15c0 -9 -6 -15 -15 -15h-394v-288h342c9 0 15 -6 15 -15c0 -8 -6 -15 -15 -15h-342v-324h405c10 0 16 -6 16 -15c0 -8 -7 -15 -16 -15h-429c-19 0 -24 9 -24 23z" />
    <glyph glyph-name="F" unicode="F" horiz-adv-x="544" 
d="M96 22v644c0 27 19 40 46 40h371c9 0 15 -7 15 -15c0 -9 -6 -15 -15 -15h-369v-295h293c9 0 15 -6 15 -15c0 -8 -6 -15 -15 -15h-293v-329c0 -13 -10 -22 -24 -22c-15 0 -24 9 -24 22z" />
    <glyph glyph-name="G" unicode="G" horiz-adv-x="735" 
d="M372 16c165 0 257 94 260 276v7h-189c-9 0 -15 5 -15 14c0 8 6 14 15 14h219c14 0 19 -9 19 -18v-4c0 -206 -117 -317 -309 -317c-197 0 -326 134 -326 366c0 225 141 366 336 366c133 0 222 -61 259 -115c4 -6 6 -12 6 -17c0 -9 -7 -20 -21 -20c-10 0 -17 5 -26 19
c-31 51 -99 105 -218 105c-174 0 -282 -135 -282 -338c0 -208 108 -338 272 -338z" />
    <glyph glyph-name="H" unicode="H" horiz-adv-x="723" 
d="M627 688v-666c0 -13 -10 -22 -24 -22c-15 0 -24 9 -24 22v329h-435v-329c0 -13 -10 -22 -24 -22c-15 0 -24 9 -24 22v666c0 13 10 22 24 22c15 0 24 -9 24 -22v-307h435v307c0 13 10 22 24 22c15 0 24 -9 24 -22z" />
    <glyph glyph-name="I" unicode="I" horiz-adv-x="240" 
d="M144 688v-666c0 -13 -10 -22 -24 -22c-15 0 -24 9 -24 22v666c0 13 10 22 24 22c15 0 24 -9 24 -22z" />
    <glyph glyph-name="J" unicode="J" horiz-adv-x="532" 
d="M404 204v484c0 13 10 22 24 22c15 0 24 -9 24 -22v-480c0 -120 -70 -218 -224 -218c-98 0 -169 42 -202 90c-6 8 -8 15 -8 21c0 10 8 19 20 19c8 0 17 -3 27 -18c37 -55 80 -84 164 -84c105 0 175 62 175 186z" />
    <glyph glyph-name="K" unicode="K" horiz-adv-x="629" 
d="M144 688v-318h3c176 142 285 235 382 326c10 9 17 14 27 14c9 0 19 -6 19 -17c0 -6 -2 -11 -10 -19c-37 -38 -277 -228 -379 -307l401 -329c7 -6 9 -12 9 -18c0 -14 -11 -20 -23 -20c-15 0 -26 9 -39 20l-387 324h-3v-322c0 -13 -10 -22 -24 -22c-15 0 -24 9 -24 22v666
c0 13 10 22 24 22c15 0 24 -9 24 -22z" />
    <glyph glyph-name="L" unicode="L" horiz-adv-x="554" 
d="M506 4h-386c-19 0 -24 9 -24 23v661c0 13 10 22 24 22c15 0 24 -9 24 -22v-654h362c10 0 16 -6 16 -15c0 -8 -7 -15 -16 -15z" />
    <glyph glyph-name="M" unicode="M" horiz-adv-x="851" 
d="M96 22v659c0 19 16 29 35 29c24 0 32 -11 41 -23c26 -36 194 -369 257 -497h2c12 23 101 202 178 350c28 54 54 106 72 143c7 15 16 27 39 27c22 0 35 -10 35 -28v-660c0 -13 -9 -22 -24 -22c-14 0 -24 9 -24 22v643h-3c-16 -37 -49 -107 -64 -136
c-52 -103 -109 -216 -190 -365c-6 -11 -15 -19 -32 -19c-15 0 -24 8 -28 16c-61 114 -150 295 -215 417c-15 29 -32 58 -44 87h-3c3 -44 4 -96 4 -143v-500c0 -13 -5 -22 -18 -22s-18 9 -18 22z" />
    <glyph glyph-name="N" unicode="N" horiz-adv-x="742" 
d="M96 22v661c0 19 16 27 35 27c20 0 28 -8 38 -20c23 -26 242 -344 378 -548c24 -36 46 -69 63 -96h3c-2 41 -3 89 -3 132v510c0 13 5 22 18 22s18 -9 18 -22v-661c0 -21 -15 -27 -32 -27c-23 0 -36 10 -46 25c-72 109 -298 436 -378 551c-18 27 -46 66 -59 92h-3
c3 -43 4 -92 4 -136v-510c0 -13 -5 -22 -18 -22s-18 9 -18 22z" />
    <glyph glyph-name="O" unicode="O" horiz-adv-x="764" 
d="M46 354c0 225 141 366 336 366s336 -134 336 -366c0 -225 -144 -366 -336 -366c-197 0 -336 134 -336 366zM100 354c0 -208 108 -338 282 -338c172 0 282 134 282 338c0 207 -110 338 -282 338c-174 0 -282 -135 -282 -338z" />
    <glyph glyph-name="P" unicode="P" horiz-adv-x="611" 
d="M144 326h151c149 0 228 53 228 180c0 137 -100 176 -227 176c-61 0 -119 -2 -152 -5v-351zM96 22v642c0 21 13 37 36 40c50 6 125 6 164 6c161 0 277 -57 277 -203c0 -153 -114 -209 -284 -209h-145v-276c0 -13 -10 -22 -24 -22c-15 0 -24 9 -24 22z" />
    <glyph glyph-name="Q" unicode="Q" horiz-adv-x="764" 
d="M46 354c0 225 141 366 336 366s336 -134 336 -366c0 -213 -127 -350 -303 -362v-3l246 -90c13 -5 25 -11 25 -23c0 -15 -11 -22 -25 -22c-11 0 -24 4 -35 9l-269 126c-184 11 -311 143 -311 365zM100 354c0 -208 108 -338 282 -338c172 0 282 134 282 338
c0 207 -110 338 -282 338c-174 0 -282 -135 -282 -338z" />
    <glyph glyph-name="R" unicode="R" horiz-adv-x="652" 
d="M293 682c-61 0 -116 -2 -149 -5v-333c57 -2 127 -2 170 -2c139 0 221 49 221 176s-115 164 -242 164zM288 710c149 0 296 -35 296 -191c0 -125 -78 -185 -198 -201c57 -88 127 -188 194 -280c5 -7 8 -13 8 -19c0 -13 -12 -19 -26 -19c-9 0 -18 5 -26 16
c-57 81 -134 204 -192 299c-10 -1 -20 -1 -30 -1c-59 0 -106 0 -170 1v-293c0 -13 -10 -22 -24 -22c-15 0 -24 9 -24 22v642c0 21 13 37 36 40c50 6 117 6 156 6z" />
    <glyph glyph-name="S" unicode="S" horiz-adv-x="594" 
d="M295 15c101 0 206 54 206 168c0 74 -47 126 -208 156c-141 26 -233 69 -233 189c0 122 105 192 243 192c87 0 177 -26 216 -77c5 -7 7 -13 7 -19c0 -12 -7 -20 -20 -20c-8 0 -16 3 -24 15c-40 60 -106 74 -181 74c-43 0 -90 -9 -124 -29c-46 -27 -76 -68 -76 -127
c0 -109 96 -132 215 -156c157 -31 230 -89 230 -194c0 -110 -98 -199 -252 -199c-115 0 -202 38 -241 90c-6 8 -9 14 -9 22c0 10 9 18 21 18c7 0 16 -3 27 -18c41 -55 109 -85 203 -85z" />
    <glyph glyph-name="T" unicode="T" horiz-adv-x="548" 
d="M15 706h518c9 0 15 -7 15 -15c0 -9 -6 -15 -15 -15h-236v-654c0 -13 -10 -22 -24 -22c-15 0 -24 9 -24 22v654h-234c-9 0 -15 6 -15 15c0 8 6 15 15 15z" />
    <glyph glyph-name="U" unicode="U" horiz-adv-x="701" 
d="M80 277v411c0 13 10 22 24 22c15 0 24 -9 24 -22v-421c0 -139 61 -251 224 -251c133 0 227 85 227 245v429c0 13 9 20 21 20c13 0 21 -7 21 -20v-426c0 -140 -79 -276 -269 -276c-185 0 -272 101 -272 289z" />
    <glyph glyph-name="V" unicode="V" horiz-adv-x="615" 
d="M57 693l200 -565l35 -100h3c62 152 124 303 184 455c43 109 64 160 85 209c4 10 12 18 23 18c14 0 22 -7 22 -18c0 -4 -1 -10 -4 -17c-59 -141 -215 -516 -285 -659c-7 -14 -18 -22 -35 -22c-20 0 -30 11 -35 23l-240 655c-3 7 -4 14 -4 18c0 12 11 20 25 20
c11 0 22 -6 26 -17z" />
    <glyph glyph-name="W" unicode="W" horiz-adv-x="986" 
d="M490 706c25 0 31 -13 35 -27c58 -219 116 -432 180 -646h3c59 172 116 345 170 526l38 130c3 10 9 21 24 21c13 0 24 -5 24 -18c0 -6 -2 -14 -4 -20l-53 -161c-52 -157 -124 -367 -175 -495c-6 -14 -16 -22 -33 -22c-20 0 -32 11 -36 24c-69 213 -132 440 -181 648h-3
c-12 -50 -37 -138 -54 -194c-49 -156 -107 -334 -156 -455c-6 -14 -16 -23 -36 -23s-29 10 -33 23l-175 654c-2 9 -3 14 -3 18c0 14 10 21 24 21s24 -7 27 -18l169 -659h3c63 175 179 558 206 647c5 16 17 26 39 26z" />
    <glyph glyph-name="X" unicode="X" horiz-adv-x="599" 
d="M278 350l-243 327c-5 7 -6 11 -6 15c0 10 10 18 23 18c15 0 24 -6 33 -19l224 -308l75 94c61 77 115 156 156 217c8 11 14 16 24 16c7 0 21 -3 21 -16c0 -6 -3 -13 -10 -22c-88 -120 -180 -230 -249 -312l247 -327c5 -7 6 -11 6 -15c0 -10 -10 -18 -23 -18
c-15 0 -24 6 -33 19l-228 308l-74 -94c-61 -78 -118 -156 -161 -217c-8 -11 -14 -16 -24 -16c-9 0 -20 5 -20 17c0 6 3 13 10 22c90 116 186 233 252 311z" />
    <glyph glyph-name="Y" unicode="Y" horiz-adv-x="550" 
d="M21 710c15 0 23 -6 31 -19l227 -377c49 78 118 187 153 248c51 89 61 110 74 131c7 11 14 17 25 17c8 0 19 -4 19 -16c0 -5 -3 -12 -9 -22c-61 -101 -180 -285 -248 -382v-268c0 -13 -10 -22 -24 -22c-15 0 -24 9 -24 22v268l-239 386c-5 8 -6 11 -6 16c0 11 10 18 21 18
z" />
    <glyph glyph-name="Z" unicode="Z" horiz-adv-x="585" 
d="M28 23c0 8 3 14 10 23l452 626v4h-425c-9 0 -15 6 -15 15s6 15 15 15h462c15 0 23 -7 23 -18c0 -8 -3 -14 -9 -23l-453 -627v-4h432c9 0 15 -6 15 -15s-6 -15 -15 -15h-470c-15 0 -22 8 -22 19z" />
    <glyph glyph-name="bracketleft" unicode="[" horiz-adv-x="304" 
d="M126 712v-812h133c9 0 15 -5 15 -14c0 -8 -6 -14 -15 -14h-150c-17 0 -29 10 -29 28v817c0 14 5 23 24 23h154c9 0 16 -6 16 -14c0 -9 -6 -14 -16 -14h-132z" />
    <glyph glyph-name="backslash" unicode="\" horiz-adv-x="333" 
d="M318 -98l-305 824c-2 5 -3 10 -3 12c0 9 8 14 17 14c8 0 15 -4 18 -12l305 -824c2 -5 3 -10 3 -12c0 -9 -8 -14 -17 -14c-8 0 -15 4 -18 12z" />
    <glyph glyph-name="bracketright" unicode="]" horiz-adv-x="304" 
d="M178 -100v812h-133c-9 0 -15 5 -15 14c0 8 6 14 15 14h150c17 0 29 -10 29 -28v-817c0 -14 -5 -23 -24 -23h-154c-9 0 -16 6 -16 14c0 9 6 14 16 14h132z" />
    <glyph glyph-name="asciicircum" unicode="^" horiz-adv-x="489" 
d="M415 475l-170 191l-171 -191c-4 -4 -8 -6 -12 -6c-7 0 -12 4 -12 10c0 4 2 8 6 13l177 212c5 5 10 6 15 6s10 -1 15 -6l170 -212c4 -5 6 -9 6 -13c0 -5 -4 -10 -11 -10c-5 0 -9 2 -13 6z" />
    <glyph glyph-name="underscore" unicode="_" horiz-adv-x="560" 
d="M50 -24h460c9 0 15 -6 15 -15c0 -8 -6 -15 -15 -15h-460c-9 0 -15 6 -15 15c0 8 6 15 15 15z" />
    <glyph glyph-name="grave" unicode="`" horiz-adv-x="483" 
d="M305 575l-121 96c-6 5 -13 12 -13 21c0 13 10 20 22 20c9 0 17 -4 23 -10l108 -110c4 -4 6 -7 6 -11c0 -7 -6 -11 -12 -11c-4 0 -8 1 -13 5z" />
    <glyph glyph-name="a" unicode="a" horiz-adv-x="591" 
d="M465 478c0 13 10 20 23 20c12 0 23 -7 23 -20v-458c0 -13 -10 -20 -23 -20c-12 0 -23 7 -23 20v105h-3c-41 -104 -129 -137 -201 -137c-142 0 -225 105 -225 255c0 159 101 267 243 267c109 0 161 -70 183 -127h3v95zM279 484c-115 0 -193 -99 -193 -241
c0 -141 69 -229 183 -229c122 0 199 106 199 234c0 130 -62 236 -189 236z" />
    <glyph glyph-name="b" unicode="b" horiz-adv-x="607" 
d="M323 14c118 0 198 95 198 234c0 137 -76 236 -192 236c-132 0 -206 -106 -206 -236s75 -234 200 -234zM126 732v-359h3c46 107 128 137 207 137c146 0 235 -115 235 -261c0 -158 -102 -261 -248 -261c-115 0 -168 72 -194 131h-3v-99c0 -13 -10 -20 -23 -20
c-12 0 -23 7 -23 20v712c0 13 10 20 23 20c12 0 23 -7 23 -20z" />
    <glyph glyph-name="c" unicode="c" horiz-adv-x="506" 
d="M429 82c10 11 15 16 24 16c8 0 16 -6 16 -15c0 -4 -2 -8 -6 -13c-48 -55 -108 -82 -190 -82c-154 0 -237 111 -237 259c0 146 97 263 246 263c73 0 147 -23 184 -77c4 -6 6 -12 6 -17c0 -9 -7 -20 -21 -20c-10 0 -17 5 -26 19c-31 51 -76 70 -143 70
c-121 0 -196 -102 -196 -238c0 -132 67 -232 189 -232c57 0 107 17 154 67z" />
    <glyph glyph-name="d" unicode="d" horiz-adv-x="607" 
d="M284 484c-118 0 -198 -96 -198 -235c0 -137 75 -235 192 -235c132 0 206 105 206 235s-75 235 -200 235zM481 20v104h-3c-46 -107 -128 -136 -207 -136c-146 0 -235 114 -235 260c0 158 102 262 248 262c115 0 168 -73 194 -132h3v354c0 13 10 20 23 20
c12 0 23 -7 23 -20v-712c0 -13 -10 -20 -23 -20c-12 0 -23 7 -23 20z" />
    <glyph glyph-name="e" unicode="e" horiz-adv-x="542" 
d="M271 15c72 0 120 19 165 66c12 12 16 14 24 14c9 0 15 -6 15 -15c0 -4 -2 -8 -5 -12c-49 -54 -116 -80 -201 -80c-143 0 -233 97 -233 252s92 270 241 270c124 0 219 -78 219 -220v-11c0 -15 -8 -28 -29 -28h-381v-11c0 -128 65 -225 185 -225zM88 278h363v10
c0 140 -82 196 -175 196c-103 0 -177 -74 -188 -206z" />
    <glyph glyph-name="f" unicode="f" horiz-adv-x="257" 
d="M92 20v441h-59c-9 0 -15 5 -15 14c0 8 6 14 15 14h59c0 227 131 267 190 267c29 0 58 -3 80 -13c9 -4 15 -9 15 -19c0 -12 -8 -18 -18 -18c-7 0 -14 2 -27 8c-15 7 -33 11 -52 11c-111 0 -142 -85 -142 -185v-51h106c9 0 15 -5 15 -14s-6 -14 -15 -14h-106v-441
c0 -13 -11 -20 -23 -20c-13 0 -23 7 -23 20z" />
    <glyph glyph-name="g" unicode="g" horiz-adv-x="597" 
d="M281 484c-118 0 -195 -98 -195 -237c0 -145 73 -233 187 -233c122 0 201 105 201 233c0 130 -66 237 -193 237zM471 382v96c0 13 10 20 23 20c12 0 23 -7 23 -20v-451c0 -162 -105 -255 -261 -255c-92 0 -160 29 -189 58c-10 10 -16 18 -16 27c0 10 10 16 19 16
c6 0 11 -2 17 -8c50 -54 116 -67 168 -67c136 0 216 79 216 219v107h-3c-41 -104 -131 -136 -203 -136c-142 0 -229 105 -229 259c0 157 97 263 243 263c111 0 167 -71 189 -128h3z" />
    <glyph glyph-name="h" unicode="h" horiz-adv-x="573" 
d="M81 20v712c0 13 10 20 23 20c12 0 23 -7 23 -20v-341h4c33 82 103 119 178 119c133 0 195 -71 195 -199v-291c0 -13 -10 -20 -23 -20c-12 0 -23 7 -23 20v289c0 89 -31 174 -151 174c-104 0 -180 -81 -180 -204v-259c0 -13 -10 -20 -23 -20c-12 0 -23 7 -23 20z" />
    <glyph glyph-name="i" unicode="i" 
d="M80 20v458c0 13 10 20 23 20c12 0 23 -7 23 -20v-458c0 -13 -10 -20 -23 -20c-12 0 -23 7 -23 20zM103 664c-22 0 -33 13 -33 27c0 13 11 26 33 26s33 -13 33 -26c0 -14 -11 -27 -33 -27z" />
    <glyph glyph-name="j" unicode="j" 
d="M102 664c-22 0 -33 13 -33 27c0 13 11 26 33 26c23 0 33 -13 33 -26c0 -14 -10 -27 -33 -27zM80 -88v565c0 13 10 20 23 20c12 0 23 -7 23 -20v-497c0 -50 -5 -89 -13 -111c-14 -41 -36 -67 -69 -79c-15 -6 -32 -8 -44 -8c-6 0 -16 0 -25 3c-7 2 -12 6 -12 13
c0 8 6 13 13 13s14 -3 26 -3s24 2 34 7c27 12 44 42 44 97z" />
    <glyph glyph-name="k" unicode="k" horiz-adv-x="478" 
d="M75 20v712c0 13 10 20 23 20c12 0 23 -7 23 -20v-459h2l120 87c86 63 128 95 168 128c7 6 12 10 21 10s19 -7 19 -18c0 -7 -3 -13 -14 -21c-100 -75 -182 -126 -275 -187l291 -239c5 -4 9 -9 9 -15c0 -10 -8 -18 -21 -18s-21 5 -32 15l-286 240h-2v-235
c0 -13 -10 -20 -23 -20c-12 0 -23 7 -23 20z" />
    <glyph glyph-name="l" unicode="l" 
d="M80 20v712c0 13 10 20 23 20c12 0 23 -7 23 -20v-712c0 -13 -10 -20 -23 -20c-12 0 -23 7 -23 20z" />
    <glyph glyph-name="m" unicode="m" horiz-adv-x="870" 
d="M800 311v-291c0 -13 -10 -20 -23 -20c-12 0 -23 7 -23 20v289c0 89 -29 174 -139 174c-90 0 -152 -67 -152 -183v-280c0 -13 -10 -20 -23 -20c-12 0 -23 7 -23 20v289c0 89 -28 174 -135 174c-91 0 -156 -76 -156 -199v-264c0 -13 -10 -20 -23 -20c-12 0 -23 7 -23 20
v458c0 13 10 20 23 20c12 0 23 -7 23 -20v-81h3c25 77 91 113 156 113c90 0 147 -45 166 -114h5c29 76 88 114 162 114c123 0 182 -71 182 -199z" />
    <glyph glyph-name="n" unicode="n" horiz-adv-x="573" 
d="M80 20v458c0 13 10 20 23 20c12 0 23 -7 23 -20v-87h4c33 82 103 119 178 119c133 0 195 -71 195 -199v-291c0 -13 -10 -20 -23 -20c-12 0 -23 7 -23 20v289c0 89 -31 174 -151 174c-104 0 -180 -81 -180 -204v-259c0 -13 -10 -20 -23 -20c-12 0 -23 7 -23 20z" />
    <glyph glyph-name="o" unicode="o" horiz-adv-x="576" 
d="M36 246c0 164 116 264 252 264c138 0 252 -96 252 -261c0 -164 -114 -261 -252 -261c-137 0 -252 93 -252 258zM88 246c0 -152 91 -232 200 -232c111 0 200 87 200 235c0 153 -91 235 -200 235c-111 0 -200 -89 -200 -238z" />
    <glyph glyph-name="p" unicode="p" horiz-adv-x="607" 
d="M80 -198v676c0 13 10 20 23 20c12 0 23 -7 23 -20v-105h3c46 107 128 137 207 137c146 0 235 -115 235 -261c0 -158 -102 -261 -248 -261c-115 0 -168 72 -194 131h-3v-317c0 -13 -10 -20 -23 -20c-12 0 -23 7 -23 20zM323 14c118 0 198 95 198 234
c0 137 -75 236 -192 236c-132 0 -206 -106 -206 -236s75 -234 200 -234z" />
    <glyph glyph-name="q" unicode="q" horiz-adv-x="608" 
d="M284 484c-118 0 -198 -96 -198 -235c0 -137 76 -235 192 -235c132 0 206 105 206 235s-75 235 -200 235zM481 -198v322h-3c-46 -107 -128 -136 -207 -136c-146 0 -235 114 -235 260c0 158 102 262 248 262c115 0 168 -73 194 -132h3v100c0 13 10 20 23 20
c12 0 23 -7 23 -20v-676c0 -13 -10 -20 -23 -20c-12 0 -23 7 -23 20z" />
    <glyph glyph-name="r" unicode="r" horiz-adv-x="386" 
d="M126 478v-85h1c36 86 109 117 168 117c22 0 48 -3 70 -13c9 -4 15 -9 15 -19c0 -12 -8 -18 -18 -18c-7 0 -14 2 -27 8c-15 7 -33 11 -52 11c-57 0 -102 -33 -130 -81c-16 -28 -27 -65 -27 -107v-271c0 -13 -10 -20 -23 -20c-12 0 -23 7 -23 20v458c0 13 10 20 23 20
c12 0 23 -7 23 -20z" />
    <glyph glyph-name="s" unicode="s" horiz-adv-x="462" 
d="M230 13c72 0 147 37 147 114c0 51 -25 82 -152 101c-109 17 -179 54 -179 142s82 140 187 140c66 0 134 -19 164 -55c5 -6 8 -12 8 -17c0 -13 -9 -19 -20 -19c-8 0 -17 4 -24 14c-29 40 -74 52 -129 52c-67 0 -146 -28 -146 -106c0 -69 62 -94 157 -110
c122 -21 177 -62 177 -139c0 -78 -74 -142 -192 -142c-87 0 -153 27 -184 63c-5 6 -8 11 -8 17c0 13 10 19 21 19c7 0 15 -2 24 -13c30 -39 83 -61 149 -61z" />
    <glyph glyph-name="t" unicode="t" horiz-adv-x="391" 
d="M333 461h-179v-319c0 -95 44 -123 102 -123c22 0 45 2 70 11c8 3 15 6 19 6c10 0 15 -6 15 -14c0 -7 -7 -11 -17 -15c-23 -9 -57 -15 -90 -15c-83 0 -145 30 -145 151v318h-77c-9 0 -15 5 -15 14c0 8 6 14 15 14h77v142c0 11 9 19 23 19c13 0 23 -8 23 -19v-142h179
c9 0 15 -5 15 -14s-6 -14 -15 -14z" />
    <glyph glyph-name="u" unicode="u" horiz-adv-x="573" 
d="M493 478v-458c0 -13 -10 -20 -23 -20c-12 0 -23 7 -23 20v87h-4c-33 -82 -103 -119 -178 -119c-133 0 -195 71 -195 199v291c0 13 10 20 23 20c12 0 23 -7 23 -20v-289c0 -89 31 -174 151 -174c104 0 180 81 180 204v259c0 13 10 20 23 20c12 0 23 -7 23 -20z" />
    <glyph glyph-name="v" unicode="v" horiz-adv-x="455" 
d="M52 481l133 -355c13 -34 20 -54 35 -96h3l102 241c46 107 61 158 82 211c4 10 12 16 22 16c14 0 22 -7 22 -18c0 -4 -1 -10 -4 -17c-59 -141 -134 -304 -204 -447c-7 -14 -13 -22 -30 -22c-18 0 -26 10 -31 22l-174 444c-3 7 -4 14 -4 18c0 12 10 20 24 20
c11 0 20 -6 24 -17z" />
    <glyph glyph-name="w" unicode="w" horiz-adv-x="737" 
d="M527 -6c-18 0 -27 10 -31 22c-55 156 -97 308 -123 423h-4c-41 -138 -89 -277 -151 -423c-6 -14 -15 -22 -32 -22c-18 0 -27 10 -31 22l-135 442c-3 10 -4 15 -4 19c0 12 10 21 24 21c13 0 21 -7 24 -18l105 -371l23 -81h3c63 166 118 326 157 454c4 12 15 16 25 16
c11 0 24 -4 27 -16c39 -154 75 -282 129 -454h3l61 182c33 97 65 212 79 266c3 11 9 22 24 22c14 0 21 -8 21 -17c0 -5 -2 -13 -4 -20c-46 -146 -98 -294 -156 -442c-6 -15 -15 -25 -34 -25z" />
    <glyph glyph-name="x" unicode="x" horiz-adv-x="463" 
d="M256 254l184 -221c6 -7 7 -11 7 -16c0 -10 -10 -17 -21 -17c-13 0 -22 7 -32 19l-166 206l-42 -50c-70 -84 -88 -106 -127 -159c-8 -11 -13 -16 -23 -16c-7 0 -20 4 -20 16c0 6 4 12 11 21c77 90 110 128 184 208l-175 220c-5 7 -7 11 -7 16c0 10 10 17 21 17
c15 0 22 -7 32 -19l158 -205l40 47c69 82 98 125 121 161c7 11 14 16 24 16c7 0 20 -4 20 -16c0 -6 -4 -12 -11 -21c-77 -96 -107 -131 -178 -207z" />
    <glyph glyph-name="y" unicode="y" horiz-adv-x="464" 
d="M53 481l140 -357c13 -34 21 -52 36 -94h3l31 72c49 112 78 179 109 260c13 34 28 75 44 120c4 10 11 16 21 16c14 0 22 -7 23 -18c0 -4 -1 -10 -4 -17c-45 -106 -101 -229 -160 -357c-51 -111 -104 -225 -147 -305c-7 -12 -14 -19 -25 -19c-10 0 -19 7 -19 18
c0 8 3 15 9 24c49 76 66 105 94 158l-17 37l-182 441c-3 7 -5 12 -5 18c0 12 10 20 24 20c11 0 21 -6 25 -17z" />
    <glyph glyph-name="z" unicode="z" horiz-adv-x="463" 
d="M41 45l332 412v4h-316c-9 0 -15 5 -15 14s6 14 15 14h349c15 0 23 -6 23 -17c0 -8 -3 -15 -10 -24l-332 -412v-4h322c9 0 15 -5 15 -14s-6 -14 -15 -14h-355c-15 0 -22 9 -22 20c0 8 2 12 9 21z" />
    <glyph glyph-name="braceleft" unicode="{" horiz-adv-x="322" 
d="M30 307c0 5 2 12 13 14c15 3 27 6 37 12c38 25 40 68 40 99v178c0 73 40 130 132 130h26c9 0 14 -5 14 -12s-4 -12 -13 -12h-22c-57 0 -91 -23 -91 -103v-161c0 -89 -37 -132 -90 -143v-4c63 -13 90 -54 90 -143v-163c0 -80 34 -103 91 -103h22c9 0 13 -5 13 -12
s-5 -12 -14 -12h-26c-92 0 -132 57 -132 130v180c0 31 -2 74 -40 99c-10 6 -22 9 -37 12c-11 2 -13 9 -13 14z" />
    <glyph glyph-name="bar" unicode="|" horiz-adv-x="238" 
d="M138 752v-922c0 -11 -8 -18 -19 -18c-12 0 -19 7 -19 18v922c0 11 8 18 19 18c12 0 19 -7 19 -18z" />
    <glyph glyph-name="braceright" unicode="}" horiz-adv-x="322" 
d="M292 307c0 -5 -2 -12 -13 -14c-15 -3 -27 -6 -37 -12c-38 -25 -40 -68 -40 -99v-180c0 -73 -40 -130 -132 -130h-26c-9 0 -14 5 -14 12s4 12 13 12h22c57 0 91 23 91 103v163c0 89 37 132 90 143v4c-63 13 -90 54 -90 143v161c0 80 -34 103 -91 103h-22
c-9 0 -13 5 -13 12s5 12 14 12h26c92 0 132 -57 132 -130v-178c0 -31 2 -74 40 -99c10 -6 22 -9 37 -12c11 -2 13 -9 13 -14z" />
    <glyph glyph-name="asciitilde" unicode="~" horiz-adv-x="524" 
d="M468 379c-22 -40 -57 -73 -112 -73c-35 0 -59 7 -109 39c-32 21 -55 34 -86 34c-39 0 -64 -25 -83 -60c-4 -7 -7 -12 -15 -12c-7 0 -13 4 -13 11c0 4 2 10 6 18c21 40 57 73 112 73c35 0 59 -7 109 -39c32 -21 55 -34 86 -34c39 0 64 25 83 60c4 7 7 12 15 12
c7 0 13 -4 13 -11c0 -4 -2 -10 -6 -18z" />
    <glyph glyph-name="Adieresis" unicode="&#xc4;" horiz-adv-x="635" 
d="M572 13l-78 216h-354c-43 -102 -65 -166 -85 -217c-4 -10 -12 -16 -22 -16c-14 0 -21 7 -21 18c0 4 1 10 4 17c59 141 219 513 286 656c7 14 14 25 40 25c21 0 31 -13 36 -25l241 -653c3 -7 4 -14 4 -18c0 -12 -10 -20 -24 -20c-11 0 -23 6 -27 17zM282 566l-129 -307
h331l-151 420h-4c-15 -38 -31 -76 -47 -113zM233 799c-22 0 -33 13 -33 27c0 13 11 26 33 26s33 -13 33 -26c0 -14 -11 -27 -33 -27zM442 799c-22 0 -33 13 -33 27c0 13 11 26 33 26s33 -13 33 -26c0 -14 -11 -27 -33 -27z" />
    <glyph glyph-name="Aring" unicode="&#xc5;" horiz-adv-x="635" 
d="M572 13l-78 216h-354c-43 -102 -65 -166 -85 -217c-4 -10 -12 -16 -22 -16c-14 0 -21 7 -21 18c0 4 1 10 4 17c59 141 219 513 286 656c7 14 14 25 40 25c21 0 31 -13 36 -25l241 -653c3 -7 4 -14 4 -18c0 -12 -10 -20 -24 -20c-11 0 -23 6 -27 17zM282 566l-129 -307
h331l-151 420h-4c-15 -38 -31 -76 -47 -113zM256 828c0 48 38 84 85 84c50 0 84 -36 84 -84s-37 -84 -84 -84c-53 0 -85 36 -85 84zM283 828c0 -35 21 -62 58 -62c32 0 57 26 57 62c0 34 -21 62 -57 62c-33 0 -58 -27 -58 -62z" />
    <glyph glyph-name="Ccedilla" unicode="&#xc7;" horiz-adv-x="683" 
d="M369 16c119 0 179 51 221 105c10 13 16 19 26 19c12 0 18 -8 18 -17c0 -5 -3 -11 -7 -17c-37 -54 -115 -118 -258 -118c-197 0 -323 136 -323 366c0 223 136 366 327 366c134 0 221 -51 258 -108c4 -6 6 -13 6 -18c0 -11 -8 -21 -23 -21c-10 0 -18 6 -28 21
c-36 52 -94 98 -213 98c-171 0 -273 -137 -273 -338c0 -206 105 -338 269 -338zM392 -82c0 -43 -11 -82 -30 -109c-4 -6 -8 -9 -13 -9c-6 0 -11 3 -11 10s3 14 6 22c5 14 9 31 9 56c0 11 -2 22 -2 30c0 15 8 22 20 22c14 0 21 -9 21 -22z" />
    <glyph glyph-name="Eacute" unicode="&#xc9;" horiz-adv-x="607" 
d="M96 27v639c0 27 19 40 46 40h396c9 0 15 -7 15 -15c0 -9 -6 -15 -15 -15h-394v-288h342c9 0 15 -6 15 -15c0 -8 -6 -15 -15 -15h-342v-324h405c10 0 16 -6 16 -15c0 -8 -7 -15 -16 -15h-429c-19 0 -24 9 -24 23zM426 871l-121 -96c-5 -4 -8 -5 -12 -5c-5 0 -11 3 -11 10
c0 4 2 8 6 12l108 110c6 6 14 10 21 10c12 0 22 -7 22 -20c0 -9 -7 -16 -13 -21z" />
    <glyph glyph-name="Ntilde" unicode="&#xd1;" horiz-adv-x="742" 
d="M96 22v661c0 19 16 27 35 27c20 0 28 -8 38 -20c23 -26 242 -344 378 -548c24 -36 46 -69 63 -96h3c-2 41 -3 89 -3 132v510c0 13 5 22 18 22s18 -9 18 -22v-661c0 -21 -15 -27 -32 -27c-23 0 -36 10 -46 25c-72 109 -298 436 -378 551c-18 27 -46 66 -59 92h-3
c3 -43 4 -92 4 -136v-510c0 -13 -5 -22 -18 -22s-18 9 -18 22zM447 790c-25 0 -44 4 -82 27c-20 12 -34 19 -51 19c-23 0 -37 -12 -50 -37c-3 -6 -6 -10 -13 -10c-8 0 -12 5 -12 10c0 6 2 10 5 16c15 30 39 53 78 53c25 0 45 -4 82 -27c21 -13 35 -19 52 -19
c24 0 36 12 49 37c3 6 6 10 13 10c8 0 12 -5 12 -10c0 -6 -2 -10 -5 -16c-15 -30 -39 -53 -78 -53z" />
    <glyph glyph-name="Odieresis" unicode="&#xd6;" horiz-adv-x="764" 
d="M46 354c0 225 141 366 336 366s336 -134 336 -366c0 -225 -144 -366 -336 -366c-197 0 -336 134 -336 366zM100 354c0 -208 108 -338 282 -338c172 0 282 134 282 338c0 207 -110 338 -282 338c-174 0 -282 -135 -282 -338zM286 799c-22 0 -33 13 -33 27
c0 13 11 26 33 26s33 -13 33 -26c0 -14 -11 -27 -33 -27zM495 799c-22 0 -33 13 -33 27c0 13 11 26 33 26s33 -13 33 -26c0 -14 -11 -27 -33 -27z" />
    <glyph glyph-name="Udieresis" unicode="&#xdc;" horiz-adv-x="701" 
d="M80 277v411c0 13 10 22 24 22c15 0 24 -9 24 -22v-421c0 -139 61 -251 224 -251c133 0 227 85 227 245v429c0 13 9 20 21 20c13 0 21 -7 21 -20v-426c0 -140 -79 -276 -269 -276c-185 0 -272 101 -272 289zM252 799c-22 0 -33 13 -33 27c0 13 11 26 33 26s33 -13 33 -26
c0 -14 -11 -27 -33 -27zM461 799c-22 0 -33 13 -33 27c0 13 11 26 33 26s33 -13 33 -26c0 -14 -11 -27 -33 -27z" />
    <glyph glyph-name="aacute" unicode="&#xe1;" horiz-adv-x="591" 
d="M465 478c0 13 10 20 23 20c12 0 23 -7 23 -20v-458c0 -13 -10 -20 -23 -20c-12 0 -23 7 -23 20v105h-3c-41 -104 -129 -137 -201 -137c-142 0 -225 105 -225 255c0 159 101 267 243 267c109 0 161 -70 183 -127h3v95zM279 484c-115 0 -193 -99 -193 -241
c0 -141 69 -229 183 -229c122 0 199 106 199 234c0 130 -62 236 -189 236zM382 671l-121 -96c-5 -4 -8 -5 -12 -5c-5 0 -11 3 -11 10c0 4 2 8 6 12l108 110c6 6 14 10 21 10c12 0 22 -7 22 -20c0 -9 -7 -16 -13 -21z" />
    <glyph glyph-name="agrave" unicode="&#xe0;" horiz-adv-x="591" 
d="M465 478c0 13 10 20 23 20c12 0 23 -7 23 -20v-458c0 -13 -10 -20 -23 -20c-12 0 -23 7 -23 20v105h-3c-41 -104 -129 -137 -201 -137c-142 0 -225 105 -225 255c0 159 101 267 243 267c109 0 161 -70 183 -127h3v95zM279 484c-115 0 -193 -99 -193 -241
c0 -141 69 -229 183 -229c122 0 199 106 199 234c0 130 -62 236 -189 236zM312 575l-121 96c-6 5 -13 12 -13 21c0 13 10 20 22 20c9 0 17 -4 23 -10l108 -110c4 -4 6 -7 6 -11c0 -7 -6 -11 -12 -11c-4 0 -8 1 -13 5z" />
    <glyph glyph-name="acircumflex" unicode="&#xe2;" horiz-adv-x="591" 
d="M465 478c0 13 10 20 23 20c12 0 23 -7 23 -20v-458c0 -13 -10 -20 -23 -20c-12 0 -23 7 -23 20v105h-3c-41 -104 -129 -137 -201 -137c-142 0 -225 105 -225 255c0 159 101 267 243 267c109 0 161 -70 183 -127h3v95zM279 484c-115 0 -193 -99 -193 -241
c0 -141 69 -229 183 -229c122 0 199 106 199 234c0 130 -62 236 -189 236zM396 575l-111 82l-111 -82c-5 -4 -8 -5 -12 -5c-5 0 -11 3 -11 10c0 4 2 8 6 12l116 102c5 5 10 6 15 6s10 -1 15 -6l110 -102c4 -4 6 -8 6 -12c0 -7 -6 -10 -11 -10c-4 0 -7 1 -12 5z" />
    <glyph glyph-name="adieresis" unicode="&#xe4;" horiz-adv-x="591" 
d="M465 478c0 13 10 20 23 20c12 0 23 -7 23 -20v-458c0 -13 -10 -20 -23 -20c-12 0 -23 7 -23 20v105h-3c-41 -104 -129 -137 -201 -137c-142 0 -225 105 -225 255c0 159 101 267 243 267c109 0 161 -70 183 -127h3v95zM279 484c-115 0 -193 -99 -193 -241
c0 -141 69 -229 183 -229c122 0 199 106 199 234c0 130 -62 236 -189 236zM179 599c-22 0 -33 13 -33 27c0 13 11 26 33 26s33 -13 33 -26c0 -14 -11 -27 -33 -27zM388 599c-22 0 -33 13 -33 27c0 13 11 26 33 26s33 -13 33 -26c0 -14 -11 -27 -33 -27z" />
    <glyph glyph-name="atilde" unicode="&#xe3;" horiz-adv-x="591" 
d="M465 478c0 13 10 20 23 20c12 0 23 -7 23 -20v-458c0 -13 -10 -20 -23 -20c-12 0 -23 7 -23 20v105h-3c-41 -104 -129 -137 -201 -137c-142 0 -225 105 -225 255c0 159 101 267 243 267c109 0 161 -70 183 -127h3v95zM279 484c-115 0 -193 -99 -193 -241
c0 -141 69 -229 183 -229c122 0 199 106 199 234c0 130 -62 236 -189 236zM345 590c-25 0 -44 4 -82 27c-20 12 -34 19 -51 19c-23 0 -37 -12 -50 -37c-3 -6 -6 -10 -13 -10c-8 0 -12 5 -12 10c0 6 2 10 5 16c15 30 39 53 78 53c25 0 45 -4 82 -27c21 -13 35 -19 52 -19
c24 0 36 12 49 37c3 6 6 10 13 10c8 0 12 -5 12 -10c0 -6 -2 -10 -5 -16c-15 -30 -39 -53 -78 -53z" />
    <glyph glyph-name="aring" unicode="&#xe5;" horiz-adv-x="591" 
d="M465 478c0 13 10 20 23 20c12 0 23 -7 23 -20v-458c0 -13 -10 -20 -23 -20c-12 0 -23 7 -23 20v105h-3c-41 -104 -129 -137 -201 -137c-142 0 -225 105 -225 255c0 159 101 267 243 267c109 0 161 -70 183 -127h3v95zM279 484c-115 0 -193 -99 -193 -241
c0 -141 69 -229 183 -229c122 0 199 106 199 234c0 130 -62 236 -189 236zM205 641c0 48 38 84 85 84c50 0 84 -36 84 -84s-37 -84 -84 -84c-53 0 -85 36 -85 84zM232 641c0 -35 21 -62 58 -62c32 0 57 26 57 62c0 34 -21 62 -57 62c-33 0 -58 -27 -58 -62z" />
    <glyph glyph-name="ccedilla" unicode="&#xe7;" horiz-adv-x="506" 
d="M429 82c10 11 15 16 24 16c8 0 16 -6 16 -15c0 -4 -2 -8 -6 -13c-48 -55 -108 -82 -190 -82c-154 0 -237 111 -237 259c0 146 97 263 246 263c73 0 147 -23 184 -77c4 -6 6 -12 6 -17c0 -9 -7 -20 -21 -20c-10 0 -17 5 -26 19c-31 51 -76 70 -143 70
c-121 0 -196 -102 -196 -238c0 -132 67 -232 189 -232c57 0 107 17 154 67zM295 -82c0 -43 -11 -82 -30 -109c-4 -6 -8 -9 -13 -9c-6 0 -11 3 -11 10s3 14 6 22c5 14 9 31 9 56c0 11 -2 22 -2 30c0 15 8 22 20 22c14 0 21 -9 21 -22z" />
    <glyph glyph-name="eacute" unicode="&#xe9;" horiz-adv-x="542" 
d="M271 15c72 0 120 19 165 66c12 12 16 14 24 14c9 0 15 -6 15 -15c0 -4 -2 -8 -5 -12c-49 -54 -116 -80 -201 -80c-143 0 -233 97 -233 252s92 270 241 270c124 0 219 -78 219 -220v-11c0 -15 -8 -28 -29 -28h-381v-11c0 -128 65 -225 185 -225zM88 278h363v10
c0 140 -82 196 -175 196c-103 0 -177 -74 -188 -206zM370 671l-121 -96c-5 -4 -8 -5 -12 -5c-5 0 -11 3 -11 10c0 4 2 8 6 12l108 110c6 6 14 10 21 10c12 0 22 -7 22 -20c0 -9 -7 -16 -13 -21z" />
    <glyph glyph-name="egrave" unicode="&#xe8;" horiz-adv-x="542" 
d="M271 15c72 0 120 19 165 66c12 12 16 14 24 14c9 0 15 -6 15 -15c0 -4 -2 -8 -5 -12c-49 -54 -116 -80 -201 -80c-143 0 -233 97 -233 252s92 270 241 270c124 0 219 -78 219 -220v-11c0 -15 -8 -28 -29 -28h-381v-11c0 -128 65 -225 185 -225zM88 278h363v10
c0 140 -82 196 -175 196c-103 0 -177 -74 -188 -206zM317 575l-121 96c-6 5 -13 12 -13 21c0 13 10 20 22 20c9 0 17 -4 23 -10l108 -110c4 -4 6 -7 6 -11c0 -7 -6 -11 -12 -11c-4 0 -8 1 -13 5z" />
    <glyph glyph-name="ecircumflex" unicode="&#xea;" horiz-adv-x="542" 
d="M271 15c72 0 120 19 165 66c12 12 16 14 24 14c9 0 15 -6 15 -15c0 -4 -2 -8 -5 -12c-49 -54 -116 -80 -201 -80c-143 0 -233 97 -233 252s92 270 241 270c124 0 219 -78 219 -220v-11c0 -15 -8 -28 -29 -28h-381v-11c0 -128 65 -225 185 -225zM88 278h363v10
c0 140 -82 196 -175 196c-103 0 -177 -74 -188 -206zM390 575l-111 82l-111 -82c-5 -4 -8 -5 -12 -5c-5 0 -11 3 -11 10c0 4 2 8 6 12l116 102c5 5 10 6 15 6s10 -1 15 -6l110 -102c4 -4 6 -8 6 -12c0 -7 -6 -10 -11 -10c-4 0 -7 1 -12 5z" />
    <glyph glyph-name="edieresis" unicode="&#xeb;" horiz-adv-x="542" 
d="M271 15c72 0 120 19 165 66c12 12 16 14 24 14c9 0 15 -6 15 -15c0 -4 -2 -8 -5 -12c-49 -54 -116 -80 -201 -80c-143 0 -233 97 -233 252s92 270 241 270c124 0 219 -78 219 -220v-11c0 -15 -8 -28 -29 -28h-381v-11c0 -128 65 -225 185 -225zM88 278h363v10
c0 140 -82 196 -175 196c-103 0 -177 -74 -188 -206zM174 599c-22 0 -33 13 -33 27c0 13 11 26 33 26s33 -13 33 -26c0 -14 -11 -27 -33 -27zM383 599c-22 0 -33 13 -33 27c0 13 11 26 33 26s33 -13 33 -26c0 -14 -11 -27 -33 -27z" />
    <glyph glyph-name="iacute" unicode="&#xed;" 
d="M80 20v458c0 13 10 20 23 20c12 0 23 -7 23 -20v-458c0 -13 -10 -20 -23 -20c-12 0 -23 7 -23 20zM201 671l-121 -96c-5 -4 -8 -5 -12 -5c-5 0 -11 3 -11 10c0 4 2 8 6 12l108 110c6 6 14 10 21 10c12 0 22 -7 22 -20c0 -9 -7 -16 -13 -21z" />
    <glyph glyph-name="igrave" unicode="&#xec;" 
d="M80 20v458c0 13 10 20 23 20c12 0 23 -7 23 -20v-458c0 -13 -10 -20 -23 -20c-12 0 -23 7 -23 20zM118 575l-121 96c-6 5 -13 12 -13 21c0 13 10 20 22 20c9 0 17 -4 23 -10l108 -110c4 -4 6 -7 6 -11c0 -7 -6 -11 -12 -11c-4 0 -8 1 -13 5z" />
    <glyph glyph-name="icircumflex" unicode="&#xee;" 
d="M80 20v458c0 13 10 20 23 20c12 0 23 -7 23 -20v-458c0 -13 -10 -20 -23 -20c-12 0 -23 7 -23 20zM215 575l-111 82l-111 -82c-5 -4 -8 -5 -12 -5c-5 0 -11 3 -11 10c0 4 2 8 6 12l116 102c5 5 10 6 15 6s10 -1 15 -6l110 -102c4 -4 6 -8 6 -12c0 -7 -6 -10 -11 -10
c-4 0 -7 1 -12 5z" />
    <glyph glyph-name="idieresis" unicode="&#xef;" 
d="M80 20v458c0 13 10 20 23 20c12 0 23 -7 23 -20v-458c0 -13 -10 -20 -23 -20c-12 0 -23 7 -23 20zM-1 599c-22 0 -33 13 -33 27c0 13 11 26 33 26s33 -13 33 -26c0 -14 -11 -27 -33 -27zM208 599c-22 0 -33 13 -33 27c0 13 11 26 33 26s33 -13 33 -26
c0 -14 -11 -27 -33 -27z" />
    <glyph glyph-name="ntilde" unicode="&#xf1;" horiz-adv-x="573" 
d="M80 20v458c0 13 10 20 23 20c12 0 23 -7 23 -20v-87h4c33 82 103 119 178 119c133 0 195 -71 195 -199v-291c0 -13 -10 -20 -23 -20c-12 0 -23 7 -23 20v289c0 89 -31 174 -151 174c-104 0 -180 -81 -180 -204v-259c0 -13 -10 -20 -23 -20c-12 0 -23 7 -23 20zM356 590
c-25 0 -44 4 -82 27c-20 12 -34 19 -51 19c-23 0 -37 -12 -50 -37c-3 -6 -6 -10 -13 -10c-8 0 -12 5 -12 10c0 6 2 10 5 16c15 30 39 53 78 53c25 0 45 -4 82 -27c21 -13 35 -19 52 -19c24 0 36 12 49 37c3 6 6 10 13 10c8 0 12 -5 12 -10c0 -6 -2 -10 -5 -16
c-15 -30 -39 -53 -78 -53z" />
    <glyph glyph-name="oacute" unicode="&#xf3;" horiz-adv-x="576" 
d="M36 246c0 164 116 264 252 264c138 0 252 -96 252 -261c0 -164 -114 -261 -252 -261c-137 0 -252 93 -252 258zM88 246c0 -152 91 -232 200 -232c111 0 200 87 200 235c0 153 -91 235 -200 235c-111 0 -200 -89 -200 -238zM394 671l-121 -96c-5 -4 -8 -5 -12 -5
c-5 0 -11 3 -11 10c0 4 2 8 6 12l108 110c6 6 14 10 21 10c12 0 22 -7 22 -20c0 -9 -7 -16 -13 -21z" />
    <glyph glyph-name="ograve" unicode="&#xf2;" horiz-adv-x="576" 
d="M36 246c0 164 116 264 252 264c138 0 252 -96 252 -261c0 -164 -114 -261 -252 -261c-137 0 -252 93 -252 258zM88 246c0 -152 91 -232 200 -232c111 0 200 87 200 235c0 153 -91 235 -200 235c-111 0 -200 -89 -200 -238zM330 575l-121 96c-6 5 -13 12 -13 21
c0 13 10 20 22 20c9 0 17 -4 23 -10l108 -110c4 -4 6 -7 6 -11c0 -7 -6 -11 -12 -11c-4 0 -8 1 -13 5z" />
    <glyph glyph-name="ocircumflex" unicode="&#xf4;" horiz-adv-x="576" 
d="M36 246c0 164 116 264 252 264c138 0 252 -96 252 -261c0 -164 -114 -261 -252 -261c-137 0 -252 93 -252 258zM88 246c0 -152 91 -232 200 -232c111 0 200 87 200 235c0 153 -91 235 -200 235c-111 0 -200 -89 -200 -238zM407 575l-111 82l-111 -82c-5 -4 -8 -5 -12 -5
c-5 0 -11 3 -11 10c0 4 2 8 6 12l116 102c5 5 10 6 15 6s10 -1 15 -6l110 -102c4 -4 6 -8 6 -12c0 -7 -6 -10 -11 -10c-4 0 -7 1 -12 5z" />
    <glyph glyph-name="odieresis" unicode="&#xf6;" horiz-adv-x="576" 
d="M36 246c0 164 116 264 252 264c138 0 252 -96 252 -261c0 -164 -114 -261 -252 -261c-137 0 -252 93 -252 258zM88 246c0 -152 91 -232 200 -232c111 0 200 87 200 235c0 153 -91 235 -200 235c-111 0 -200 -89 -200 -238zM186 599c-22 0 -33 13 -33 27c0 13 11 26 33 26
s33 -13 33 -26c0 -14 -11 -27 -33 -27zM395 599c-22 0 -33 13 -33 27c0 13 11 26 33 26s33 -13 33 -26c0 -14 -11 -27 -33 -27z" />
    <glyph glyph-name="otilde" unicode="&#xf5;" horiz-adv-x="576" 
d="M36 246c0 164 116 264 252 264c138 0 252 -96 252 -261c0 -164 -114 -261 -252 -261c-137 0 -252 93 -252 258zM88 246c0 -152 91 -232 200 -232c111 0 200 87 200 235c0 153 -91 235 -200 235c-111 0 -200 -89 -200 -238zM352 590c-25 0 -44 4 -82 27
c-20 12 -34 19 -51 19c-23 0 -37 -12 -50 -37c-3 -6 -6 -10 -13 -10c-8 0 -12 5 -12 10c0 6 2 10 5 16c15 30 39 53 78 53c25 0 45 -4 82 -27c21 -13 35 -19 52 -19c24 0 36 12 49 37c3 6 6 10 13 10c8 0 12 -5 12 -10c0 -6 -2 -10 -5 -16c-15 -30 -39 -53 -78 -53z" />
    <glyph glyph-name="uacute" unicode="&#xfa;" horiz-adv-x="573" 
d="M493 478v-458c0 -13 -10 -20 -23 -20c-12 0 -23 7 -23 20v87h-4c-33 -82 -103 -119 -178 -119c-133 0 -195 71 -195 199v291c0 13 10 20 23 20c12 0 23 -7 23 -20v-289c0 -89 31 -174 151 -174c104 0 180 81 180 204v259c0 13 10 20 23 20c12 0 23 -7 23 -20zM386 671
l-121 -96c-5 -4 -8 -5 -12 -5c-5 0 -11 3 -11 10c0 4 2 8 6 12l108 110c6 6 14 10 21 10c12 0 22 -7 22 -20c0 -9 -7 -16 -13 -21z" />
    <glyph glyph-name="ugrave" unicode="&#xf9;" horiz-adv-x="573" 
d="M493 478v-458c0 -13 -10 -20 -23 -20c-12 0 -23 7 -23 20v87h-4c-33 -82 -103 -119 -178 -119c-133 0 -195 71 -195 199v291c0 13 10 20 23 20c12 0 23 -7 23 -20v-289c0 -89 31 -174 151 -174c104 0 180 81 180 204v259c0 13 10 20 23 20c12 0 23 -7 23 -20zM301 575
l-121 96c-6 5 -13 12 -13 21c0 13 10 20 22 20c9 0 17 -4 23 -10l108 -110c4 -4 6 -7 6 -11c0 -7 -6 -11 -12 -11c-4 0 -8 1 -13 5z" />
    <glyph glyph-name="ucircumflex" unicode="&#xfb;" horiz-adv-x="573" 
d="M493 478v-458c0 -13 -10 -20 -23 -20c-12 0 -23 7 -23 20v87h-4c-33 -82 -103 -119 -178 -119c-133 0 -195 71 -195 199v291c0 13 10 20 23 20c12 0 23 -7 23 -20v-289c0 -89 31 -174 151 -174c104 0 180 81 180 204v259c0 13 10 20 23 20c12 0 23 -7 23 -20zM395 575
l-111 82l-111 -82c-5 -4 -8 -5 -12 -5c-5 0 -11 3 -11 10c0 4 2 8 6 12l116 102c5 5 10 6 15 6s10 -1 15 -6l110 -102c4 -4 6 -8 6 -12c0 -7 -6 -10 -11 -10c-4 0 -7 1 -12 5z" />
    <glyph glyph-name="udieresis" unicode="&#xfc;" horiz-adv-x="573" 
d="M493 478v-458c0 -13 -10 -20 -23 -20c-12 0 -23 7 -23 20v87h-4c-33 -82 -103 -119 -178 -119c-133 0 -195 71 -195 199v291c0 13 10 20 23 20c12 0 23 -7 23 -20v-289c0 -89 31 -174 151 -174c104 0 180 81 180 204v259c0 13 10 20 23 20c12 0 23 -7 23 -20zM178 599
c-22 0 -33 13 -33 27c0 13 11 26 33 26s33 -13 33 -26c0 -14 -11 -27 -33 -27zM387 599c-22 0 -33 13 -33 27c0 13 11 26 33 26s33 -13 33 -26c0 -14 -11 -27 -33 -27z" />
    <glyph glyph-name="dagger" unicode="&#x2020;" horiz-adv-x="514" 
d="M234 442h-179c-9 0 -15 5 -15 14s6 14 15 14h179v203c0 11 9 19 23 19c13 0 23 -8 23 -19v-203h179c9 0 15 -5 15 -14s-6 -14 -15 -14h-179v-540c0 -11 -9 -19 -23 -19c-13 0 -23 8 -23 19v540z" />
    <glyph glyph-name="degree" unicode="&#xb0;" horiz-adv-x="340" 
d="M42 594c0 70 58 126 130 126c77 0 130 -56 130 -126s-58 -126 -130 -126c-77 0 -130 56 -130 126zM74 594c0 -55 38 -100 98 -100c58 0 98 45 98 100s-38 100 -98 100c-58 0 -98 -45 -98 -100z" />
    <glyph glyph-name="cent" unicode="&#xa2;" horiz-adv-x="545" 
d="M46 247c0 139 89 256 235 261v90c0 11 7 16 17 16s17 -5 17 -16v-90c71 -6 129 -31 160 -76c4 -6 6 -12 6 -17c0 -9 -7 -20 -21 -20c-10 0 -17 5 -26 19c-31 51 -76 72 -143 72c-121 0 -196 -103 -196 -239c0 -132 67 -234 189 -234c57 0 107 14 154 64
c10 11 15 16 24 16c8 0 16 -6 16 -15c0 -4 -2 -8 -6 -13c-41 -47 -93 -69 -164 -75v-89c0 -11 -7 -16 -17 -16s-17 5 -17 16v89c-150 4 -228 114 -228 257z" />
    <glyph glyph-name="sterling" unicode="&#xa3;" horiz-adv-x="591" 
d="M392 327h-213c2 -20 4 -40 4 -60c0 -71 -6 -128 -42 -228h393c10 0 17 -6 17 -17c0 -10 -7 -18 -17 -18h-487c-10 0 -17 6 -17 17c0 10 7 18 17 18h61c30 84 36 137 36 199c0 24 -4 59 -10 89h-64c-9 0 -15 5 -15 14c0 8 6 14 15 14h59c-11 49 -22 101 -22 154
c0 129 96 211 227 211c70 0 159 -24 196 -72c5 -7 6 -11 6 -16c0 -12 -8 -19 -19 -19c-7 0 -13 2 -22 14c-40 55 -114 66 -163 66c-118 0 -176 -78 -176 -175c0 -57 11 -110 19 -163h217c9 0 15 -5 15 -14s-6 -14 -15 -14z" />
    <glyph glyph-name="section" unicode="&#xa7;" horiz-adv-x="544" 
d="M498 258c0 -73 -50 -131 -127 -159c55 -26 87 -64 87 -124c0 -97 -92 -154 -197 -154c-76 0 -159 25 -189 61c-5 6 -8 11 -8 16c0 13 9 19 20 19c7 0 17 -3 24 -13c29 -40 89 -58 154 -58c84 0 156 43 156 121c0 71 -63 97 -157 121c-157 40 -215 90 -215 195
c0 73 50 131 128 159c-56 27 -88 66 -88 127c0 97 92 151 197 151c76 0 154 -25 184 -61c5 -6 8 -11 8 -16c0 -13 -9 -19 -20 -19c-7 0 -17 3 -24 13c-29 40 -84 58 -149 58c-84 0 -156 -40 -156 -118c0 -72 63 -100 157 -124c157 -40 215 -90 215 -195zM260 412
c-20 5 -39 10 -56 17c-66 -20 -118 -67 -118 -142c0 -74 40 -119 198 -158c20 -5 39 -11 56 -17c66 20 118 67 118 142c0 74 -40 119 -198 158z" />
    <glyph glyph-name="bullet" unicode="&#x2022;" horiz-adv-x="304" 
d="M70 329c0 45 36 82 82 82c45 0 82 -37 82 -82c0 -46 -37 -82 -82 -82c-46 0 -82 36 -82 82z" />
    <glyph glyph-name="paragraph" unicode="&#xb6;" horiz-adv-x="665" 
d="M529 -201v881h-90v-881c0 -10 -10 -17 -20 -17c-12 0 -20 7 -20 17v881h-86v-401c0 -9 -9 -18 -18 -18c-147 0 -235 92 -235 221c0 126 94 224 258 224h220c21 0 31 -8 31 -23v-884c0 -10 -10 -17 -20 -17c-12 0 -20 7 -20 17z" />
    <glyph glyph-name="germandbls" unicode="&#xdf;" horiz-adv-x="625" 
d="M531 188c0 134 -82 192 -213 192h-13c-9 0 -15 5 -15 14c0 8 6 14 15 14h29c60 0 107 17 136 53c22 27 34 64 34 111c0 112 -88 162 -186 162c-111 0 -192 -75 -192 -225v-489c0 -13 -11 -20 -23 -20c-13 0 -23 7 -23 20v478c0 222 151 262 240 262
c115 0 230 -60 230 -188c0 -85 -54 -159 -152 -173v-3c116 -16 183 -93 183 -196c0 -108 -72 -212 -226 -212c-56 0 -112 11 -142 32c-5 3 -10 8 -10 16c0 11 8 17 17 17s14 -3 25 -10c29 -18 65 -30 112 -30c123 0 174 85 174 175z" />
    <glyph glyph-name="registered" unicode="&#xae;" horiz-adv-x="549" 
d="M225 488v-85c0 -7 -5 -11 -12 -11c-6 0 -12 4 -12 11v194c0 8 6 13 13 14c10 1 28 2 49 2c45 0 89 -15 89 -61c0 -36 -24 -57 -57 -61c17 -26 35 -54 54 -80c2 -3 3 -6 3 -9c0 -6 -6 -10 -12 -10s-10 4 -13 8c-16 23 -38 60 -54 88h-48zM266 503c41 0 61 14 61 49
c0 34 -31 45 -65 45c-14 0 -27 -1 -37 -2v-92h41zM84 500c0 -115 84 -200 191 -200c104 0 190 85 190 200c0 116 -84 200 -190 200c-105 0 -191 -84 -191 -200zM60 500c0 128 97 220 215 220s214 -92 214 -220s-98 -220 -214 -220c-122 0 -215 92 -215 220z" />
    <glyph glyph-name="copyright" unicode="&#xa9;" horiz-adv-x="905" 
d="M452 188c57 0 88 24 108 50c6 8 10 12 17 12c8 0 12 -6 12 -11c0 -4 -2 -8 -5 -12c-20 -27 -59 -61 -132 -61c-100 0 -167 68 -167 187c0 114 72 187 169 187c68 0 112 -25 132 -55c3 -4 4 -9 4 -12c0 -8 -5 -14 -15 -14c-7 0 -11 4 -17 13c-17 25 -47 46 -104 46
c-83 0 -132 -66 -132 -165c0 -102 50 -165 130 -165zM132 354c0 -194 142 -336 321 -336c176 0 320 142 320 336c0 195 -141 336 -320 336c-177 0 -321 -141 -321 -336zM98 354c0 211 161 366 355 366c195 0 354 -155 354 -366s-162 -366 -354 -366
c-202 0 -355 155 -355 366z" />
    <glyph glyph-name="trademark" unicode="&#x2122;" horiz-adv-x="712" 
d="M630 394v207c0 5 0 73 1 80h-3c-7 -16 -15 -34 -23 -49l-92 -176c-4 -7 -8 -11 -17 -11s-14 4 -17 11l-99 204l-9 21h-3c1 -12 1 -68 1 -80v-208c0 -8 -4 -14 -13 -14c-8 0 -12 6 -12 14v295c0 11 8 19 24 19s21 -6 26 -12c16 -20 82 -161 108 -217l106 212
c4 8 12 17 30 17c14 0 24 -6 24 -19v-294c0 -8 -6 -15 -16 -15s-16 7 -16 15zM30 706h234c7 0 10 -4 10 -10c0 -5 -3 -11 -10 -11h-101v-291c0 -8 -6 -15 -16 -15s-16 7 -16 15v291h-101c-7 0 -10 4 -10 10c0 5 3 11 10 11z" />
    <glyph glyph-name="acute" unicode="&#xb4;" horiz-adv-x="473" 
d="M309 671l-121 -96c-5 -4 -8 -5 -12 -5c-5 0 -11 3 -11 10c0 4 2 8 6 12l108 110c6 6 14 10 21 10c12 0 22 -7 22 -20c0 -9 -7 -16 -13 -21z" />
    <glyph glyph-name="dieresis" unicode="&#xa8;" horiz-adv-x="406" 
d="M96 599c-22 0 -33 13 -33 27c0 13 11 26 33 26s33 -13 33 -26c0 -14 -11 -27 -33 -27zM305 599c-22 0 -33 13 -33 27c0 13 11 26 33 26s33 -13 33 -26c0 -14 -11 -27 -33 -27z" />
    <glyph glyph-name="AE" unicode="&#xc6;" horiz-adv-x="985" 
d="M474 227h-292c-60 -93 -109 -171 -138 -218c-6 -9 -13 -13 -22 -13c-11 0 -19 7 -19 18c0 7 4 14 8 20c80 127 336 518 427 647c8 11 20 25 46 25h432c9 0 15 -7 15 -15c0 -9 -6 -15 -15 -15h-394v-288h342c9 0 15 -6 15 -15c0 -8 -6 -15 -15 -15h-342v-324h405
c10 0 16 -6 16 -15c0 -8 -7 -15 -16 -15h-429c-19 0 -24 9 -24 23v200zM474 257v419h-7l-266 -419h273z" />
    <glyph glyph-name="Oslash" unicode="&#xd8;" horiz-adv-x="764" 
d="M46 354c0 225 141 366 336 366c79 0 149 -22 204 -64l47 63c4 6 10 11 18 11c10 0 17 -5 17 -14c0 -5 -3 -10 -6 -14l-50 -67c66 -63 106 -158 106 -281c0 -225 -144 -366 -336 -366c-80 0 -150 21 -205 63l-46 -62c-4 -6 -10 -11 -18 -11c-10 0 -17 5 -17 14
c0 5 3 10 6 14l49 66c-66 63 -105 158 -105 282zM100 354c0 -105 27 -190 76 -248l387 519c-47 43 -108 67 -181 67c-174 0 -282 -135 -282 -338zM664 354c0 104 -28 188 -77 247l-387 -520c47 -42 108 -65 182 -65c172 0 282 134 282 338z" />
    <glyph glyph-name="mu" unicode="&#x3bc;" horiz-adv-x="573" 
d="M493 478v-458c0 -13 -10 -20 -23 -20c-12 0 -23 7 -23 20v88h-4c-33 -82 -103 -119 -178 -119c-56 0 -124 15 -154 71l-4 -1c2 -37 9 -191 9 -207v-50c0 -13 -10 -20 -23 -20c-12 0 -23 7 -23 20v676c0 13 10 20 23 20c12 0 23 -7 23 -20v-288c0 -56 5 -88 28 -120
s64 -54 123 -54c104 0 180 81 180 204v258c0 13 10 20 23 20c12 0 23 -7 23 -20z" />
    <glyph glyph-name="ordfeminine" unicode="&#xaa;" horiz-adv-x="450" 
d="M351 688c0 11 8 17 19 17s20 -6 20 -17v-321c0 -11 -8 -17 -20 -17c-10 0 -19 6 -19 17v55h-3c-30 -61 -89 -80 -136 -80c-102 0 -162 73 -162 180c0 113 73 188 174 188c63 0 105 -32 124 -69h3v47zM224 686c-78 0 -132 -67 -132 -164s47 -156 125 -156
c84 0 136 72 136 160c0 89 -39 160 -129 160z" />
    <glyph glyph-name="ordmasculine" unicode="&#xba;" horiz-adv-x="458" 
d="M50 525c0 117 82 185 179 185c99 0 179 -66 179 -183s-80 -185 -179 -185c-98 0 -179 65 -179 183zM92 525c0 -105 63 -159 137 -159c76 0 137 59 137 161c0 105 -63 159 -137 159c-76 0 -137 -59 -137 -161z" />
    <glyph glyph-name="ae" unicode="&#xe6;" horiz-adv-x="969" 
d="M36 243c0 159 101 267 243 267c109 0 162 -68 184 -125h3v93c0 13 10 20 23 20c12 0 23 -7 23 -20v-93h4c21 60 78 125 186 125c124 0 219 -78 219 -220v-11c0 -15 -8 -28 -29 -28h-380v-11c0 -128 70 -225 189 -225c72 0 115 19 160 66c12 12 16 14 24 14
c9 0 15 -6 15 -15c0 -4 -2 -8 -5 -12c-49 -54 -114 -80 -189 -80c-108 0 -161 56 -191 124h-3v-92c0 -13 -10 -20 -23 -20c-12 0 -23 7 -23 20v102h-3c-41 -104 -126 -134 -202 -134c-142 0 -225 105 -225 255zM86 243c0 -141 69 -229 183 -229c122 0 197 105 197 233
c0 130 -60 237 -187 237c-115 0 -193 -99 -193 -241zM514 278h362v10c0 140 -82 196 -175 196c-103 0 -177 -72 -187 -206z" />
    <glyph glyph-name="oslash" unicode="&#xf8;" horiz-adv-x="576" 
d="M36 246c0 164 116 264 252 264c54 0 105 -15 147 -44l36 48c4 5 9 11 17 11c9 0 16 -5 16 -13c0 -5 -3 -10 -6 -14l-39 -51c50 -44 81 -112 81 -198c0 -164 -114 -261 -252 -261c-55 0 -106 15 -148 43l-36 -47c-4 -5 -9 -11 -17 -11c-9 0 -16 5 -16 13c0 5 3 10 6 14
l38 50c-48 44 -79 110 -79 196zM88 246c0 -71 19 -126 51 -164l274 357c-34 30 -78 45 -125 45c-111 0 -200 -89 -200 -238zM488 249c0 72 -20 128 -53 167l-274 -357c35 -30 79 -45 127 -45c111 0 200 87 200 235z" />
    <glyph glyph-name="questiondown" unicode="&#xbf;" horiz-adv-x="495" 
d="M270 498c22 0 33 -15 33 -30c0 -14 -11 -29 -33 -29c-23 0 -33 15 -33 29c0 15 10 30 33 30zM256 -228c-129 0 -220 61 -220 172c0 78 52 135 139 198c63 46 81 73 83 137c0 10 4 16 13 16c8 0 12 -5 13 -14c1 -8 1 -14 1 -17c0 -61 -22 -103 -84 -151
c-86 -65 -115 -105 -115 -174c0 -90 67 -140 170 -140c66 0 132 28 174 88c8 12 15 16 23 16c11 0 18 -7 18 -17c0 -7 -3 -14 -8 -21c-40 -55 -124 -93 -207 -93z" />
    <glyph glyph-name="exclamdown" unicode="&#xa1;" horiz-adv-x="246" 
d="M123 -219c-15 0 -24 9 -24 24c0 16 1 59 2 85l8 390c0 8 6 14 14 14c9 0 14 -6 14 -14l8 -388c1 -26 2 -72 2 -87s-10 -24 -24 -24zM123 498c22 0 33 -15 33 -30c0 -14 -11 -29 -33 -29c-23 0 -33 15 -33 29c0 15 10 30 33 30z" />
    <glyph glyph-name="logicalnot" unicode="&#xac;" horiz-adv-x="550" 
d="M470 221c-8 0 -15 6 -15 15v165h-390c-9 0 -15 6 -15 15c0 8 6 15 15 15h400c12 0 20 -7 20 -18v-177c0 -9 -6 -15 -15 -15z" />
    <glyph glyph-name="guillemotleft" unicode="&#xab;" horiz-adv-x="412" 
d="M90 262l114 -170c4 -6 5 -9 5 -13c0 -6 -5 -11 -13 -11c-6 0 -10 3 -13 7l-127 161c-8 10 -11 15 -11 23s5 13 12 22l126 161c3 4 7 7 13 7c8 0 13 -5 13 -11c0 -4 -1 -7 -5 -13zM258 262l114 -170c4 -6 5 -9 5 -13c0 -6 -5 -11 -13 -11c-6 0 -10 3 -13 7l-127 161
c-8 10 -11 15 -11 23s5 13 12 22l126 161c3 4 7 7 13 7c8 0 13 -5 13 -11c0 -4 -1 -7 -5 -13z" />
    <glyph glyph-name="guillemotright" unicode="&#xbb;" horiz-adv-x="412" 
d="M322 255l-114 170c-4 6 -5 9 -5 13c0 6 5 11 13 11c6 0 10 -3 13 -7l127 -161c8 -10 11 -15 11 -23s-5 -13 -12 -22l-126 -161c-3 -4 -7 -7 -13 -7c-8 0 -13 5 -13 11c0 4 1 7 5 13zM154 255l-114 170c-4 6 -5 9 -5 13c0 6 5 11 13 11c6 0 10 -3 13 -7l127 -161
c8 -10 11 -15 11 -23s-5 -13 -12 -22l-126 -161c-3 -4 -7 -7 -13 -7c-8 0 -13 5 -13 11c0 4 1 7 5 13z" />
    <glyph glyph-name="ellipsis" unicode="&#x2026;" horiz-adv-x="474" 
d="M79 -6c-22 0 -33 15 -33 30c0 14 11 29 33 29c23 0 33 -15 33 -29c0 -15 -10 -30 -33 -30zM237 -6c-22 0 -33 15 -33 30c0 14 11 29 33 29c23 0 33 -15 33 -29c0 -15 -10 -30 -33 -30zM395 -6c-22 0 -33 15 -33 30c0 14 11 29 33 29c23 0 33 -15 33 -29
c0 -15 -10 -30 -33 -30z" />
    <glyph glyph-name="uni00A0" unicode="&#xa0;" horiz-adv-x="220" 
 />
    <glyph glyph-name="Agrave" unicode="&#xc0;" horiz-adv-x="635" 
d="M572 13l-78 216h-354c-43 -102 -65 -166 -85 -217c-4 -10 -12 -16 -22 -16c-14 0 -21 7 -21 18c0 4 1 10 4 17c59 141 219 513 286 656c7 14 14 25 40 25c21 0 31 -13 36 -25l241 -653c3 -7 4 -14 4 -18c0 -12 -10 -20 -24 -20c-11 0 -23 6 -27 17zM282 566l-129 -307
h331l-151 420h-4c-15 -38 -31 -76 -47 -113zM360 775l-121 96c-6 5 -13 12 -13 21c0 13 10 20 22 20c9 0 17 -4 23 -10l108 -110c4 -4 6 -7 6 -11c0 -7 -6 -11 -12 -11c-4 0 -8 1 -13 5z" />
    <glyph glyph-name="Atilde" unicode="&#xc3;" horiz-adv-x="635" 
d="M572 13l-78 216h-354c-43 -102 -65 -166 -85 -217c-4 -10 -12 -16 -22 -16c-14 0 -21 7 -21 18c0 4 1 10 4 17c59 141 219 513 286 656c7 14 14 25 40 25c21 0 31 -13 36 -25l241 -653c3 -7 4 -14 4 -18c0 -12 -10 -20 -24 -20c-11 0 -23 6 -27 17zM282 566l-129 -307
h331l-151 420h-4c-15 -38 -31 -76 -47 -113zM401 790c-25 0 -44 4 -82 27c-20 12 -34 19 -51 19c-23 0 -37 -12 -50 -37c-3 -6 -6 -10 -13 -10c-8 0 -12 5 -12 10c0 6 2 10 5 16c15 30 39 53 78 53c25 0 45 -4 82 -27c21 -13 35 -19 52 -19c24 0 36 12 49 37c3 6 6 10 13 10
c8 0 12 -5 12 -10c0 -6 -2 -10 -5 -16c-15 -30 -39 -53 -78 -53z" />
    <glyph glyph-name="Otilde" unicode="&#xd5;" horiz-adv-x="764" 
d="M46 354c0 225 141 366 336 366s336 -134 336 -366c0 -225 -144 -366 -336 -366c-197 0 -336 134 -336 366zM100 354c0 -208 108 -338 282 -338c172 0 282 134 282 338c0 207 -110 338 -282 338c-174 0 -282 -135 -282 -338zM464 790c-25 0 -44 4 -82 27
c-20 12 -34 19 -51 19c-23 0 -37 -12 -50 -37c-3 -6 -6 -10 -13 -10c-8 0 -12 5 -12 10c0 6 2 10 5 16c15 30 39 53 78 53c25 0 45 -4 82 -27c21 -13 35 -19 52 -19c24 0 36 12 49 37c3 6 6 10 13 10c8 0 12 -5 12 -10c0 -6 -2 -10 -5 -16c-15 -30 -39 -53 -78 -53z" />
    <glyph glyph-name="OE" unicode="&#x152;" horiz-adv-x="1173" 
d="M46 354c0 225 141 366 336 366c126 0 221 -53 276 -159h4v105c0 27 19 40 46 40h396c9 0 15 -7 15 -15c0 -9 -6 -15 -15 -15h-394v-288h342c9 0 15 -6 15 -15c0 -8 -6 -15 -15 -15h-342v-324h405c10 0 16 -6 16 -15c0 -8 -7 -15 -16 -15h-429c-19 0 -24 9 -24 23v124h-4
c-55 -108 -151 -163 -276 -163c-197 0 -336 134 -336 366zM100 354c0 -208 108 -338 282 -338c172 0 282 124 282 338c0 217 -110 338 -282 338c-174 0 -282 -135 -282 -338z" />
    <glyph glyph-name="oe" unicode="&#x153;" horiz-adv-x="990" 
d="M36 246c0 164 116 264 252 264c102 0 184 -49 221 -158h4c35 103 108 158 212 158c124 0 219 -78 219 -220v-11c0 -15 -8 -28 -29 -28h-381v-11c0 -128 65 -225 185 -225c72 0 120 19 165 66c12 12 16 14 24 14c9 0 15 -6 15 -15c0 -4 -2 -8 -5 -12
c-49 -54 -116 -80 -201 -80c-103 0 -174 50 -207 150h-4c-38 -102 -119 -150 -218 -150c-137 0 -252 93 -252 258zM88 246c0 -152 91 -232 200 -232c111 0 200 80 200 235c0 158 -91 235 -200 235c-111 0 -200 -89 -200 -238zM536 278h363v10c0 140 -82 196 -175 196
c-103 0 -177 -74 -188 -206z" />
    <glyph glyph-name="endash" unicode="&#x2013;" horiz-adv-x="586" 
d="M65 301h456c9 0 15 -6 15 -15c0 -8 -6 -15 -15 -15h-456c-9 0 -15 6 -15 15c0 8 6 15 15 15z" />
    <glyph glyph-name="emdash" unicode="&#x2014;" horiz-adv-x="723" 
d="M-14 301h751v-30h-751v30z" />
    <glyph glyph-name="quotedblleft" unicode="&#x201c;" horiz-adv-x="240" 
d="M146 542c0 43 11 107 25 156c2 8 6 12 13 12s11 -4 11 -13c0 -5 -2 -20 -3 -28c-3 -22 -5 -73 -5 -98c0 -11 1 -21 1 -29c0 -15 -9 -22 -21 -22c-14 0 -21 9 -21 22zM35 542c0 43 11 107 25 156c2 8 6 12 13 12s11 -4 11 -13c0 -5 -2 -20 -3 -28c-3 -22 -5 -73 -5 -98
c0 -11 1 -21 1 -29c0 -15 -9 -22 -21 -22c-14 0 -21 9 -21 22z" />
    <glyph glyph-name="quotedblright" unicode="&#x201d;" horiz-adv-x="240" 
d="M94 688c0 -43 -11 -107 -25 -156c-2 -8 -6 -12 -13 -12s-11 4 -11 13c0 5 2 20 3 28c3 22 5 73 5 98c0 11 -1 21 -1 29c0 15 9 22 21 22c14 0 21 -9 21 -22zM205 688c0 -43 -11 -107 -25 -156c-2 -8 -6 -12 -13 -12s-11 4 -11 13c0 5 2 20 3 28c3 22 5 73 5 98
c0 11 -1 21 -1 29c0 15 9 22 21 22c14 0 21 -9 21 -22z" />
    <glyph glyph-name="quoteleft" unicode="&#x2018;" horiz-adv-x="129" 
d="M35 542c0 43 11 107 25 156c2 8 6 12 13 12s11 -4 11 -13c0 -5 -2 -20 -3 -28c-3 -22 -5 -73 -5 -98c0 -11 1 -21 1 -29c0 -15 -9 -22 -21 -22c-14 0 -21 9 -21 22z" />
    <glyph glyph-name="quoteright" unicode="&#x2019;" horiz-adv-x="129" 
d="M94 688c0 -43 -11 -107 -25 -156c-2 -8 -6 -12 -13 -12s-11 4 -11 13c0 5 2 20 3 28c3 22 5 73 5 98c0 11 -1 21 -1 29c0 15 9 22 21 22c14 0 21 -9 21 -22z" />
    <glyph glyph-name="divide" unicode="&#xf7;" horiz-adv-x="545" 
d="M65 341h415c9 0 15 -6 15 -15c0 -8 -6 -15 -15 -15h-415c-9 0 -15 6 -15 15c0 8 6 15 15 15zM272 479c-22 0 -33 15 -33 30c0 14 11 29 33 29c23 0 33 -15 33 -29c0 -15 -10 -30 -33 -30zM272 113c-22 0 -33 15 -33 30c0 14 11 29 33 29c23 0 33 -15 33 -29
c0 -15 -10 -30 -33 -30z" />
    <glyph glyph-name="ydieresis" unicode="&#xff;" horiz-adv-x="464" 
d="M53 481l140 -357c13 -34 21 -52 36 -94h3l31 72c49 112 78 179 109 260c13 34 28 75 44 120c4 10 11 16 21 16c14 0 22 -7 23 -18c0 -4 -1 -10 -4 -17c-45 -106 -101 -229 -160 -357c-51 -111 -104 -225 -147 -305c-7 -12 -14 -19 -25 -19c-10 0 -19 7 -19 18
c0 8 3 15 9 24c49 76 66 105 94 158l-17 37l-182 441c-3 7 -5 12 -5 18c0 12 10 20 24 20c11 0 21 -6 25 -17zM135 599c-22 0 -33 13 -33 27c0 13 11 26 33 26s33 -13 33 -26c0 -14 -11 -27 -33 -27zM344 599c-22 0 -33 13 -33 27c0 13 11 26 33 26s33 -13 33 -26
c0 -14 -11 -27 -33 -27z" />
    <glyph glyph-name="Ydieresis" unicode="&#x178;" horiz-adv-x="550" 
d="M21 710c15 0 23 -6 31 -19l227 -377c49 78 118 187 153 248c51 89 61 110 74 131c7 11 14 17 25 17c8 0 19 -4 19 -16c0 -5 -3 -12 -9 -22c-61 -101 -180 -285 -248 -382v-268c0 -13 -10 -22 -24 -22c-15 0 -24 9 -24 22v268l-239 386c-5 8 -6 11 -6 16c0 11 10 18 21 18
zM176 799c-22 0 -33 13 -33 27c0 13 11 26 33 26s33 -13 33 -26c0 -14 -11 -27 -33 -27zM385 799c-22 0 -33 13 -33 27c0 13 11 26 33 26s33 -13 33 -26c0 -14 -11 -27 -33 -27z" />
    <glyph glyph-name="fraction" unicode="&#x2044;" horiz-adv-x="390" 
d="M-90 -34l511 752c3 5 9 10 17 10c10 0 19 -6 19 -15c0 -4 -1 -8 -5 -14l-511 -752c-3 -5 -9 -10 -17 -10c-10 0 -19 6 -19 15c0 4 1 8 5 14z" />
    <glyph glyph-name="Euro" unicode="&#x20ac;" horiz-adv-x="642" 
d="M394 -12c-131 0 -245 77 -275 265h-74c-9 0 -15 5 -15 14c0 8 6 14 15 14h71c-3 23 -4 47 -4 73c0 20 1 40 3 59h-70c-9 0 -15 5 -15 14c0 8 6 14 15 14h74c31 186 162 279 287 279c87 0 155 -24 196 -78c5 -7 8 -13 8 -21c0 -9 -8 -18 -19 -18c-8 0 -15 3 -24 15
c-42 56 -90 75 -162 75c-92 0 -210 -75 -239 -252h237c9 0 15 -5 15 -14s-6 -14 -15 -14h-240c-2 -19 -3 -39 -3 -59c0 -26 1 -51 3 -73h180c9 0 15 -5 15 -14s-6 -14 -15 -14h-176c25 -165 115 -237 229 -237c61 0 121 20 169 69c11 12 19 17 27 17c9 0 18 -6 18 -16
c0 -7 -3 -13 -8 -18c-48 -54 -135 -80 -208 -80z" />
    <glyph glyph-name="guilsinglleft" unicode="&#x2039;" horiz-adv-x="244" 
d="M90 262l114 -170c4 -6 5 -9 5 -13c0 -6 -5 -11 -13 -11c-6 0 -10 3 -13 7l-127 161c-8 10 -11 15 -11 23s4 14 11 23l127 160c3 4 7 7 13 7c8 0 13 -5 13 -11c0 -4 -1 -7 -5 -13z" />
    <glyph glyph-name="guilsinglright" unicode="&#x203a;" horiz-adv-x="244" 
d="M154 255l-114 170c-4 6 -5 9 -5 13c0 6 5 11 13 11c6 0 10 -3 13 -7l127 -161c8 -10 11 -15 11 -23s-4 -14 -11 -23l-127 -160c-3 -4 -7 -7 -13 -7c-8 0 -13 5 -13 11c0 4 1 7 5 13z" />
    <glyph glyph-name="daggerdbl" unicode="&#x2021;" horiz-adv-x="534" 
d="M244 442h-179c-9 0 -15 5 -15 14s6 14 15 14h179v203c0 11 9 19 23 19c13 0 23 -8 23 -19v-203h179c9 0 15 -5 15 -14s-6 -14 -15 -14h-179v-309h179c9 0 15 -5 15 -14s-6 -14 -15 -14h-179v-203c0 -11 -9 -19 -23 -19c-13 0 -23 8 -23 19v203h-179c-9 0 -15 5 -15 14
s6 14 15 14h179v309z" />
    <glyph glyph-name="periodcentered" unicode="&#xb7;" horiz-adv-x="186" 
d="M93 298c-22 0 -33 15 -33 30c0 14 11 29 33 29c23 0 33 -15 33 -29c0 -15 -10 -30 -33 -30z" />
    <glyph glyph-name="quotesinglbase" unicode="&#x201a;" horiz-adv-x="137" 
d="M93 31c0 -43 -11 -107 -25 -156c-2 -8 -6 -12 -13 -12s-11 4 -11 13c0 5 2 20 3 28c3 22 5 73 5 98c0 11 -1 21 -1 29c0 15 9 22 21 22c14 0 21 -9 21 -22z" />
    <glyph glyph-name="quotedblbase" unicode="&#x201e;" horiz-adv-x="248" 
d="M93 31c0 -43 -11 -107 -25 -156c-2 -8 -6 -12 -13 -12s-11 4 -11 13c0 5 2 20 3 28c3 22 5 73 5 98c0 11 -1 21 -1 29c0 15 9 22 21 22c14 0 21 -9 21 -22zM204 31c0 -43 -11 -107 -25 -156c-2 -8 -6 -12 -13 -12s-11 4 -11 13c0 5 2 20 3 28c3 22 5 73 5 98
c0 11 -1 21 -1 29c0 15 9 22 21 22c14 0 21 -9 21 -22z" />
    <glyph glyph-name="perthousand" unicode="&#x2030;" horiz-adv-x="1171" 
d="M126 19l495 679c4 5 10 12 19 12c11 0 20 -8 20 -16c0 -5 -1 -8 -6 -15l-495 -679c-4 -6 -10 -12 -19 -12c-11 0 -20 8 -20 16c0 5 1 8 6 15zM35 535c0 109 69 181 161 181c94 0 161 -61 161 -173c0 -109 -67 -180 -161 -180c-95 0 -161 59 -161 172zM79 535
c0 -100 49 -149 117 -149c72 0 117 62 117 157c0 102 -49 150 -117 150c-72 0 -117 -63 -117 -158zM752 175c0 -109 -69 -181 -161 -181c-96 0 -161 61 -161 173c0 109 67 180 161 180c93 0 161 -59 161 -172zM708 175c0 100 -49 149 -117 149c-72 0 -117 -62 -117 -157
c0 -102 49 -150 117 -150c72 0 117 63 117 158zM1136 175c0 -109 -69 -181 -161 -181c-96 0 -161 61 -161 173c0 109 67 180 161 180c93 0 161 -59 161 -172zM1092 175c0 100 -49 149 -117 149c-72 0 -117 -62 -117 -157c0 -102 49 -150 117 -150c72 0 117 63 117 158z" />
    <glyph glyph-name="Acircumflex" unicode="&#xc2;" horiz-adv-x="635" 
d="M572 13l-78 216h-354c-43 -102 -65 -166 -85 -217c-4 -10 -12 -16 -22 -16c-14 0 -21 7 -21 18c0 4 1 10 4 17c59 141 219 513 286 656c7 14 14 25 40 25c21 0 31 -13 36 -25l241 -653c3 -7 4 -14 4 -18c0 -12 -10 -20 -24 -20c-11 0 -23 6 -27 17zM282 566l-129 -307
h331l-151 420h-4c-15 -38 -31 -76 -47 -113zM451 775l-111 82l-111 -82c-5 -4 -8 -5 -12 -5c-5 0 -11 3 -11 10c0 4 2 8 6 12l116 102c5 5 10 6 15 6s10 -1 15 -6l110 -102c4 -4 6 -8 6 -12c0 -7 -6 -10 -11 -10c-4 0 -7 1 -12 5z" />
    <glyph glyph-name="Ecircumflex" unicode="&#xca;" horiz-adv-x="607" 
d="M96 27v639c0 27 19 40 46 40h396c9 0 15 -7 15 -15c0 -9 -6 -15 -15 -15h-394v-288h342c9 0 15 -6 15 -15c0 -8 -6 -15 -15 -15h-342v-324h405c10 0 16 -6 16 -15c0 -8 -7 -15 -16 -15h-429c-19 0 -24 9 -24 23zM451 775l-111 82l-111 -82c-5 -4 -8 -5 -12 -5
c-5 0 -11 3 -11 10c0 4 2 8 6 12l116 102c5 5 10 6 15 6s10 -1 15 -6l110 -102c4 -4 6 -8 6 -12c0 -7 -6 -10 -11 -10c-4 0 -7 1 -12 5z" />
    <glyph glyph-name="Aacute" unicode="&#xc1;" horiz-adv-x="635" 
d="M572 13l-78 216h-354c-43 -102 -65 -166 -85 -217c-4 -10 -12 -16 -22 -16c-14 0 -21 7 -21 18c0 4 1 10 4 17c59 141 219 513 286 656c7 14 14 25 40 25c21 0 31 -13 36 -25l241 -653c3 -7 4 -14 4 -18c0 -12 -10 -20 -24 -20c-11 0 -23 6 -27 17zM282 566l-129 -307
h331l-151 420h-4c-15 -38 -31 -76 -47 -113zM433 871l-121 -96c-5 -4 -8 -5 -12 -5c-5 0 -11 3 -11 10c0 4 2 8 6 12l108 110c6 6 14 10 21 10c12 0 22 -7 22 -20c0 -9 -7 -16 -13 -21z" />
    <glyph glyph-name="Edieresis" unicode="&#xcb;" horiz-adv-x="607" 
d="M96 27v639c0 27 19 40 46 40h396c9 0 15 -7 15 -15c0 -9 -6 -15 -15 -15h-394v-288h342c9 0 15 -6 15 -15c0 -8 -6 -15 -15 -15h-342v-324h405c10 0 16 -6 16 -15c0 -8 -7 -15 -16 -15h-429c-19 0 -24 9 -24 23zM221 799c-22 0 -33 13 -33 27c0 13 11 26 33 26
s33 -13 33 -26c0 -14 -11 -27 -33 -27zM430 799c-22 0 -33 13 -33 27c0 13 11 26 33 26s33 -13 33 -26c0 -14 -11 -27 -33 -27z" />
    <glyph glyph-name="Egrave" unicode="&#xc8;" horiz-adv-x="607" 
d="M96 27v639c0 27 19 40 46 40h396c9 0 15 -7 15 -15c0 -9 -6 -15 -15 -15h-394v-288h342c9 0 15 -6 15 -15c0 -8 -6 -15 -15 -15h-342v-324h405c10 0 16 -6 16 -15c0 -8 -7 -15 -16 -15h-429c-19 0 -24 9 -24 23zM360 775l-121 96c-6 5 -13 12 -13 21c0 13 10 20 22 20
c9 0 17 -4 23 -10l108 -110c4 -4 6 -7 6 -11c0 -7 -6 -11 -12 -11c-4 0 -8 1 -13 5z" />
    <glyph glyph-name="Iacute" unicode="&#xcd;" horiz-adv-x="240" 
d="M144 688v-666c0 -13 -10 -22 -24 -22c-15 0 -24 9 -24 22v666c0 13 10 22 24 22c15 0 24 -9 24 -22zM225 871l-121 -96c-5 -4 -8 -5 -12 -5c-5 0 -11 3 -11 10c0 4 2 8 6 12l108 110c6 6 14 10 21 10c12 0 22 -7 22 -20c0 -9 -7 -16 -13 -21z" />
    <glyph glyph-name="Icircumflex" unicode="&#xce;" horiz-adv-x="240" 
d="M144 688v-666c0 -13 -10 -22 -24 -22c-15 0 -24 9 -24 22v666c0 13 10 22 24 22c15 0 24 -9 24 -22zM231 775l-111 82l-111 -82c-5 -4 -8 -5 -12 -5c-5 0 -11 3 -11 10c0 4 2 8 6 12l116 102c5 5 10 6 15 6s10 -1 15 -6l110 -102c4 -4 6 -8 6 -12c0 -7 -6 -10 -11 -10
c-4 0 -7 1 -12 5z" />
    <glyph glyph-name="Idieresis" unicode="&#xcf;" horiz-adv-x="240" 
d="M144 688v-666c0 -13 -10 -22 -24 -22c-15 0 -24 9 -24 22v666c0 13 10 22 24 22c15 0 24 -9 24 -22zM16 799c-22 0 -33 13 -33 27c0 13 11 26 33 26s33 -13 33 -26c0 -14 -11 -27 -33 -27zM225 799c-22 0 -33 13 -33 27c0 13 11 26 33 26s33 -13 33 -26
c0 -14 -11 -27 -33 -27z" />
    <glyph glyph-name="Igrave" unicode="&#xcc;" horiz-adv-x="240" 
d="M144 688v-666c0 -13 -10 -22 -24 -22c-15 0 -24 9 -24 22v666c0 13 10 22 24 22c15 0 24 -9 24 -22zM143 775l-121 96c-6 5 -13 12 -13 21c0 13 10 20 22 20c9 0 17 -4 23 -10l108 -110c4 -4 6 -7 6 -11c0 -7 -6 -11 -12 -11c-4 0 -8 1 -13 5z" />
    <glyph glyph-name="Oacute" unicode="&#xd3;" horiz-adv-x="764" 
d="M46 354c0 225 141 366 336 366s336 -134 336 -366c0 -225 -144 -366 -336 -366c-197 0 -336 134 -336 366zM100 354c0 -208 108 -338 282 -338c172 0 282 134 282 338c0 207 -110 338 -282 338c-174 0 -282 -135 -282 -338zM482 871l-121 -96c-5 -4 -8 -5 -12 -5
c-5 0 -11 3 -11 10c0 4 2 8 6 12l108 110c6 6 14 10 21 10c12 0 22 -7 22 -20c0 -9 -7 -16 -13 -21z" />
    <glyph glyph-name="Ocircumflex" unicode="&#xd4;" horiz-adv-x="764" 
d="M46 354c0 225 141 366 336 366s336 -134 336 -366c0 -225 -144 -366 -336 -366c-197 0 -336 134 -336 366zM100 354c0 -208 108 -338 282 -338c172 0 282 134 282 338c0 207 -110 338 -282 338c-174 0 -282 -135 -282 -338zM501 775l-111 82l-111 -82c-5 -4 -8 -5 -12 -5
c-5 0 -11 3 -11 10c0 4 2 8 6 12l116 102c5 5 10 6 15 6s10 -1 15 -6l110 -102c4 -4 6 -8 6 -12c0 -7 -6 -10 -11 -10c-4 0 -7 1 -12 5z" />
    <glyph glyph-name="Ograve" unicode="&#xd2;" horiz-adv-x="764" 
d="M46 354c0 225 141 366 336 366s336 -134 336 -366c0 -225 -144 -366 -336 -366c-197 0 -336 134 -336 366zM100 354c0 -208 108 -338 282 -338c172 0 282 134 282 338c0 207 -110 338 -282 338c-174 0 -282 -135 -282 -338zM421 775l-121 96c-6 5 -13 12 -13 21
c0 13 10 20 22 20c9 0 17 -4 23 -10l108 -110c4 -4 6 -7 6 -11c0 -7 -6 -11 -12 -11c-4 0 -8 1 -13 5z" />
    <glyph glyph-name="Uacute" unicode="&#xda;" horiz-adv-x="701" 
d="M80 277v411c0 13 10 22 24 22c15 0 24 -9 24 -22v-421c0 -139 61 -251 224 -251c133 0 227 85 227 245v429c0 13 9 20 21 20c13 0 21 -7 21 -20v-426c0 -140 -79 -276 -269 -276c-185 0 -272 101 -272 289zM456 871l-121 -96c-5 -4 -8 -5 -12 -5c-5 0 -11 3 -11 10
c0 4 2 8 6 12l108 110c6 6 14 10 21 10c12 0 22 -7 22 -20c0 -9 -7 -16 -13 -21z" />
    <glyph glyph-name="Ucircumflex" unicode="&#xdb;" horiz-adv-x="701" 
d="M80 277v411c0 13 10 22 24 22c15 0 24 -9 24 -22v-421c0 -139 61 -251 224 -251c133 0 227 85 227 245v429c0 13 9 20 21 20c13 0 21 -7 21 -20v-426c0 -140 -79 -276 -269 -276c-185 0 -272 101 -272 289zM471 775l-111 82l-111 -82c-5 -4 -8 -5 -12 -5
c-5 0 -11 3 -11 10c0 4 2 8 6 12l116 102c5 5 10 6 15 6s10 -1 15 -6l110 -102c4 -4 6 -8 6 -12c0 -7 -6 -10 -11 -10c-4 0 -7 1 -12 5z" />
    <glyph glyph-name="Ugrave" unicode="&#xd9;" horiz-adv-x="701" 
d="M80 277v411c0 13 10 22 24 22c15 0 24 -9 24 -22v-421c0 -139 61 -251 224 -251c133 0 227 85 227 245v429c0 13 9 20 21 20c13 0 21 -7 21 -20v-426c0 -140 -79 -276 -269 -276c-185 0 -272 101 -272 289zM385 775l-121 96c-6 5 -13 12 -13 21c0 13 10 20 22 20
c9 0 17 -4 23 -10l108 -110c4 -4 6 -7 6 -11c0 -7 -6 -11 -12 -11c-4 0 -8 1 -13 5z" />
    <glyph glyph-name="dotlessi" unicode="&#x131;" 
d="M80 20v458c0 13 10 20 23 20c12 0 23 -7 23 -20v-458c0 -13 -10 -20 -23 -20c-12 0 -23 7 -23 20z" />
    <glyph glyph-name="circumflex" unicode="&#x2c6;" horiz-adv-x="487" 
d="M368 575l-111 82l-111 -82c-5 -4 -8 -5 -12 -5c-5 0 -11 3 -11 10c0 4 2 8 6 12l116 102c5 5 10 6 15 6s10 -1 15 -6l110 -102c4 -4 6 -8 6 -12c0 -7 -6 -10 -11 -10c-4 0 -7 1 -12 5z" />
    <glyph glyph-name="tilde" unicode="&#x2dc;" horiz-adv-x="520" 
d="M322 590c-25 0 -44 4 -82 27c-20 12 -34 19 -51 19c-23 0 -37 -12 -50 -37c-3 -6 -6 -10 -13 -10c-8 0 -12 5 -12 10c0 6 2 10 5 16c15 30 39 53 78 53c25 0 45 -4 82 -27c21 -13 35 -19 52 -19c24 0 36 12 49 37c3 6 6 10 13 10c8 0 12 -5 12 -10c0 -6 -2 -10 -5 -16
c-15 -30 -39 -53 -78 -53z" />
    <glyph glyph-name="ring" unicode="&#x2da;" horiz-adv-x="520" 
d="M175 641c0 48 38 84 85 84c50 0 84 -36 84 -84s-37 -84 -84 -84c-53 0 -85 36 -85 84zM202 641c0 -35 21 -62 58 -62c32 0 57 26 57 62c0 34 -21 62 -57 62c-33 0 -58 -27 -58 -62z" />
    <glyph glyph-name="cedilla" unicode="&#xb8;" horiz-adv-x="455" 
d="M260 -82c0 -43 -11 -82 -30 -109c-4 -6 -8 -9 -13 -9c-6 0 -11 3 -11 10s3 14 6 22c5 14 9 31 9 56c0 11 -2 22 -2 30c0 15 8 22 20 22c14 0 21 -9 21 -22z" />
    <glyph glyph-name="acute.cap" horiz-adv-x="531" 
d="M367 871l-121 -96c-5 -4 -8 -5 -12 -5c-5 0 -11 3 -11 10c0 4 2 8 6 12l108 110c6 6 14 10 21 10c12 0 22 -7 22 -20c0 -9 -7 -16 -13 -21z" />
    <glyph glyph-name="grave.cap" horiz-adv-x="483" 
d="M305 775l-121 96c-6 5 -13 12 -13 21c0 13 10 20 22 20c9 0 17 -4 23 -10l108 -110c4 -4 6 -7 6 -11c0 -7 -6 -11 -12 -11c-4 0 -8 1 -13 5z" />
    <glyph glyph-name="circumflex.cap" horiz-adv-x="487" 
d="M368 775l-111 82l-111 -82c-5 -4 -8 -5 -12 -5c-5 0 -11 3 -11 10c0 4 2 8 6 12l116 102c5 5 10 6 15 6s10 -1 15 -6l110 -102c4 -4 6 -8 6 -12c0 -7 -6 -10 -11 -10c-4 0 -7 1 -12 5z" />
    <glyph glyph-name="dieresis.cap" horiz-adv-x="493" 
d="M137 799c-22 0 -33 13 -33 27c0 13 11 26 33 26s33 -13 33 -26c0 -14 -11 -27 -33 -27zM346 799c-22 0 -33 13 -33 27c0 13 11 26 33 26s33 -13 33 -26c0 -14 -11 -27 -33 -27z" />
    <glyph glyph-name="ring.cap" horiz-adv-x="520" 
d="M175 828c0 48 38 84 85 84c50 0 84 -36 84 -84s-37 -84 -84 -84c-53 0 -85 36 -85 84zM202 828c0 -35 21 -62 58 -62c32 0 57 26 57 62c0 34 -21 62 -57 62c-33 0 -58 -27 -58 -62z" />
    <glyph glyph-name="tilde.cap" horiz-adv-x="520" 
d="M322 790c-25 0 -44 4 -82 27c-20 12 -34 19 -51 19c-23 0 -37 -12 -50 -37c-3 -6 -6 -10 -13 -10c-8 0 -12 5 -12 10c0 6 2 10 5 16c15 30 39 53 78 53c25 0 45 -4 82 -27c21 -13 35 -19 52 -19c24 0 36 12 49 37c3 6 6 10 13 10c8 0 12 -5 12 -10c0 -6 -2 -10 -5 -16
c-15 -30 -39 -53 -78 -53z" />
    <glyph glyph-name="cedilla.alt" horiz-adv-x="455" 
d="M193 -57l30 71l23 -6l-21 -58c43 -6 80 -24 80 -70s-35 -72 -89 -72c-14 0 -40 3 -54 10c-7 3 -12 7 -12 14s5 12 11 12c5 0 8 -1 13 -3c18 -8 32 -10 44 -10c31 0 56 12 56 42c0 26 -24 40 -69 43c-9 1 -15 6 -15 14c0 4 1 7 3 13z" />
    <glyph glyph-name="estimated" unicode="&#x212e;" horiz-adv-x="602" 
d="M149 254v-150c0 -9 5 -17 9 -23c35 -46 92 -67 154 -67c77 0 155 32 189 99h33c-44 -93 -141 -125 -223 -125c-149 0 -251 109 -251 260c0 149 112 262 243 262c132 0 239 -96 239 -246v-10h-393zM149 280h310v114c0 10 -4 17 -8 24c-34 46 -88 66 -147 66
c-57 0 -112 -23 -146 -67c-4 -6 -9 -14 -9 -25v-112z" />
    <glyph glyph-name="registered.alt" horiz-adv-x="905" 
d="M367 333v-143c0 -9 -7 -14 -16 -14s-16 5 -16 14v327c0 10 7 16 17 17c22 2 50 3 85 3c74 0 140 -25 140 -100c0 -61 -40 -94 -97 -100c28 -43 61 -92 93 -136c3 -4 5 -7 5 -11c0 -9 -10 -14 -17 -14s-12 3 -16 9c-28 40 -67 103 -95 148h-83zM439 355
c68 0 107 20 107 82c0 61 -52 78 -111 78c-24 0 -51 -1 -68 -2v-157c28 -1 52 -1 72 -1zM132 354c0 -194 142 -336 321 -336c176 0 320 142 320 336c0 195 -141 336 -320 336c-177 0 -321 -141 -321 -336zM98 354c0 211 161 366 355 366c195 0 354 -155 354 -366
s-162 -366 -354 -366c-202 0 -355 155 -355 366z" />
    <glyph glyph-name="two.deno" horiz-adv-x="378" 
d="M294 344c0 52 -29 88 -101 88c-46 0 -84 -22 -110 -58c-6 -8 -12 -11 -18 -11c-8 0 -14 5 -14 14c0 8 4 14 10 21c26 31 80 56 132 56c89 0 143 -42 143 -108c0 -57 -44 -104 -104 -157l-41 -36c-55 -47 -92 -79 -125 -115v-2h257c9 0 15 -6 15 -15c0 -10 -6 -17 -15 -17
h-276c-15 0 -17 13 -17 19c0 8 5 16 11 23c36 44 86 90 133 130c75 65 120 106 120 168z" />
    <glyph glyph-name="four.deno" horiz-adv-x="422" 
d="M277 108h-219c-14 0 -18 10 -18 16c0 5 1 12 6 20c17 27 41 58 63 87c44 59 95 126 151 198c9 11 17 17 30 17c20 0 27 -9 27 -22v-286h54c9 0 14 -6 14 -14c0 -9 -5 -16 -14 -16h-54v-90c0 -10 -7 -18 -20 -18c-12 0 -20 8 -20 18v90zM277 138v130c0 7 1 119 3 148h-2
c-14 -21 -41 -59 -57 -81l-93 -124l-54 -70v-3h203z" />
    <glyph glyph-name="a.alt" horiz-adv-x="516" 
d="M253 510c158 0 193 -86 193 -214v-277c0 -11 -8 -19 -21 -19s-22 8 -22 19v78h-3c-35 -69 -96 -109 -184 -109c-111 0 -176 55 -176 140c0 84 68 158 201 158c49 0 101 -8 158 -29v69c0 95 -30 160 -146 160c-47 0 -96 -12 -140 -73c-5 -7 -13 -14 -23 -14
c-11 0 -19 7 -19 19c0 8 5 18 13 27c28 32 97 65 169 65zM89 131c0 -78 54 -118 138 -118c106 0 172 82 172 159v60c-50 20 -99 29 -148 29c-104 0 -162 -51 -162 -130z" />
    <glyph glyph-name="aacute.alt" horiz-adv-x="516" 
d="M253 510c158 0 193 -86 193 -214v-277c0 -11 -8 -19 -21 -19s-22 8 -22 19v78h-3c-35 -69 -96 -109 -184 -109c-111 0 -176 55 -176 140c0 84 68 158 201 158c49 0 101 -8 158 -29v69c0 95 -30 160 -146 160c-47 0 -96 -12 -140 -73c-5 -7 -13 -14 -23 -14
c-11 0 -19 7 -19 19c0 8 5 18 13 27c28 32 97 65 169 65zM89 131c0 -78 54 -118 138 -118c106 0 172 82 172 159v60c-50 20 -99 29 -148 29c-104 0 -162 -51 -162 -130zM350 671l-121 -96c-5 -4 -8 -5 -12 -5c-5 0 -11 3 -11 10c0 4 2 8 6 12l108 110c6 6 14 10 21 10
c12 0 22 -7 22 -20c0 -9 -7 -16 -13 -21z" />
    <glyph glyph-name="agrave.alt" horiz-adv-x="516" 
d="M253 510c158 0 193 -86 193 -214v-277c0 -11 -8 -19 -21 -19s-22 8 -22 19v78h-3c-35 -69 -96 -109 -184 -109c-111 0 -176 55 -176 140c0 84 68 158 201 158c49 0 101 -8 158 -29v69c0 95 -30 160 -146 160c-47 0 -96 -12 -140 -73c-5 -7 -13 -14 -23 -14
c-11 0 -19 7 -19 19c0 8 5 18 13 27c28 32 97 65 169 65zM89 131c0 -78 54 -118 138 -118c106 0 172 82 172 159v60c-50 20 -99 29 -148 29c-104 0 -162 -51 -162 -130zM284 575l-121 96c-6 5 -13 12 -13 21c0 13 10 20 22 20c9 0 17 -4 23 -10l108 -110c4 -4 6 -7 6 -11
c0 -7 -6 -11 -12 -11c-4 0 -8 1 -13 5z" />
    <glyph glyph-name="acircumflex.alt" horiz-adv-x="516" 
d="M253 510c158 0 193 -86 193 -214v-277c0 -11 -8 -19 -21 -19s-22 8 -22 19v78h-3c-35 -69 -96 -109 -184 -109c-111 0 -176 55 -176 140c0 84 68 158 201 158c49 0 101 -8 158 -29v69c0 95 -30 160 -146 160c-47 0 -96 -12 -140 -73c-5 -7 -13 -14 -23 -14
c-11 0 -19 7 -19 19c0 8 5 18 13 27c28 32 97 65 169 65zM89 131c0 -78 54 -118 138 -118c106 0 172 82 172 159v60c-50 20 -99 29 -148 29c-104 0 -162 -51 -162 -130zM369 575l-111 82l-111 -82c-5 -4 -8 -5 -12 -5c-5 0 -11 3 -11 10c0 4 2 8 6 12l116 102c5 5 10 6 15 6
s10 -1 15 -6l110 -102c4 -4 6 -8 6 -12c0 -7 -6 -10 -11 -10c-4 0 -7 1 -12 5z" />
    <glyph glyph-name="adieresis.alt" horiz-adv-x="516" 
d="M253 510c158 0 193 -86 193 -214v-277c0 -11 -8 -19 -21 -19s-22 8 -22 19v78h-3c-35 -69 -96 -109 -184 -109c-111 0 -176 55 -176 140c0 84 68 158 201 158c49 0 101 -8 158 -29v69c0 95 -30 160 -146 160c-47 0 -96 -12 -140 -73c-5 -7 -13 -14 -23 -14
c-11 0 -19 7 -19 19c0 8 5 18 13 27c28 32 97 65 169 65zM89 131c0 -78 54 -118 138 -118c106 0 172 82 172 159v60c-50 20 -99 29 -148 29c-104 0 -162 -51 -162 -130zM148 599c-22 0 -33 13 -33 27c0 13 11 26 33 26s33 -13 33 -26c0 -14 -11 -27 -33 -27zM357 599
c-22 0 -33 13 -33 27c0 13 11 26 33 26s33 -13 33 -26c0 -14 -11 -27 -33 -27z" />
    <glyph glyph-name="atilde.alt" horiz-adv-x="516" 
d="M253 510c158 0 193 -86 193 -214v-277c0 -11 -8 -19 -21 -19s-22 8 -22 19v78h-3c-35 -69 -96 -109 -184 -109c-111 0 -176 55 -176 140c0 84 68 158 201 158c49 0 101 -8 158 -29v69c0 95 -30 160 -146 160c-47 0 -96 -12 -140 -73c-5 -7 -13 -14 -23 -14
c-11 0 -19 7 -19 19c0 8 5 18 13 27c28 32 97 65 169 65zM89 131c0 -78 54 -118 138 -118c106 0 172 82 172 159v60c-50 20 -99 29 -148 29c-104 0 -162 -51 -162 -130zM322 590c-25 0 -44 4 -82 27c-20 12 -34 19 -51 19c-23 0 -37 -12 -50 -37c-3 -6 -6 -10 -13 -10
c-8 0 -12 5 -12 10c0 6 2 10 5 16c15 30 39 53 78 53c25 0 45 -4 82 -27c21 -13 35 -19 52 -19c24 0 36 12 49 37c3 6 6 10 13 10c8 0 12 -5 12 -10c0 -6 -2 -10 -5 -16c-15 -30 -39 -53 -78 -53z" />
    <glyph glyph-name="aring.alt" horiz-adv-x="516" 
d="M253 510c158 0 193 -86 193 -214v-277c0 -11 -8 -19 -21 -19s-22 8 -22 19v78h-3c-35 -69 -96 -109 -184 -109c-111 0 -176 55 -176 140c0 84 68 158 201 158c49 0 101 -8 158 -29v69c0 95 -30 160 -146 160c-47 0 -96 -12 -140 -73c-5 -7 -13 -14 -23 -14
c-11 0 -19 7 -19 19c0 8 5 18 13 27c28 32 97 65 169 65zM89 131c0 -78 54 -118 138 -118c106 0 172 82 172 159v60c-50 20 -99 29 -148 29c-104 0 -162 -51 -162 -130zM175 641c0 48 38 84 85 84c50 0 84 -36 84 -84s-37 -84 -84 -84c-53 0 -85 36 -85 84zM202 641
c0 -35 21 -62 58 -62c32 0 57 26 57 62c0 34 -21 62 -57 62c-33 0 -58 -27 -58 -62z" />
    <glyph glyph-name="ae.alt" horiz-adv-x="909" 
d="M40 131c0 103 87 147 220 147h146v48c0 95 -33 160 -149 160c-47 0 -98 -12 -142 -73c-5 -7 -13 -14 -23 -14c-11 0 -19 7 -19 19c0 8 5 18 13 27c28 32 99 65 171 65c108 0 164 -46 184 -117h5c37 73 105 117 198 117c124 0 219 -78 219 -220v-11c0 -15 -8 -28 -29 -28
h-381v-11c0 -128 65 -225 185 -225c72 0 120 19 165 66c12 12 16 14 24 14c9 0 15 -6 15 -15c0 -4 -2 -8 -5 -12c-49 -54 -116 -80 -201 -80c-100 0 -172 46 -206 127h-4c-37 -83 -100 -127 -206 -127c-108 0 -180 58 -180 143zM89 134c0 -78 58 -121 142 -121
c106 0 175 77 175 188v50h-151c-112 0 -166 -38 -166 -117zM455 278h363v10c0 140 -82 196 -175 196c-103 0 -177 -74 -188 -206z" />
    <glyph glyph-name="ordfeminine.alt" horiz-adv-x="400" 
d="M202 710c113 0 138 -56 138 -148v-196c0 -10 -7 -17 -18 -17s-18 7 -18 17v45h-4c-23 -45 -68 -68 -126 -68c-80 0 -124 42 -124 101c0 61 50 111 146 111c34 0 67 -3 105 -17v40c0 65 -20 109 -99 109c-28 0 -66 -8 -96 -50c-5 -6 -10 -11 -18 -11c-10 0 -16 6 -16 17
c0 5 4 14 10 20c20 23 70 47 120 47zM90 448c0 -53 36 -82 94 -82c77 0 117 56 117 109v40c-35 14 -67 19 -100 19c-74 0 -111 -33 -111 -86z" />
    <glyph glyph-name="Ccedilla.alt" horiz-adv-x="682" 
d="M325 -57l19 46c-183 11 -298 144 -298 365c0 223 136 366 327 366c134 0 221 -51 258 -108c4 -6 6 -13 6 -18c0 -11 -8 -21 -23 -21c-10 0 -18 6 -28 21c-36 52 -94 98 -213 98c-171 0 -273 -137 -273 -338c0 -206 105 -338 269 -338c119 0 179 51 221 105
c10 13 16 19 26 19c12 0 18 -8 18 -17c0 -5 -3 -11 -7 -17c-37 -54 -115 -117 -256 -118l-14 -38c43 -6 80 -24 80 -70s-35 -72 -89 -72c-14 0 -40 3 -54 10c-7 3 -12 7 -12 14s5 12 11 12c5 0 8 -1 13 -3c18 -8 32 -10 44 -10c31 0 56 12 56 42c0 26 -22 39 -69 43
c-9 1 -15 6 -15 14c0 4 1 8 3 13z" />
    <glyph glyph-name="ccedilla.alt" horiz-adv-x="506" 
d="M220 -57l20 47c-133 15 -204 120 -204 257c0 146 97 263 246 263c73 0 147 -23 184 -77c4 -6 6 -12 6 -17c0 -9 -7 -20 -21 -20c-10 0 -17 5 -26 19c-31 51 -76 70 -143 70c-121 0 -196 -102 -196 -238c0 -132 67 -232 189 -232c57 0 107 17 154 67c10 11 15 16 24 16
c8 0 16 -6 16 -15c0 -4 -2 -8 -6 -13c-48 -55 -108 -82 -190 -82h-7l-14 -38c43 -6 80 -24 80 -70s-35 -72 -89 -72c-14 0 -40 3 -54 10c-7 3 -12 7 -12 14s5 12 11 12c5 0 8 -1 13 -3c18 -8 32 -10 44 -10c31 0 56 12 56 42c0 26 -23 39 -69 43c-9 1 -15 6 -15 14
c0 4 1 8 3 13z" />
    </font>
</defs>
</svg>
